<svg width="20" height="15" viewBox="0 0 20 15" fill="none" xmlns="http://www.w3.org/2000/svg">
<mask id="mask0_964_6767" style="mask-type:alpha" maskUnits="userSpaceOnUse" x="0" y="0" width="20" height="15">
<rect width="20" height="15" fill="white"/>
</mask>
<g mask="url(#mask0_964_6767)">
<path fill-rule="evenodd" clip-rule="evenodd" d="M14 0H20V15H14V0Z" fill="#2E42A5"/>
<path fill-rule="evenodd" clip-rule="evenodd" d="M6 0H14V15H6V0Z" fill="#FECA00"/>
<path fill-rule="evenodd" clip-rule="evenodd" d="M0 0H6V15H0V0Z" fill="#2E42A5"/>
<path fill-rule="evenodd" clip-rule="evenodd" d="M11.5214 9.54567C11.9169 8.72753 12.3732 7.2346 12.3732 7.2346L12.7193 6.20672L11.3474 6.70352L11.672 6.89208C11.672 6.89208 11.1062 8.0232 10.8212 8.57576C10.5362 9.12832 10.508 8.76326 10.508 8.76326L10.5568 4.90782L10.8716 4.82245L10.0869 3.315L9.08568 4.84334L9.52684 4.85524C9.52684 4.85524 9.49017 8.92312 9.42885 8.76326C9.39463 8.67246 9.30358 8.95309 9.25921 8.8444C8.98107 8.16301 8.60067 6.84243 8.60067 6.84243L8.82325 6.63419L7.33058 6.32709L7.77622 7.24476C7.77622 7.24476 8.1692 8.88 8.60067 9.67862C8.69783 9.93129 9.1673 10.0391 9.1673 10.0391C9.1673 10.0391 9.39652 9.8064 9.4533 10.0391C9.51009 10.2717 9.4533 11.2109 9.4533 11.2109H10.508C10.508 11.2109 10.4337 10.3249 10.508 10.0391C10.5823 9.75322 10.8124 10.0391 10.8124 10.0391C10.8124 10.0391 11.4244 9.79834 11.5214 9.54567Z" fill="black"/>
</g>
</svg>
