<svg width="20" height="15" viewBox="0 0 20 15" fill="none" xmlns="http://www.w3.org/2000/svg">
<mask id="mask0_964_6777" style="mask-type:alpha" maskUnits="userSpaceOnUse" x="0" y="0" width="20" height="15">
<rect width="20" height="15" fill="white"/>
</mask>
<g mask="url(#mask0_964_6777)">
<path fill-rule="evenodd" clip-rule="evenodd" d="M0 0V15H20V0H0Z" fill="#FFD221"/>
<mask id="mask1_964_6777" style="mask-type:alpha" maskUnits="userSpaceOnUse" x="0" y="0" width="20" height="15">
<path fill-rule="evenodd" clip-rule="evenodd" d="M0 0V15H20V0H0Z" fill="white"/>
</mask>
<g mask="url(#mask1_964_6777)">
<path d="M-1.91687 6.63451L-0.661876 3.77258L21.1048 13.3176L19.8498 16.1795L-1.91687 6.63451Z" fill="#313131"/>
<path d="M-1.88577 3.48093L-0.631305 0.618774L22.2178 10.6334L20.9633 13.4956L-1.88577 3.48093Z" fill="#FAF9F9"/>
<path fill-rule="evenodd" clip-rule="evenodd" d="M4.58178 7.74832C3.69518 6.66033 3.8434 5.92444 3.8434 5.92444C3.8434 5.92444 4.75075 5.9576 4.74063 6.5427C4.74063 6.78992 5.06608 7.02394 5.34647 7.22556C5.55864 7.37812 5.74501 7.51213 5.74501 7.61926C5.74501 7.86796 5.93226 10.3754 5.93226 10.3754C5.93226 10.3754 5.80147 10.6037 5.175 10.6037C4.54853 10.6037 4.58178 10.2428 4.58178 10.2428C4.96159 9.7771 4.58178 7.74832 4.58178 7.74832ZM15.4186 7.74832C16.3052 6.66033 16.1569 5.92444 16.1569 5.92444C16.1569 5.92444 15.2496 5.9576 15.2597 6.5427C15.2597 6.78992 14.9342 7.02394 14.6539 7.22556C14.4417 7.37812 14.2553 7.51213 14.2553 7.61926C14.2553 7.86796 14.0681 10.3754 14.0681 10.3754C14.0681 10.3754 14.1989 10.6037 14.8253 10.6037C15.4518 10.6037 15.4186 10.2428 15.4186 10.2428C15.0387 9.7771 15.4186 7.74832 15.4186 7.74832Z" fill="#CF1225"/>
<path fill-rule="evenodd" clip-rule="evenodd" d="M10.0374 1.79675L10.7417 2.29947L10.2802 2.42278L10.7417 2.82166L10.1671 2.6761V3.07908H10.7417L10.9338 4.0237L10.7114 3.86599L10.4891 4.0237L10.2667 3.86599L10.0444 4.0237L9.81533 3.86599L9.5863 4.0237L9.35725 3.86599L9.12823 4.0237L9.41672 3.07908H9.94836V1.79675H10.0374ZM13.1782 4.96966C13.1782 4.96966 12.9635 5.15942 12.5032 4.96966C12.3494 4.90626 12.1808 4.79543 12.0049 4.6798C11.6543 4.4493 11.2747 4.19974 10.9255 4.26895C10.401 4.37288 10.168 4.62317 10.168 4.62317V4.0467H10.1044H10.0059H9.94235V4.62317C9.94235 4.62317 9.70929 4.37288 9.18486 4.26895C8.83562 4.19974 8.45602 4.4493 8.10541 4.6798C7.92953 4.79543 7.76095 4.90626 7.60715 4.96966C7.14677 5.15942 6.93214 4.96966 6.93214 4.96966C6.93214 4.96966 6.93214 5.13029 7.27439 5.37769C7.42287 5.48502 7.59265 5.47729 7.7373 5.43414C7.63017 5.51496 7.57824 5.60992 7.74899 5.68601C8.10288 5.84372 8.68461 5.42856 8.74821 5.38191C8.67734 5.43459 7.97415 5.96338 8.29639 5.96338C8.63551 5.96338 9.18486 5.51901 9.18486 5.51901C9.18486 5.51901 8.51828 6.15859 8.8769 6.25823C9.10517 6.32165 9.37773 5.989 9.50582 5.79194C9.50994 5.83382 9.54842 5.85946 9.59035 5.88738C9.64407 5.92317 9.70346 5.96272 9.70346 6.04505C9.70346 6.1506 9.72965 6.16871 9.75261 6.18459C9.77053 6.19699 9.78648 6.20803 9.78648 6.25823V6.40404L9.70346 6.52649C9.70346 6.52649 9.70346 6.71697 9.78648 6.86837C9.84937 6.98304 9.81699 7.07947 9.76151 7.24473C9.74374 7.29765 9.7236 7.35764 9.70346 7.42754C9.62044 7.71571 9.78648 8.20789 9.78648 8.20789H9.70346C9.70346 8.20789 9.78648 8.26851 9.78648 8.51123C9.78648 8.70887 9.73144 8.82109 9.62749 9.03304C9.60377 9.0814 9.57751 9.13495 9.54877 9.19589C9.39407 9.52393 9.70346 9.94099 9.70346 9.94099C9.70346 9.94099 9.18486 9.71338 9.28882 9.94099C9.36865 10.1158 9.80683 10.2858 10.0059 10.3553V10.3881C10.0059 10.3881 10.0241 10.3825 10.0552 10.3722C10.0862 10.3825 10.1044 10.3881 10.1044 10.3881V10.3553C10.3035 10.2858 10.7417 10.1158 10.8215 9.94099C10.9255 9.71338 10.4069 9.94099 10.4069 9.94099C10.4069 9.94099 10.7162 9.52393 10.5616 9.19589C10.5328 9.13495 10.5066 9.0814 10.4828 9.03304C10.3789 8.82109 10.3238 8.70887 10.3238 8.51123C10.3238 8.26851 10.4069 8.20789 10.4069 8.20789H10.3238C10.3238 8.20789 10.4899 7.71571 10.4069 7.42754C10.3867 7.35764 10.3666 7.29765 10.3488 7.24473C10.2933 7.07947 10.261 6.98304 10.3238 6.86837C10.4069 6.71697 10.4069 6.52649 10.4069 6.52649L10.3238 6.40404V6.25823C10.3238 6.20803 10.3398 6.19699 10.3577 6.18459C10.3807 6.16871 10.4069 6.1506 10.4069 6.04505C10.4069 5.96272 10.4662 5.92317 10.52 5.88738C10.5619 5.85946 10.6004 5.83382 10.6045 5.79194C10.7326 5.989 11.0052 6.32165 11.2334 6.25823C11.592 6.15859 10.9255 5.51901 10.9255 5.51901C10.9255 5.51901 11.4748 5.96338 11.8139 5.96338C12.1362 5.96338 11.433 5.43459 11.3621 5.38191C11.4257 5.42856 12.0074 5.84372 12.3613 5.68601C12.5321 5.60992 12.4801 5.51496 12.373 5.43414C12.5177 5.47729 12.6875 5.48502 12.8359 5.37769C13.1782 5.13029 13.1782 4.96966 13.1782 4.96966ZM12.0383 5.26118C12.0383 5.26118 12.1843 5.37782 12.373 5.43414C12.245 5.33758 12.0383 5.26118 12.0383 5.26118ZM10.5616 5.68601C10.5053 5.6111 10.5314 5.67942 10.6045 5.79194C10.6072 5.765 10.5956 5.73134 10.5616 5.68601ZM9.54877 5.68601C9.60499 5.6111 9.57896 5.67942 9.50582 5.79194C9.50317 5.765 9.51474 5.73134 9.54877 5.68601ZM8.07203 5.26118C8.07203 5.26118 7.92606 5.37782 7.7373 5.43414C7.86528 5.33758 8.07203 5.26118 8.07203 5.26118Z" fill="#CF1225"/>
<path fill-rule="evenodd" clip-rule="evenodd" d="M7.0183 5.98633C7.0183 5.98633 6.27228 7.00109 6.3553 8.08533C6.43832 9.16957 7.32295 11.6922 9.94734 11.6922C9.9699 11.6922 9.99233 11.6916 10.0147 11.6916C12.7955 11.6916 13.5849 8.91017 13.5849 7.90996C13.5849 6.90109 12.9557 5.98633 12.9557 5.98633C12.9557 5.98633 13.0292 7.34008 12.9557 7.90996C12.734 9.62903 11.651 10.423 9.99601 10.423C8.33082 10.423 7.30041 9.59901 7.0183 7.90996C6.92709 7.36386 7.0183 5.98633 7.0183 5.98633Z" fill="#CF1225"/>
<path fill-rule="evenodd" clip-rule="evenodd" d="M5.66597 12.3446C5.66597 12.3446 5.80138 11.9568 5.96784 11.9568C6.1343 11.9568 5.64935 11.6202 5.96784 11.525C6.28634 11.4298 6.77643 11.9044 6.77643 11.4298C6.77643 10.9552 6.36197 10.6963 6.6665 10.6963C6.97104 10.6963 7.28876 10.6054 7.28876 10.6054C7.28876 10.6054 8.58449 11.9568 9.88169 11.9568C11.1789 11.9568 12.7388 10.6963 12.7388 10.6963C12.7388 10.6963 13.3138 10.5501 13.3138 10.7781C13.3138 11.0061 13.1876 11.3504 13.1876 11.3504C13.1876 11.3504 13.5905 11.271 13.7955 11.3504C14.0004 11.4298 13.7955 11.8098 13.7955 11.8098V11.9568C13.7955 11.9568 14.3287 11.8393 14.3287 12.0495C14.3287 12.2596 14.0713 12.1396 13.5497 12.1996C13.028 12.2596 12.83 12.6675 12.5023 12.6675C12.1746 12.6675 12.104 12.3446 12.104 12.3446C12.104 12.3446 11.0884 12.8951 9.88169 12.8951C8.67496 12.8951 7.94603 12.3446 7.94603 12.3446C7.94603 12.3446 8.05986 12.9097 7.67431 12.7886C7.28876 12.6675 6.89434 11.8994 6.43109 12.0495C5.96784 12.1996 5.66597 12.3446 5.66597 12.3446Z" fill="#CF1225"/>
<path fill-rule="evenodd" clip-rule="evenodd" d="M7.53866 10.103C7.56148 10.0818 7.58439 10.0582 7.61444 10.0255C7.69955 9.93315 7.7226 9.90868 7.74001 9.89748C7.74352 9.91327 7.74591 9.93908 7.74591 9.97455C7.74591 10.2098 7.75426 10.3875 7.77717 10.5111C7.7935 10.5991 7.81618 10.6561 7.85622 10.6833C7.91474 10.7229 7.97372 10.6884 8.02844 10.6061C8.15362 10.418 8.38922 10.3947 8.38922 10.4665C8.38922 10.4851 8.38189 10.5053 8.33613 10.6174C8.32822 10.6367 8.32199 10.6524 8.31621 10.6676C8.28407 10.7522 8.26975 10.8134 8.27672 10.8666C8.28712 10.9461 8.34566 10.9908 8.44045 10.9908C8.54588 10.9908 8.61517 10.9226 8.69175 10.7881C8.69921 10.775 8.71931 10.7385 8.72782 10.723L8.72786 10.7229L8.72787 10.7229L8.73165 10.716C8.74567 10.6909 8.75593 10.6739 8.76538 10.6608C8.79331 10.6218 8.79939 10.6248 8.86126 10.771C8.87755 10.8096 8.91098 10.8907 8.93993 10.961L8.93997 10.9611C8.96285 11.0166 8.98293 11.0653 8.98955 11.0809C9.03018 11.1764 9.05866 11.2327 9.08865 11.2721C9.15754 11.3626 9.23976 11.3619 9.33795 11.2779C9.35739 11.2612 9.37912 11.2448 9.40422 11.2276C9.41728 11.2186 9.44839 11.1986 9.47814 11.1794L9.4782 11.1794L9.47823 11.1794L9.47824 11.1794C9.50647 11.1612 9.53344 11.1439 9.54257 11.1375C9.59954 11.0977 9.62782 11.0663 9.62726 11.0201C9.62656 10.9616 9.57777 10.925 9.4805 10.8888C9.46123 10.8816 9.44629 10.8748 9.43546 10.8699L9.43546 10.8699L9.43544 10.8699C9.42746 10.8663 9.42172 10.8636 9.4181 10.8626C9.42052 10.8622 9.42408 10.8604 9.42965 10.8576L9.43451 10.8552C9.49553 10.8248 9.61871 10.8027 9.72866 10.8027L9.72928 10.8027C9.73441 10.8027 9.73749 10.8027 9.73931 10.8042C9.74202 10.8065 9.7419 10.8121 9.74158 10.8263V10.8263L9.74154 10.8279C9.7408 10.861 9.73362 10.8931 9.70649 10.9949L9.69713 11.0306C9.66637 11.1502 9.65782 11.2225 9.67898 11.2848C9.70999 11.3762 9.79811 11.4079 9.93498 11.3809C10.1202 11.3442 10.2103 11.2706 10.2339 11.158C10.2398 11.1297 10.241 11.1081 10.241 11.064C10.2411 10.9914 10.2415 10.9908 10.3036 10.9908C10.3918 10.9908 10.4268 11.0221 10.4639 11.109L10.4771 11.1407C10.5203 11.2448 10.5604 11.2901 10.6507 11.2901C10.711 11.2901 10.753 11.2647 10.7455 11.2062C10.7436 11.1914 10.7386 11.1782 10.7295 11.1599L10.7223 11.1457L10.7094 11.1203C10.6533 11.0056 10.6755 10.9181 10.8683 10.7947C10.9234 10.7595 11.0084 10.6998 11.0822 10.6482C11.1352 10.611 11.1824 10.5779 11.2082 10.5611C11.2103 10.5768 11.2118 10.5983 11.2132 10.6296L11.2162 10.7119L11.2177 10.7522C11.2259 10.9615 11.2694 11.153 11.3329 11.2308C11.4404 11.3625 11.5443 11.2408 11.6149 10.951C11.6825 10.6737 11.7789 10.4123 11.8729 10.2536C11.919 10.1758 11.9621 10.1271 11.995 10.1123C12.0168 10.1024 12.0321 10.1095 12.0547 10.1505C12.1396 10.3047 12.2703 10.4477 12.3807 10.4903C12.5447 10.5534 12.6419 10.4204 12.6419 10.1246C12.6419 9.8766 12.6822 9.67885 12.7488 9.52627C12.7717 9.4738 12.7961 9.43082 12.8201 9.39672C12.834 9.37716 12.8441 9.36534 12.8488 9.36067L12.7781 9.28464C12.7456 9.31649 12.6999 9.38121 12.6553 9.48328C12.5827 9.64953 12.5395 9.86194 12.5395 10.1246C12.5395 10.3585 12.4935 10.4214 12.4167 10.3918C12.3334 10.3597 12.2181 10.2335 12.1439 10.0987C12.0973 10.0141 12.0282 9.98249 11.9538 10.016C11.8969 10.0416 11.8414 10.1043 11.7853 10.199C11.6853 10.3679 11.5854 10.6388 11.5155 10.9255C11.4851 11.0501 11.4536 11.1294 11.4115 11.1632C11.3667 11.1084 11.3274 10.9356 11.3201 10.748L11.3187 10.7089L11.3155 10.6248C11.3138 10.5856 11.3118 10.5596 11.3085 10.5385C11.2982 10.4711 11.2641 10.4315 11.2028 10.4475C11.1787 10.4538 11.0631 10.5342 10.9592 10.6064L10.9592 10.6064C10.9012 10.6467 10.8469 10.6845 10.8141 10.7055C10.5757 10.8581 10.5384 11.005 10.6178 11.1674L10.6241 11.18C10.6051 11.1712 10.5918 11.1488 10.5714 11.0996L10.5577 11.0667C10.5059 10.9455 10.4391 10.8856 10.3036 10.8856C10.1732 10.8856 10.1387 10.9404 10.1386 11.0639C10.1385 11.1007 10.1376 11.1172 10.1337 11.1359C10.1198 11.2026 10.0637 11.2483 9.91558 11.2776C9.82299 11.2959 9.78682 11.2829 9.77574 11.2503C9.76382 11.2151 9.77079 11.1562 9.7962 11.0574L9.80532 11.0227C9.83536 10.9099 9.84296 10.876 9.84397 10.8303C9.84574 10.751 9.80694 10.6975 9.72866 10.6975C9.60452 10.6975 9.46673 10.7223 9.38984 10.7605C9.26369 10.8232 9.28869 10.9293 9.44557 10.9876C9.47639 10.9991 9.49677 11.0089 9.50914 11.0148C9.51793 11.0191 9.52266 11.0214 9.52421 11.0209C9.52306 11.0211 9.52022 11.0234 9.51537 11.0274C9.50896 11.0326 9.49904 11.0407 9.48492 11.0506C9.47747 11.0558 9.45377 11.071 9.42761 11.0878C9.39663 11.1077 9.3622 11.1299 9.34714 11.1402C9.31929 11.1594 9.29477 11.1779 9.27235 11.1971C9.21505 11.2461 9.199 11.2463 9.16939 11.2074C9.14634 11.1771 9.12074 11.1265 9.08345 11.0388C9.07706 11.0238 9.05743 10.9762 9.03488 10.9214C9.0058 10.8508 8.97187 10.7685 8.95524 10.7292C8.86716 10.521 8.77199 10.4742 8.68287 10.5984C8.67056 10.6156 8.65853 10.6354 8.64271 10.6638L8.63802 10.6723C8.62908 10.6886 8.61015 10.723 8.60329 10.7351C8.5439 10.8393 8.49686 10.8856 8.44045 10.8856C8.39389 10.8856 8.38133 10.8761 8.37827 10.8526C8.37433 10.8225 8.38557 10.7745 8.41167 10.7058C8.41709 10.6915 8.42302 10.6766 8.43062 10.658C8.48766 10.5183 8.49168 10.5073 8.49168 10.4665C8.49168 10.2534 8.1143 10.2906 7.94382 10.5469C7.92933 10.5686 7.91694 10.5829 7.90784 10.59C7.8991 10.5765 7.88722 10.5421 7.87783 10.4914C7.8565 10.3764 7.84836 10.2033 7.84836 9.97455C7.84836 9.82957 7.80481 9.75288 7.71116 9.79469C7.66881 9.81359 7.66721 9.8152 7.53998 9.95331C7.51158 9.98414 7.49028 10.0061 7.4698 10.0252C7.44328 10.0499 7.42032 10.0674 7.40058 10.0779C7.37149 10.0932 7.36032 10.0837 7.34461 10.016C7.32832 9.94573 7.32299 9.84658 7.32304 9.68147L7.32324 9.61227L7.32344 9.54098C7.32344 9.42378 7.29207 9.35813 7.21558 9.35813C7.18938 9.35813 7.16308 9.36702 7.1298 9.38396C7.11813 9.3899 7.10593 9.39666 7.08957 9.40609L7.04845 9.4299C6.97791 9.47016 6.93107 9.48841 6.88702 9.48841C6.8788 9.48841 6.874 9.48972 6.87183 9.4903C6.87096 9.49054 6.87052 9.49066 6.87044 9.49054C6.87036 9.49041 6.87069 9.49001 6.87139 9.48918C6.87328 9.48691 6.87782 9.48147 6.88379 9.46973C6.91288 9.41256 6.99113 9.32029 7.117 9.1966L7.04613 9.12067C6.91261 9.25188 6.82873 9.35079 6.79297 9.42106C6.74351 9.51826 6.78182 9.59355 6.88702 9.59355C6.9535 9.59355 7.0134 9.57021 7.09825 9.52178C7.19643 9.46574 7.2013 9.46327 7.21558 9.46327C7.21561 9.46327 7.22098 9.47452 7.22098 9.54098L7.22078 9.61182L7.22059 9.68143C7.22052 9.85497 7.22613 9.95925 7.24494 10.0403C7.27389 10.1651 7.34479 10.2255 7.44743 10.1714C7.47641 10.1561 7.50607 10.1334 7.53866 10.103ZM7.75079 9.89111C7.75154 9.8912 7.75208 9.8912 7.75231 9.8911L7.75079 9.89111ZM9.41502 10.8577C9.41318 10.8564 9.41227 10.8557 9.41224 10.8556C9.41327 10.8599 9.41422 10.8625 9.41583 10.8636L9.41502 10.8577ZM11.2283 10.5494L11.2272 10.5496L11.2279 10.5495L11.2283 10.5494Z" fill="#F6E017"/>
<path fill-rule="evenodd" clip-rule="evenodd" d="M8.64538 12.344C8.59994 12.4666 8.52824 12.5072 8.44722 12.4459C8.42262 12.4273 8.3987 12.4008 8.36536 12.3579L8.35789 12.3481L8.35789 12.3481C8.34011 12.3247 8.29595 12.2667 8.2797 12.2465C8.20991 12.1596 8.1498 12.1052 8.0845 12.0774L8.07852 12.0749L8.07852 12.0749C7.99891 12.0409 7.9818 12.0336 7.96502 12.0257L7.94672 12.0168C7.85093 11.97 7.79628 11.9216 7.74367 11.831C7.70252 11.7602 7.66267 11.6642 7.59515 11.4786L7.69114 11.4418C7.75652 11.6216 7.79472 11.7135 7.83169 11.7772C7.8734 11.849 7.91248 11.8837 7.99073 11.9218L8.00709 11.9298C8.02308 11.9374 8.03939 11.9443 8.11821 11.9779L8.11822 11.9779L8.11823 11.9779L8.1238 11.9803C8.20803 12.0162 8.27922 12.0806 8.35874 12.1796C8.37651 12.2017 8.42394 12.264 8.44004 12.2852L8.44004 12.2852L8.44543 12.2923C8.47346 12.3283 8.49272 12.3497 8.50804 12.3613C8.51635 12.3676 8.51683 12.368 8.51575 12.3687C8.52288 12.3643 8.53552 12.3446 8.54962 12.3066C8.58103 12.2218 8.55346 12.1562 8.47707 12.0878C8.47424 12.0852 8.46643 12.079 8.45619 12.0708L8.45619 12.0708C8.42691 12.0473 8.37781 12.0079 8.36875 11.9945C8.33962 11.9512 8.36457 11.9072 8.40954 11.8952C8.42979 11.8899 8.45972 11.8879 8.5075 11.8879C8.67294 11.8879 8.71844 11.9851 8.74912 12.2336L8.74963 12.2377C8.7738 12.4335 8.79826 12.4873 8.88187 12.4873C8.97619 12.4873 9.03364 12.4498 9.13392 12.3427L9.15589 12.3192C9.28368 12.1832 9.37317 12.1375 9.5235 12.1791C9.64359 12.2123 9.69491 12.2714 9.70699 12.3629C9.70833 12.3731 9.70899 12.3805 9.71031 12.3979C9.71617 12.4751 9.72979 12.4873 9.87921 12.4873C9.99253 12.4873 10.098 12.4934 10.2356 12.5055L10.2522 12.507L10.2522 12.5071C10.2844 12.51 10.353 12.5162 10.3736 12.5179C10.4184 12.5216 10.4502 12.5234 10.4753 12.5234C10.4932 12.5234 10.507 12.5224 10.5164 12.5208C10.5203 12.4907 10.538 12.4695 10.6098 12.3882C10.6181 12.3788 10.6245 12.3714 10.6305 12.3644C10.664 12.3248 10.6788 12.2983 10.6779 12.294C10.6777 12.2932 10.6477 12.2824 10.5666 12.2824C10.4922 12.2824 10.4549 12.2731 10.4482 12.2206C10.4426 12.1767 10.4679 12.1554 10.5242 12.1255C10.5887 12.0912 10.7062 12.0467 10.8471 12.0018C10.9828 11.9586 11.126 11.9197 11.235 11.8968C11.2939 11.8845 11.3419 11.877 11.3768 11.875C11.4434 11.8712 11.483 11.8805 11.483 11.9404C11.483 11.9655 11.5534 12.0514 11.6235 12.0904C11.7072 12.137 11.7667 12.1193 11.8078 12.01C11.8677 11.8504 11.9925 11.678 12.1142 11.5793C12.1795 11.5263 12.2396 11.4978 12.2916 11.5025C12.3618 11.5089 12.3984 11.5691 12.3984 11.6601H12.296C12.296 11.6174 12.2902 11.608 12.2826 11.6073C12.2633 11.6055 12.2243 11.624 12.1777 11.6618C12.0703 11.7489 11.9566 11.9059 11.9034 12.0478C11.8388 12.2198 11.71 12.2581 11.5747 12.1828C11.4917 12.1367 11.4124 12.0491 11.3881 11.9797C11.3535 11.9816 11.31 11.9884 11.2555 11.9999C11.1502 12.022 11.0101 12.0599 10.8775 12.1022C10.7897 12.1302 10.7114 12.158 10.6514 12.1824C10.7246 12.1929 10.7669 12.2201 10.7779 12.2713C10.789 12.3224 10.7641 12.3669 10.7078 12.4334C10.7013 12.441 10.6945 12.4489 10.6857 12.4588C10.6361 12.5149 10.6179 12.539 10.6179 12.5399C10.6179 12.6094 10.5651 12.6285 10.4753 12.6285C10.4468 12.6285 10.4127 12.6266 10.3654 12.6227C10.3442 12.621 10.2744 12.6146 10.2425 12.6117L10.2268 12.6103C10.0919 12.5984 9.98906 12.5925 9.87921 12.5925C9.67745 12.5925 9.61827 12.5393 9.60816 12.4061C9.60699 12.3907 9.60645 12.3846 9.60545 12.377C9.59895 12.3277 9.57737 12.3029 9.49682 12.2806C9.39173 12.2515 9.33422 12.2809 9.22965 12.3922L9.2078 12.4155C9.08976 12.5416 9.01193 12.5925 8.88187 12.5925C8.73477 12.5925 8.68658 12.5138 8.65603 12.3103C8.65316 12.3213 8.64962 12.3325 8.64538 12.344ZM8.65395 12.2509L8.65333 12.2468C8.64362 12.1823 8.63365 12.1328 8.62085 12.0955C8.67149 12.1595 8.68916 12.2301 8.66377 12.3103C8.66034 12.2915 8.65709 12.2718 8.65395 12.2509ZM10.5282 12.1745L10.5314 12.1755L10.5295 12.1748L10.5282 12.1745ZM10.5263 12.5185L10.5237 12.5193L10.5254 12.5189L10.5263 12.5185Z" fill="#F6E017"/>
</g>
</g>
</svg>
