<svg width="20" height="15" viewBox="0 0 20 15" fill="none" xmlns="http://www.w3.org/2000/svg">
<mask id="mask0_964_6848" style="mask-type:alpha" maskUnits="userSpaceOnUse" x="0" y="0" width="20" height="15">
<rect width="20" height="15" fill="white"/>
</mask>
<g mask="url(#mask0_964_6848)">
<path fill-rule="evenodd" clip-rule="evenodd" d="M0 0H20V15H0V0Z" fill="#C51918"/>
<path fill-rule="evenodd" clip-rule="evenodd" d="M2 2H18V13H2V2Z" fill="#4564F9"/>
<path d="M2.625 2.625H17.375V12.375H2.625V2.625Z" stroke="#CBDAFF" stroke-opacity="0.12" stroke-width="1.25"/>
<mask id="mask1_964_6848" style="mask-type:alpha" maskUnits="userSpaceOnUse" x="2" y="2" width="16" height="11">
<path fill-rule="evenodd" clip-rule="evenodd" d="M2 2H18V13H2V2Z" fill="white"/>
<path d="M2.625 2.625H17.375V12.375H2.625V2.625Z" stroke="white" stroke-width="1.25"/>
</mask>
<g mask="url(#mask1_964_6848)">
<path opacity="0.4" d="M10.25 3.00005L10.656 2.18984L10.2406 1.98162L9.829 2.19753L10.25 3.00005ZM10.25 3.00005C10.656 2.18984 10.6563 2.18998 10.6566 2.19013L10.6573 2.19045L10.6588 2.19121L10.6627 2.19319L10.674 2.19899L10.7103 2.21792C10.7402 2.23378 10.7817 2.25614 10.8329 2.28488C10.9353 2.34228 11.0776 2.42554 11.2465 2.5337C11.5825 2.74885 12.0334 3.06847 12.488 3.48602C13.374 4.29973 14.4063 5.61006 14.4063 7.34126C14.4063 9.05624 13.39 10.4404 12.5209 11.3235C12.0729 11.7788 11.628 12.1377 11.2959 12.3827C11.1291 12.5058 10.9888 12.6017 10.8881 12.668C10.8376 12.7012 10.797 12.7271 10.7678 12.7454L10.7326 12.7672L10.7218 12.7738L10.7181 12.7761L10.7167 12.7769L10.7161 12.7772C10.7159 12.7774 10.7156 12.7775 10.25 12M10.25 3.00005C9.829 2.19753 9.82874 2.19766 9.82847 2.19781L9.82785 2.19813L9.82641 2.19889L9.82261 2.2009L9.81151 2.20684L9.77577 2.22632C9.74613 2.24267 9.70506 2.26575 9.65419 2.29539C9.55256 2.35459 9.41113 2.44034 9.24311 2.55121C8.9088 2.77178 8.46016 3.09772 8.00778 3.51851C7.13091 4.33416 6.09377 5.64452 6.09377 7.34126C6.09377 9.02125 7.11428 10.406 7.97544 11.2912C8.42153 11.7497 8.86447 12.1148 9.19498 12.3652C9.36099 12.491 9.50058 12.5892 9.60064 12.6573C9.65071 12.6914 9.69103 12.718 9.71996 12.7367L9.75467 12.7591L9.76527 12.7658L9.76882 12.768L9.77015 12.7688L9.7707 12.7692C9.77095 12.7693 9.77118 12.7695 10.25 12M10.25 12L10.7156 12.7775L10.2409 13.0618L9.77118 12.7695L10.25 12Z" fill="#CCE0E5" stroke="#6D87FB" stroke-width="1.8125"/>
<path d="M10.25 3.77299L10.6791 2.97476L10.24 2.73875L9.8056 2.98319L10.25 3.77299ZM10.25 3.77299C10.6791 2.97476 10.6794 2.97491 10.6797 2.97506L10.6803 2.9754L10.6817 2.97618L10.6853 2.97811L10.6951 2.98351L10.7253 3.00041C10.7499 3.01438 10.7834 3.03378 10.8245 3.05851C10.9066 3.10789 11.0198 3.17894 11.1537 3.27087C11.4198 3.45364 11.7764 3.72476 12.136 4.07905C12.8384 4.77095 13.6563 5.88563 13.6563 7.35478C13.6563 8.80905 12.8524 9.98244 12.1678 10.7286C11.815 11.1131 11.4648 11.4161 11.2031 11.6233C11.0715 11.7274 10.9605 11.8088 10.8803 11.8655C10.8401 11.8938 10.8074 11.9161 10.7837 11.9321L10.7547 11.9514L10.7454 11.9574L10.7421 11.9596L10.7409 11.9604L10.7403 11.9608C10.74 11.9609 10.7398 11.9611 10.25 11.1986M10.25 3.77299C9.8056 2.98319 9.80534 2.98334 9.80506 2.9835L9.80446 2.98384L9.80309 2.98461L9.79966 2.98656L9.79009 2.99205L9.76045 3.00938C9.7362 3.02373 9.70308 3.0437 9.66237 3.06913C9.58106 3.11994 9.46881 3.19296 9.33588 3.28704C9.07159 3.47407 8.71732 3.75013 8.35994 4.10669C7.6662 4.79884 6.84377 5.91337 6.84377 7.35478C6.84377 8.78076 7.65161 9.95461 8.32875 10.7012C8.67959 11.088 9.02782 11.3959 9.28791 11.6072C9.41864 11.7134 9.52887 11.7967 9.60843 11.8547C9.64825 11.8838 9.68052 11.9066 9.70399 11.923L9.73246 11.9426L9.74149 11.9487L9.74465 11.9508L9.74588 11.9517L9.74641 11.952C9.74665 11.9522 9.74688 11.9523 10.25 11.1986M10.25 11.1986L10.7398 11.9611L10.2405 12.2818L9.74688 11.9523L10.25 11.1986Z" fill="#CCE0E5"/>
<path d="M10.25 3.77299L10.6791 2.97476L10.24 2.73875L9.8056 2.98319L10.25 3.77299ZM10.25 3.77299C10.6791 2.97476 10.6794 2.97491 10.6797 2.97506L10.6803 2.9754L10.6817 2.97618L10.6853 2.97811L10.6951 2.98351L10.7253 3.00041C10.7499 3.01438 10.7834 3.03378 10.8245 3.05851C10.9066 3.10789 11.0198 3.17894 11.1537 3.27087C11.4198 3.45364 11.7764 3.72476 12.136 4.07905C12.8384 4.77095 13.6563 5.88563 13.6563 7.35478C13.6563 8.80905 12.8524 9.98244 12.1678 10.7286C11.815 11.1131 11.4648 11.4161 11.2031 11.6233C11.0715 11.7274 10.9605 11.8088 10.8803 11.8655C10.8401 11.8938 10.8074 11.9161 10.7837 11.9321L10.7547 11.9514L10.7454 11.9574L10.7421 11.9596L10.7409 11.9604L10.7403 11.9608C10.74 11.9609 10.7398 11.9611 10.25 11.1986M10.25 3.77299C9.8056 2.98319 9.80534 2.98334 9.80506 2.9835L9.80446 2.98384L9.80309 2.98461L9.79966 2.98656L9.79009 2.99205L9.76045 3.00938C9.7362 3.02373 9.70308 3.0437 9.66237 3.06913C9.58106 3.11994 9.46881 3.19296 9.33588 3.28704C9.07159 3.47407 8.71732 3.75013 8.35994 4.10669C7.6662 4.79884 6.84377 5.91337 6.84377 7.35478C6.84377 8.78076 7.65161 9.95461 8.32875 10.7012C8.67959 11.088 9.02782 11.3959 9.28791 11.6072C9.41864 11.7134 9.52887 11.7967 9.60843 11.8547C9.64825 11.8838 9.68052 11.9066 9.70399 11.923L9.73246 11.9426L9.74149 11.9487L9.74465 11.9508L9.74588 11.9517L9.74641 11.952C9.74665 11.9522 9.74688 11.9523 10.25 11.1986M10.25 11.1986L10.7398 11.9611L10.2405 12.2818L9.74688 11.9523L10.25 11.1986Z" stroke="#C1C9F1" stroke-opacity="0.748217" stroke-width="1.8125"/>
<path d="M10.25 3.77299L10.6791 2.97476L10.24 2.73875L9.8056 2.98319L10.25 3.77299ZM10.25 3.77299C10.6791 2.97476 10.6794 2.97491 10.6797 2.97506L10.6803 2.9754L10.6817 2.97618L10.6853 2.97811L10.6951 2.98351L10.7253 3.00041C10.7499 3.01438 10.7834 3.03378 10.8245 3.05851C10.9066 3.10789 11.0198 3.17894 11.1537 3.27087C11.4198 3.45364 11.7764 3.72476 12.136 4.07905C12.8384 4.77095 13.6563 5.88563 13.6563 7.35478C13.6563 8.80905 12.8524 9.98244 12.1678 10.7286C11.815 11.1131 11.4648 11.4161 11.2031 11.6233C11.0715 11.7274 10.9605 11.8088 10.8803 11.8655C10.8401 11.8938 10.8074 11.9161 10.7837 11.9321L10.7547 11.9514L10.7454 11.9574L10.7421 11.9596L10.7409 11.9604L10.7403 11.9608C10.74 11.9609 10.7398 11.9611 10.25 11.1986M10.25 3.77299C9.8056 2.98319 9.80534 2.98334 9.80506 2.9835L9.80446 2.98384L9.80309 2.98461L9.79966 2.98656L9.79009 2.99205L9.76045 3.00938C9.7362 3.02373 9.70308 3.0437 9.66237 3.06913C9.58106 3.11994 9.46881 3.19296 9.33588 3.28704C9.07159 3.47407 8.71732 3.75013 8.35994 4.10669C7.6662 4.79884 6.84377 5.91337 6.84377 7.35478C6.84377 8.78076 7.65161 9.95461 8.32875 10.7012C8.67959 11.088 9.02782 11.3959 9.28791 11.6072C9.41864 11.7134 9.52887 11.7967 9.60843 11.8547C9.64825 11.8838 9.68052 11.9066 9.70399 11.923L9.73246 11.9426L9.74149 11.9487L9.74465 11.9508L9.74588 11.9517L9.74641 11.952C9.74665 11.9522 9.74688 11.9523 10.25 11.1986M10.25 11.1986L10.7398 11.9611L10.2405 12.2818L9.74688 11.9523L10.25 11.1986Z" stroke="#C51918" stroke-width="1.8125"/>
<mask id="mask2_964_6848" style="mask-type:alpha" maskUnits="userSpaceOnUse" x="7" y="3" width="6" height="9">
<path d="M10.8322 9.50325C10.6328 9.7206 10.432 9.9066 10.2575 10.055C10.08 9.90103 9.87491 9.70799 9.67128 9.48348C9.09842 8.8519 8.65627 8.10386 8.65627 7.35478C8.65627 6.62113 9.08383 5.94478 9.64009 5.38979C9.85623 5.17415 10.0744 4.99468 10.258 4.85738C10.4387 4.98924 10.6523 5.1617 10.864 5.37025C11.4117 5.90974 11.8438 6.58595 11.8438 7.35478C11.8438 8.13848 11.3977 8.88699 10.8322 9.50325Z" fill="white"/>
<path d="M10.8322 9.50325C10.6328 9.7206 10.432 9.9066 10.2575 10.055C10.08 9.90103 9.87491 9.70799 9.67128 9.48348C9.09842 8.8519 8.65627 8.10386 8.65627 7.35478C8.65627 6.62113 9.08383 5.94478 9.64009 5.38979C9.85623 5.17415 10.0744 4.99468 10.258 4.85738C10.4387 4.98924 10.6523 5.1617 10.864 5.37025C11.4117 5.90974 11.8438 6.58595 11.8438 7.35478C11.8438 8.13848 11.3977 8.88699 10.8322 9.50325Z" stroke="white" stroke-width="1.8125"/>
</mask>
<g mask="url(#mask2_964_6848)">
<rect x="8.08334" y="8.75" width="4.66667" height="0.9375" fill="#91CBCB"/>
<path fill-rule="evenodd" clip-rule="evenodd" d="M8.5011 9.49871C8.5011 9.49871 11.8099 9.49989 12.114 9.38571C12.4181 9.27153 11.5431 11.5779 10.425 11.5779C9.30702 11.5779 8.5011 9.49871 8.5011 9.49871Z" fill="#FDF9A1"/>
<path d="M11.621 9.22195L11.0266 9.67933C10.0898 8.46191 9.69687 7.2025 9.86459 5.91716L10.6083 6.0142C10.4678 7.09078 10.7998 8.15468 11.621 9.22195Z" fill="#A68861"/>
<path fill-rule="evenodd" clip-rule="evenodd" d="M10.246 6.02296L9.67895 6.68742C9.65767 6.71236 9.61725 6.69188 9.62476 6.65998L9.81982 5.8315H8.93274C8.8989 5.8315 8.8892 5.78522 8.92019 5.77163L9.6782 5.43932L9.14018 4.73001C9.12113 4.70489 9.14705 4.67056 9.17643 4.68201L10.0225 5.01182L10.2156 4.23467C10.2235 4.20304 10.2685 4.20306 10.2763 4.23471L10.4684 5.01182L11.3071 4.68527C11.3371 4.67359 11.363 4.70942 11.3426 4.73426L10.7616 5.43932L11.5633 5.77138C11.5948 5.78446 11.5855 5.8315 11.5513 5.8315H10.7616L10.8817 6.67909C10.8861 6.71007 10.8473 6.72756 10.827 6.70377L10.246 6.02296Z" fill="#239E46"/>
<path fill-rule="evenodd" clip-rule="evenodd" d="M9.75002 8.125H12.75V8.78125H9.75002V8.125Z" fill="#239E46"/>
<path fill-rule="evenodd" clip-rule="evenodd" d="M9.29501 7.74538H9.29201C9.28335 7.77754 9.26218 7.80428 9.22851 7.82561C9.19485 7.84694 9.15135 7.8576 9.09801 7.8576C9.05535 7.8576 9.01618 7.84989 8.98051 7.83447C8.94485 7.81905 8.91435 7.7964 8.88901 7.76655C8.86368 7.73669 8.84385 7.69961 8.82951 7.65531C8.81518 7.61101 8.80801 7.55999 8.80801 7.50224C8.80801 7.44515 8.81501 7.39445 8.82901 7.35015C8.84301 7.30586 8.86301 7.26878 8.88901 7.23892C8.91501 7.20906 8.94635 7.18626 8.98301 7.17051C9.01968 7.15476 9.06035 7.14688 9.10501 7.14688C9.16768 7.14688 9.22001 7.16066 9.26201 7.18822C9.30401 7.21579 9.33635 7.25221 9.35901 7.29749L9.29001 7.33883C9.27401 7.30208 9.25018 7.27321 9.21851 7.25221C9.18685 7.23121 9.14901 7.22071 9.10501 7.22071C9.07435 7.22071 9.04635 7.22612 9.02101 7.23695C8.99568 7.24778 8.97385 7.26304 8.95551 7.28272C8.93718 7.30241 8.92301 7.32604 8.91301 7.3536C8.90301 7.38116 8.89801 7.41201 8.89801 7.44613V7.55737C8.89801 7.59149 8.90301 7.6225 8.91301 7.65039C8.92301 7.67828 8.93718 7.70207 8.95551 7.72176C8.97385 7.74144 8.99635 7.7567 9.02301 7.76753C9.04968 7.77836 9.07968 7.78377 9.11301 7.78377C9.13701 7.78377 9.15985 7.78065 9.18151 7.77442C9.20318 7.76819 9.22218 7.75883 9.23851 7.74637C9.25485 7.7339 9.26768 7.71831 9.27701 7.69961C9.28635 7.6809 9.29101 7.65876 9.29101 7.63316V7.56524H9.13701V7.4924H9.37301V7.84579H9.29501V7.74538ZM9.81701 7.15869V7.58394C9.81701 7.64957 9.82935 7.69928 9.85401 7.73308C9.87868 7.76687 9.92201 7.78377 9.98401 7.78377C10.046 7.78377 10.0893 7.76687 10.114 7.73308C10.1387 7.69928 10.151 7.64957 10.151 7.58394V7.15869H10.235V7.56426C10.235 7.61413 10.2305 7.65744 10.2215 7.69419C10.2125 7.73094 10.198 7.76146 10.178 7.78574C10.158 7.81002 10.1318 7.82807 10.0995 7.83988C10.0672 7.85169 10.0277 7.8576 9.98101 7.8576C9.93435 7.8576 9.89518 7.85169 9.86351 7.83988C9.83185 7.82807 9.80635 7.81002 9.78701 7.78574C9.76768 7.76146 9.75385 7.73094 9.74551 7.69419C9.73718 7.65744 9.73301 7.61413 9.73301 7.56426V7.15869H9.81701ZM11.04 7.84579L10.97 7.64301H10.688L10.618 7.84579H10.533L10.777 7.15869H10.884L11.128 7.84579H11.04ZM10.831 7.23547H10.826L10.708 7.57016H10.949L10.831 7.23547ZM11.988 7.26697H11.983L11.924 7.38215L11.757 7.6814L11.59 7.38215L11.531 7.26697H11.526V7.84579H11.444V7.15869H11.556L11.756 7.52882H11.761L11.962 7.15869H12.07V7.84579H11.988V7.26697Z" fill="#C51918"/>
</g>
</g>
</g>
</svg>
