<svg width="20" height="15" viewBox="0 0 20 15" fill="none" xmlns="http://www.w3.org/2000/svg">
<mask id="mask0_964_6864" style="mask-type:alpha" maskUnits="userSpaceOnUse" x="0" y="0" width="20" height="15">
<rect width="20" height="15" fill="white"/>
</mask>
<g mask="url(#mask0_964_6864)">
<path fill-rule="evenodd" clip-rule="evenodd" d="M0 0V15H20V0H0Z" fill="#F7FCFF"/>
<mask id="mask1_964_6864" style="mask-type:alpha" maskUnits="userSpaceOnUse" x="0" y="0" width="20" height="15">
<path fill-rule="evenodd" clip-rule="evenodd" d="M0 0V15H20V0H0Z" fill="white"/>
</mask>
<g mask="url(#mask1_964_6864)">
<path fill-rule="evenodd" clip-rule="evenodd" d="M0 0V5H20V0H0Z" fill="#5EAA22"/>
<path fill-rule="evenodd" clip-rule="evenodd" d="M0 10V15H20V10H0Z" fill="#E31D1C"/>
<path d="M0.2329 10.8543H-1.18838" stroke="#F7FCFF" stroke-width="0.625"/>
<path d="M-1.20303 11.4171V11.0908H-0.740367V11.4061H-0.272849V11.0912H-0.515404" stroke="#F7FCFF" stroke-width="0.625"/>
<path d="M0.211427 11.4038H-0.0241585V11.0977H0.47186V10.8469V11.4038H0.69632V10.8469" stroke="#F7FCFF" stroke-width="0.625"/>
<path d="M0.948848 10.88C0.948848 10.9108 0.948848 11.4062 0.948848 11.4062H0.715858" stroke="#F7FCFF" stroke-width="0.625"/>
<path d="M2.67193 10.8543H1.25064" stroke="#F7FCFF" stroke-width="0.625"/>
<path d="M1.23599 11.4171V11.0908H1.69866V11.4061H2.16618V11.0912H1.92362" stroke="#F7FCFF" stroke-width="0.625"/>
<path d="M2.69401 11.4038H2.45842V11.0977H2.95444V10.8469V11.4038H3.1789V10.8469" stroke="#F7FCFF" stroke-width="0.625"/>
<path d="M3.43143 10.88C3.43143 10.9108 3.43143 11.4062 3.43143 11.4062H3.19844" stroke="#F7FCFF" stroke-width="0.625"/>
<path d="M5.1545 10.8543H3.73322" stroke="#F7FCFF" stroke-width="0.625"/>
<path d="M3.71857 11.4171V11.0908H4.18124V11.4061H4.64875V11.0912H4.4062" stroke="#F7FCFF" stroke-width="0.625"/>
<path d="M5.13303 11.4038H4.89744V11.0977H5.39346V10.8469V11.4038H5.61792V10.8469" stroke="#F7FCFF" stroke-width="0.625"/>
<path d="M5.87045 10.88C5.87045 10.9108 5.87045 11.4062 5.87045 11.4062H5.63746" stroke="#F7FCFF" stroke-width="0.625"/>
<path d="M7.59353 10.8543H6.17225" stroke="#F7FCFF" stroke-width="0.625"/>
<path d="M6.15759 11.4171V11.0908H6.62026V11.4061H7.08778V11.0912H6.84522" stroke="#F7FCFF" stroke-width="0.625"/>
<path d="M7.57205 11.4038H7.33647V11.0977H7.83249V10.8469V11.4038H8.05695V10.8469" stroke="#F7FCFF" stroke-width="0.625"/>
<path d="M8.30947 10.88C8.30947 10.9108 8.30947 11.4062 8.30947 11.4062H8.07648" stroke="#F7FCFF" stroke-width="0.625"/>
<path d="M10.0326 10.8543H8.61127" stroke="#F7FCFF" stroke-width="0.625"/>
<path d="M8.59662 11.4171V11.0908H9.05929V11.4061H9.5268V11.0912H9.28425" stroke="#F7FCFF" stroke-width="0.625"/>
<path d="M10.0546 11.4038H9.81905V11.0977H10.3151V10.8469V11.4038H10.5395V10.8469" stroke="#F7FCFF" stroke-width="0.625"/>
<path d="M10.7921 10.88C10.7921 10.9108 10.7921 11.4062 10.7921 11.4062H10.5591" stroke="#F7FCFF" stroke-width="0.625"/>
<path d="M12.5151 10.8543H11.0938" stroke="#F7FCFF" stroke-width="0.625"/>
<path d="M11.0792 11.4171V11.0908H11.5419V11.4061H12.0094V11.0912H11.7668" stroke="#F7FCFF" stroke-width="0.625"/>
<path d="M12.5372 11.4038H12.3016V11.0977H12.7976V10.8469V11.4038H13.0221V10.8469" stroke="#F7FCFF" stroke-width="0.625"/>
<path d="M13.2746 10.88C13.2746 10.9108 13.2746 11.4062 13.2746 11.4062H13.0416" stroke="#F7FCFF" stroke-width="0.625"/>
<path d="M14.9977 10.8543H13.5764" stroke="#F7FCFF" stroke-width="0.625"/>
<path d="M13.5618 11.4171V11.0908H14.0244V11.4061H14.492V11.0912H14.2494" stroke="#F7FCFF" stroke-width="0.625"/>
<path d="M15.0198 11.4038H14.7842V11.0977H15.2802V10.8469V11.4038H15.5047V10.8469" stroke="#F7FCFF" stroke-width="0.625"/>
<path d="M15.7572 10.88C15.7572 10.9108 15.7572 11.4062 15.7572 11.4062H15.5242" stroke="#F7FCFF" stroke-width="0.625"/>
<path d="M17.4803 10.8543H16.059" stroke="#F7FCFF" stroke-width="0.625"/>
<path d="M16.0444 11.4171V11.0908H16.507V11.4061H16.9745V11.0912H16.732" stroke="#F7FCFF" stroke-width="0.625"/>
<path d="M17.4588 11.4038H17.2232V11.0977H17.7192V10.8469V11.4038H17.9437V10.8469" stroke="#F7FCFF" stroke-width="0.625"/>
<path d="M18.1962 10.88C18.1962 10.9108 18.1962 11.4062 18.1962 11.4062H17.9632" stroke="#F7FCFF" stroke-width="0.625"/>
<path d="M19.9193 10.8543H18.498" stroke="#F7FCFF" stroke-width="0.625"/>
<path d="M18.4834 11.4171V11.0908H18.946V11.4061H19.4136V11.0912H19.171" stroke="#F7FCFF" stroke-width="0.625"/>
<path d="M20.0285 11.4038H19.7929V11.0977H20.2889V10.8469V11.4038H20.5134V10.8469" stroke="#F7FCFF" stroke-width="0.625"/>
<path d="M0.2329 3.22933H-1.18838" stroke="#F7FCFF" stroke-width="0.625"/>
<path d="M-1.20303 3.79205V3.4658H-0.740367V3.7811H-0.272849V3.46615H-0.515404" stroke="#F7FCFF" stroke-width="0.625"/>
<path d="M0.211427 3.77881H-0.0241585V3.47267H0.47186V3.22188V3.77881H0.69632V3.22188" stroke="#F7FCFF" stroke-width="0.625"/>
<path d="M0.948848 3.255C0.948848 3.28579 0.948848 3.78116 0.948848 3.78116H0.715858" stroke="#F7FCFF" stroke-width="0.625"/>
<path d="M2.67193 3.22933H1.25064" stroke="#F7FCFF" stroke-width="0.625"/>
<path d="M1.23599 3.79205V3.4658H1.69866V3.7811H2.16618V3.46615H1.92362" stroke="#F7FCFF" stroke-width="0.625"/>
<path d="M2.69401 3.77881H2.45842V3.47267H2.95444V3.22188V3.77881H3.1789V3.22188" stroke="#F7FCFF" stroke-width="0.625"/>
<path d="M3.43143 3.255C3.43143 3.28579 3.43143 3.78116 3.43143 3.78116H3.19844" stroke="#F7FCFF" stroke-width="0.625"/>
<path d="M5.1545 3.22933H3.73322" stroke="#F7FCFF" stroke-width="0.625"/>
<path d="M3.71857 3.79205V3.4658H4.18124V3.7811H4.64875V3.46615H4.4062" stroke="#F7FCFF" stroke-width="0.625"/>
<path d="M5.13303 3.77881H4.89744V3.47267H5.39346V3.22188V3.77881H5.61792V3.22188" stroke="#F7FCFF" stroke-width="0.625"/>
<path d="M5.87045 3.255C5.87045 3.28579 5.87045 3.78116 5.87045 3.78116H5.63746" stroke="#F7FCFF" stroke-width="0.625"/>
<path d="M7.59353 3.22933H6.17225" stroke="#F7FCFF" stroke-width="0.625"/>
<path d="M6.15759 3.79205V3.4658H6.62026V3.7811H7.08778V3.46615H6.84522" stroke="#F7FCFF" stroke-width="0.625"/>
<path d="M7.57205 3.77881H7.33647V3.47267H7.83249V3.22188V3.77881H8.05695V3.22188" stroke="#F7FCFF" stroke-width="0.625"/>
<path d="M8.30947 3.255C8.30947 3.28579 8.30947 3.78116 8.30947 3.78116H8.07648" stroke="#F7FCFF" stroke-width="0.625"/>
<path d="M10.0326 3.22933H8.61127" stroke="#F7FCFF" stroke-width="0.625"/>
<path d="M8.59662 3.79205V3.4658H9.05929V3.7811H9.5268V3.46615H9.28425" stroke="#F7FCFF" stroke-width="0.625"/>
<path d="M10.0546 3.77881H9.81905V3.47267H10.3151V3.22188V3.77881H10.5395V3.22188" stroke="#F7FCFF" stroke-width="0.625"/>
<path d="M10.7921 3.255C10.7921 3.28579 10.7921 3.78116 10.7921 3.78116H10.5591" stroke="#F7FCFF" stroke-width="0.625"/>
<path d="M12.5151 3.22933H11.0938" stroke="#F7FCFF" stroke-width="0.625"/>
<path d="M11.0792 3.79205V3.4658H11.5419V3.7811H12.0094V3.46615H11.7668" stroke="#F7FCFF" stroke-width="0.625"/>
<path d="M12.5372 3.77881H12.3016V3.47267H12.7976V3.22188V3.77881H13.0221V3.22188" stroke="#F7FCFF" stroke-width="0.625"/>
<path d="M13.2746 3.255C13.2746 3.28579 13.2746 3.78116 13.2746 3.78116H13.0416" stroke="#F7FCFF" stroke-width="0.625"/>
<path d="M14.9977 3.22933H13.5764" stroke="#F7FCFF" stroke-width="0.625"/>
<path d="M13.5618 3.79205V3.4658H14.0244V3.7811H14.492V3.46615H14.2494" stroke="#F7FCFF" stroke-width="0.625"/>
<path d="M15.0198 3.77881H14.7842V3.47267H15.2802V3.22188V3.77881H15.5047V3.22188" stroke="#F7FCFF" stroke-width="0.625"/>
<path d="M15.7572 3.255C15.7572 3.28579 15.7572 3.78116 15.7572 3.78116H15.5242" stroke="#F7FCFF" stroke-width="0.625"/>
<path d="M17.4803 3.22933H16.059" stroke="#F7FCFF" stroke-width="0.625"/>
<path d="M16.0444 3.79205V3.4658H16.507V3.7811H16.9745V3.46615H16.732" stroke="#F7FCFF" stroke-width="0.625"/>
<path d="M17.4588 3.77881H17.2232V3.47267H17.7192V3.22188V3.77881H17.9437V3.22188" stroke="#F7FCFF" stroke-width="0.625"/>
<path d="M18.1962 3.255C18.1962 3.28579 18.1962 3.78116 18.1962 3.78116H17.9632" stroke="#F7FCFF" stroke-width="0.625"/>
<path d="M19.9193 3.22933H18.498" stroke="#F7FCFF" stroke-width="0.625"/>
<path d="M18.4834 3.79205V3.4658H18.946V3.7811H19.4136V3.46615H19.171" stroke="#F7FCFF" stroke-width="0.625"/>
<path d="M20.0285 3.77881H19.7929V3.47267H20.2889V3.22188V3.77881H20.5134V3.22188" stroke="#F7FCFF" stroke-width="0.625"/>
<path fill-rule="evenodd" clip-rule="evenodd" d="M9.12892 5.15625C9.12892 5.15625 9.396 5.29688 9.66936 5.29688C9.94272 5.29688 10.2178 5.15625 10.2178 5.15625V5.34375C10.2178 5.34375 9.91751 5.48438 9.65157 5.48438C9.38563 5.48438 9.12892 5.34375 9.12892 5.34375V5.15625ZM7.16024 7.36913C7.16024 6.25788 8.68648 5.53125 8.68648 5.53125C8.68648 5.53125 7.80434 6.00388 7.80434 7.32256C7.80434 8.64123 8.26228 9.21229 8.26228 9.21229C8.26228 9.21229 7.16024 8.48038 7.16024 7.36913ZM12.3088 7.3078C12.3088 6.19655 10.784 5.53125 10.784 5.53125C10.784 5.53125 11.6661 6.00388 11.6661 7.32256C11.6661 8.64123 11.2082 9.21229 11.2082 9.21229C11.2082 9.21229 12.3088 8.41905 12.3088 7.3078ZM8.20218 7.61099C8.14402 6.50126 9.06719 5.50658 9.06719 5.50658C9.06719 5.50658 8.73118 5.96365 8.8002 7.28052C8.8239 7.73267 9.00199 8.40538 9.22637 8.80199V5.57812H10.1639V8.82995C10.3886 8.45948 10.5617 7.82785 10.5857 7.36913C10.6547 6.05226 10.3348 5.50658 10.3348 5.50658C10.3348 5.50658 11.258 6.50126 11.1998 7.61099C11.1652 8.27191 10.6566 8.97089 10.251 9.42817C10.4481 9.47212 10.7123 9.52571 11.0755 9.59742C11.0833 9.6376 11.0023 9.63573 10.8415 9.63204C10.664 9.62795 10.389 9.62163 10.0285 9.66718C9.86278 9.83705 9.74742 9.93774 9.74742 9.93774C9.74742 9.93774 9.72918 9.9131 9.70102 9.87902C9.67285 9.9131 9.65461 9.93774 9.65461 9.93774C9.65461 9.93774 9.53925 9.83705 9.37352 9.66719C9.01303 9.62163 8.73808 9.62795 8.56051 9.63204C8.39969 9.63573 8.31876 9.6376 8.32651 9.59742C8.68972 9.52571 8.95394 9.47212 9.15107 9.42817C8.74538 8.97089 8.23682 8.27191 8.20218 7.61099Z" fill="#E31D1C"/>
</g>
</g>
</svg>
