<svg width="20" height="15" viewBox="0 0 20 15" fill="none" xmlns="http://www.w3.org/2000/svg">
<mask id="mask0_964_6878" style="mask-type:alpha" maskUnits="userSpaceOnUse" x="0" y="0" width="20" height="15">
<rect width="20" height="15" fill="white"/>
</mask>
<g mask="url(#mask0_964_6878)">
<path fill-rule="evenodd" clip-rule="evenodd" d="M0 0V15H20V0H0Z" fill="#F7FCFF"/>
<mask id="mask1_964_6878" style="mask-type:alpha" maskUnits="userSpaceOnUse" x="0" y="0" width="20" height="15">
<path fill-rule="evenodd" clip-rule="evenodd" d="M0 0V15H20V0H0Z" fill="white"/>
</mask>
<g mask="url(#mask1_964_6878)">
<path fill-rule="evenodd" clip-rule="evenodd" d="M10 11.3872C12.0017 11.3872 13.6244 9.6639 13.6244 7.53811C13.6244 5.41232 12.0017 3.68903 10 3.68903C7.99831 3.68903 6.37561 5.41232 6.37561 7.53811C6.37561 9.6639 7.99831 11.3872 10 11.3872Z" fill="#3D58DB"/>
<mask id="mask2_964_6878" style="mask-type:alpha" maskUnits="userSpaceOnUse" x="6" y="3" width="8" height="9">
<path fill-rule="evenodd" clip-rule="evenodd" d="M10 11.3872C12.0017 11.3872 13.6244 9.6639 13.6244 7.53811C13.6244 5.41232 12.0017 3.68903 10 3.68903C7.99831 3.68903 6.37561 5.41232 6.37561 7.53811C6.37561 9.6639 7.99831 11.3872 10 11.3872Z" fill="white"/>
</mask>
<g mask="url(#mask2_964_6878)">
<path fill-rule="evenodd" clip-rule="evenodd" d="M13.7512 7.83296C13.7512 7.83296 13.5478 6.01799 12.0411 5.91947C10.5344 5.82094 10.1282 7.25046 10.0412 7.62919C9.95429 8.00792 9.73424 9.01824 8.14789 9.01824C6.56155 9.01824 6.41846 6.44922 6.41846 6.44922V3.41994H13.7512V7.83296Z" fill="#E31D1C"/>
</g>
<path fill-rule="evenodd" clip-rule="evenodd" d="M4.5621 1.28261L5.13395 1.79981L2.48379 4.89475L1.91194 4.37755L4.5621 1.28261ZM5.50522 2.11958L6.07707 2.63679L3.52191 5.68689L2.95006 5.16969L5.50522 2.11958ZM7.01587 3.48407L6.44402 2.96687L3.88176 6.04012L4.45361 6.55732L7.01587 3.48407Z" fill="#272727"/>
<path fill-rule="evenodd" clip-rule="evenodd" d="M15.8523 1.06574L15.2804 1.58101L16.2725 2.74528L16.8445 2.23001L15.8523 1.06574ZM17.6159 3.20739L17.0439 3.72266L18.036 4.88693L18.608 4.37166L17.6159 3.20739ZM13.3925 3.258L13.9645 2.74273L14.9566 3.90701L14.3846 4.42227L13.3925 3.258ZM15.728 4.88438L15.156 5.39965L16.1481 6.56392L16.7201 6.04866L15.728 4.88438ZM14.3722 2.3945L14.9442 1.87923L17.7058 5.24227L17.1339 5.75754L14.3722 2.3945Z" fill="#272727"/>
<path fill-rule="evenodd" clip-rule="evenodd" d="M16.2843 8.90195L15.7075 8.38467L14.7071 9.55348L15.2838 10.0708L16.2843 8.90195ZM14.6023 10.9588L14.0255 10.4416L13.025 11.6104L13.6018 12.1276L14.6023 10.9588ZM17.5291 10.0205L18.1059 10.5378L17.1054 11.7066L16.5286 11.1893L17.5291 10.0205ZM16.506 12.6424L15.9293 12.1251L14.9288 13.2939L15.5056 13.8112L16.506 12.6424ZM14.9791 11.2363L15.5559 11.7536L14.5115 13.0016L13.9348 12.4844L14.9791 11.2363ZM17.2693 9.6739L16.6925 9.15662L15.6481 10.4047L16.2249 10.922L17.2693 9.6739Z" fill="#272727"/>
<path fill-rule="evenodd" clip-rule="evenodd" d="M4.00411 9.30618L4.57611 8.79034L7.12898 11.7156L6.55698 12.2314L4.00411 9.30618ZM4.5996 11.8647L5.17161 11.3489L6.24993 12.5336L5.67792 13.0494L4.5996 11.8647ZM2.6934 10.4317L2.12139 10.9476L4.68752 13.9122L5.25952 13.3964L2.6934 10.4317ZM3.10039 10.0951L3.67239 9.57929L4.60718 10.6755L4.03518 11.1913L3.10039 10.0951Z" fill="#272727"/>
</g>
</g>
</svg>
