<svg width="20" height="15" viewBox="0 0 20 15" fill="none" xmlns="http://www.w3.org/2000/svg">
<mask id="mask0_964_6885" style="mask-type:alpha" maskUnits="userSpaceOnUse" x="0" y="0" width="20" height="15">
<rect width="20" height="15" fill="white"/>
</mask>
<g mask="url(#mask0_964_6885)">
<path fill-rule="evenodd" clip-rule="evenodd" d="M0 0V15H20V0H0Z" fill="#E31D1C"/>
<mask id="mask1_964_6885" style="mask-type:alpha" maskUnits="userSpaceOnUse" x="0" y="0" width="20" height="15">
<path fill-rule="evenodd" clip-rule="evenodd" d="M0 0V15H20V0H0Z" fill="white"/>
</mask>
<g mask="url(#mask1_964_6885)">
<path fill-rule="evenodd" clip-rule="evenodd" d="M0 0V7.5H20V0H0Z" fill="#2E42A5"/>
<path fill-rule="evenodd" clip-rule="evenodd" d="M2.99903 6.90823C2.99903 6.90823 3.7532 7.37767 5.50081 7.37767C7.24841 7.37767 8.17604 6.90823 8.17604 6.90823C8.17604 6.90823 6.80551 6.11153 5.58009 6.11153C4.35466 6.11153 2.99903 6.90823 2.99903 6.90823Z" fill="black"/>
<path d="M3.04415 4.21388L2.82807 4.33961L2.90038 4.46388H3.04415H8.24743H8.43061L8.48581 4.28921L8.24743 4.21388C8.48581 4.28921 8.48583 4.28913 8.48586 4.28905L8.48591 4.28886L8.48606 4.2884L8.48646 4.28712L8.48767 4.28318L8.49164 4.2699C8.49493 4.25872 8.49944 4.24292 8.50481 4.22299C8.51553 4.18318 8.52972 4.12666 8.54437 4.05735C8.57354 3.91939 8.60524 3.72744 8.61408 3.51381C8.63117 3.10074 8.56511 2.53478 8.13858 2.16399C7.70008 1.7828 7.14888 1.84874 6.70657 1.95929C6.55486 1.99721 6.39807 2.04548 6.25426 2.08976C6.18771 2.11025 6.12393 2.12989 6.06474 2.14724C5.86394 2.20611 5.70808 2.2414 5.58817 2.2414C5.4693 2.2414 5.33306 2.20921 5.16094 2.15503C5.11121 2.13937 5.05696 2.12132 4.99976 2.10227C4.87354 2.06026 4.73288 2.01344 4.59437 1.97699C4.16913 1.86507 3.66623 1.8204 3.11051 2.13513C2.8151 2.30243 2.643 2.53807 2.56173 2.79741C2.48279 3.04933 2.49367 3.30922 2.53403 3.53125C2.57465 3.75472 2.64799 3.95546 2.70962 4.09832C2.7407 4.17036 2.76945 4.22919 2.79078 4.27059C2.80145 4.29132 2.81031 4.30778 2.81673 4.31944L2.82445 4.33329L2.8268 4.33742L2.82757 4.33876L2.82786 4.33925L2.82797 4.33944C2.82802 4.33953 2.82807 4.33961 3.04415 4.21388Z" fill="#FFD83D" stroke="black" stroke-width="0.5"/>
<path d="M2.5017 4.45448L2.38515 4.23331L2.19218 4.335L2.26677 4.53997L2.98737 6.5202L3.06788 6.74143L3.29347 6.67436L3.29349 6.67436L3.2935 6.67435L3.29354 6.67434L3.29389 6.67424L3.29595 6.67363L3.3051 6.67098L3.34275 6.66037C3.37616 6.6511 3.42577 6.6377 3.48929 6.62154C3.6164 6.58919 3.79882 6.54588 4.01824 6.50254C4.45867 6.41553 5.04095 6.32984 5.62133 6.32984C6.20148 6.32984 6.77257 6.41547 7.20145 6.5023C7.41516 6.54557 7.59189 6.5888 7.71469 6.62106C7.77606 6.63718 7.82386 6.65053 7.85597 6.65975L7.89208 6.6703L7.9008 6.67292L7.90273 6.6735L7.90301 6.67359L7.90307 6.67361L7.90308 6.67361L7.9031 6.67362L8.1283 6.74311L8.21089 6.52228L8.95145 4.54205L9.02854 4.33591L8.83384 4.23331L8.71729 4.45448C8.83384 4.23331 8.83375 4.23326 8.83365 4.23321L8.83343 4.23309L8.83292 4.23283L8.83163 4.23215L8.82791 4.23024L8.81593 4.22424C8.80593 4.21931 8.7919 4.21256 8.77383 4.20425C8.73768 4.18763 8.68537 4.16479 8.61678 4.13785C8.47961 4.08395 8.27743 4.01367 8.00951 3.94392C7.47347 3.80437 6.67537 3.66724 5.60949 3.66724C4.54362 3.66724 3.74551 3.80437 3.20948 3.94392C2.94156 4.01367 2.73938 4.08395 2.6022 4.13785C2.53362 4.16479 2.4813 4.18763 2.44516 4.20425C2.42708 4.21256 2.41305 4.21931 2.40306 4.22424L2.39108 4.23024L2.38736 4.23215L2.38606 4.23283L2.38556 4.23309L2.38534 4.23321C2.38524 4.23326 2.38515 4.23331 2.5017 4.45448Z" fill="#FFD83D" stroke="black" stroke-width="0.5"/>
<path d="M5.54622 2.75943C5.96671 2.75943 6.21639 2.35454 6.21639 1.98113C6.21639 1.60772 5.96671 1.20283 5.54622 1.20283C5.12573 1.20283 4.87605 1.60772 4.87605 1.98113C4.87605 2.35454 5.12573 2.75943 5.54622 2.75943Z" fill="#FFD83D" stroke="black" stroke-width="0.5"/>
<mask id="path-9-outside-1_964_6885" maskUnits="userSpaceOnUse" x="4.07353" y="-1" width="3" height="4" fill="black">
<rect fill="white" x="4.07353" y="-1" width="3" height="4"/>
<path fill-rule="evenodd" clip-rule="evenodd" d="M5.70378 0H5.38866L5.42922 0.576701L5.07353 0.528302V0.924528L5.43468 0.874782L5.38866 1.78302H5.70378L5.65713 0.873254L6.01891 0.924528V0.528302L5.66369 0.579291L5.70378 0Z"/>
</mask>
<path fill-rule="evenodd" clip-rule="evenodd" d="M5.70378 0H5.38866L5.42922 0.576701L5.07353 0.528302V0.924528L5.43468 0.874782L5.38866 1.78302H5.70378L5.65713 0.873254L6.01891 0.924528V0.528302L5.66369 0.579291L5.70378 0Z" fill="#FFD83D"/>
<path d="M5.38866 0V-0.5H4.85225L4.88989 0.0350833L5.38866 0ZM5.70378 0L6.20259 0.0345249L6.23959 -0.5H5.70378V0ZM5.42922 0.576701L5.36181 1.07214L5.97114 1.15505L5.92799 0.541618L5.42922 0.576701ZM5.07353 0.528302L5.14094 0.0328674L4.57353 -0.0443408V0.528302H5.07353ZM5.07353 0.924528H4.57353V1.49812L5.14176 1.41985L5.07353 0.924528ZM5.43468 0.874782L5.93404 0.900089L5.9646 0.297069L5.36646 0.379459L5.43468 0.874782ZM5.38866 1.78302L4.8893 1.75771L4.86268 2.28302H5.38866V1.78302ZM5.70378 1.78302V2.28302H6.23008L6.20313 1.75741L5.70378 1.78302ZM5.65713 0.873254L5.72729 0.378201L5.12672 0.293084L5.15779 0.89886L5.65713 0.873254ZM6.01891 0.924528L5.94875 1.41958L6.51891 1.50039V0.924528H6.01891ZM6.01891 0.528302H6.51891V-0.048594L5.94787 0.0333747L6.01891 0.528302ZM5.66369 0.579291L5.16488 0.544766L5.12215 1.16215L5.73473 1.07422L5.66369 0.579291ZM5.38866 0.5H5.70378V-0.5H5.38866V0.5ZM5.92799 0.541618L5.88742 -0.0350833L4.88989 0.0350833L4.93045 0.611784L5.92799 0.541618ZM5.00612 1.02374L5.36181 1.07214L5.49664 0.0812664L5.14094 0.0328674L5.00612 1.02374ZM5.57353 0.924528V0.528302H4.57353V0.924528H5.57353ZM5.36646 0.379459L5.0053 0.429205L5.14176 1.41985L5.50291 1.37011L5.36646 0.379459ZM5.88802 1.80833L5.93404 0.900089L4.93533 0.849475L4.8893 1.75771L5.88802 1.80833ZM5.70378 1.28302H5.38866V2.28302H5.70378V1.28302ZM5.15779 0.89886L5.20444 1.80862L6.20313 1.75741L6.15647 0.847648L5.15779 0.89886ZM6.08907 0.429476L5.72729 0.378201L5.58697 1.36831L5.94875 1.41958L6.08907 0.429476ZM5.51891 0.528302V0.924528H6.51891V0.528302H5.51891ZM5.73473 1.07422L6.08995 1.02323L5.94787 0.0333747L5.59264 0.084364L5.73473 1.07422ZM5.20498 -0.0345249L5.16488 0.544766L6.16249 0.613816L6.20259 0.0345249L5.20498 -0.0345249Z" fill="black" mask="url(#path-9-outside-1_964_6885)"/>
</g>
</g>
</svg>
