<svg width="20" height="15" viewBox="0 0 20 15" fill="none" xmlns="http://www.w3.org/2000/svg">
<mask id="mask0_964_6917" style="mask-type:alpha" maskUnits="userSpaceOnUse" x="0" y="0" width="20" height="15">
<rect width="20" height="15" fill="white"/>
</mask>
<g mask="url(#mask0_964_6917)">
<path fill-rule="evenodd" clip-rule="evenodd" d="M0 0V15H20V0H0Z" fill="#009933"/>
<mask id="mask1_964_6917" style="mask-type:alpha" maskUnits="userSpaceOnUse" x="0" y="0" width="20" height="15">
<path fill-rule="evenodd" clip-rule="evenodd" d="M0 0V15H20V0H0Z" fill="white"/>
</mask>
<g mask="url(#mask1_964_6917)">
<path fill-rule="evenodd" clip-rule="evenodd" d="M0 0V15L20 0H0Z" fill="#3195F9"/>
<path d="M-0.632779 16.9335L-0.301182 17.5343L0.26609 17.1481L22.036 2.32979L22.4748 2.0311L22.2511 1.54972L20.7874 -1.59977L20.4804 -2.26045L19.8741 -1.85649L-2.22321 12.8663L-2.70167 13.1851L-2.42385 13.6885L-0.632779 16.9335Z" fill="#E31D1C" stroke="#F7FCFF" stroke-width="1.25"/>
<path fill-rule="evenodd" clip-rule="evenodd" d="M3.89353 5.77797L3.08472 6.78704L2.88881 5.50875L1.68382 5.97823L2.1533 4.77324L0.875015 4.57733L1.88408 3.76852L0.875015 2.95971L2.1533 2.76379L1.68382 1.55881L2.88881 2.02828L3.08472 0.75L3.89353 1.75907L4.70234 0.75L4.89826 2.02828L6.10324 1.55881L5.63377 2.76379L6.91205 2.95971L5.90299 3.76852L6.91205 4.57733L5.63377 4.77324L6.10324 5.97823L4.89826 5.50875L4.70234 6.78704L3.89353 5.77797ZM3.89353 5.33102C4.75648 5.33102 5.45603 4.63146 5.45603 3.76852C5.45603 2.90557 4.75648 2.20602 3.89353 2.20602C3.03059 2.20602 2.33103 2.90557 2.33103 3.76852C2.33103 4.63146 3.03059 5.33102 3.89353 5.33102ZM5.14353 3.76852C5.14353 4.45887 4.58389 5.01852 3.89353 5.01852C3.20318 5.01852 2.64353 4.45887 2.64353 3.76852C2.64353 3.07816 3.20318 2.51852 3.89353 2.51852C4.58389 2.51852 5.14353 3.07816 5.14353 3.76852Z" fill="#FECA00"/>
</g>
</g>
</svg>
