<svg width="20" height="15" viewBox="0 0 20 15" fill="none" xmlns="http://www.w3.org/2000/svg">
<g clip-path="url(#clip0_964_6925)">
<rect width="20" height="15" fill="white"/>
<path d="M7.11834 7.93841L12.6718 14.5H0.5V0.97794L12.001 7.11539H7.5H6.42178L7.11834 7.93841Z" fill="#C51918" stroke="#4857A1"/>
<mask id="mask0_964_6925" style="mask-type:alpha" maskUnits="userSpaceOnUse" x="0" y="0" width="14" height="15">
<path d="M7.11834 7.93841L12.6718 14.5H0.5V0.97794L12.001 7.11539H7.5H6.42178L7.11834 7.93841Z" fill="white" stroke="white"/>
</mask>
<g mask="url(#mask0_964_6925)">
<path fill-rule="evenodd" clip-rule="evenodd" d="M3.64352 12.5448L2.87779 13.5233L2.84244 12.2885L1.63881 12.637L2.34735 11.6175L1.16557 11.2029L2.34735 10.7882L1.63881 9.76876L2.84244 10.1172L2.87779 8.88244L3.64352 9.86095L4.40925 8.88244L4.4446 10.1172L5.64822 9.76876L4.93969 10.7882L6.12147 11.2029L4.93969 11.6175L5.64822 12.637L4.4446 12.2885L4.40925 13.5233L3.64352 12.5448Z" fill="#F7FCFF"/>
<path fill-rule="evenodd" clip-rule="evenodd" d="M3.62503 5.23928L3.22513 5.7503L3.20667 5.10544L2.57809 5.28743L2.94811 4.75504L2.33094 4.53848L2.94811 4.32192L2.57809 3.78953L3.20667 3.97152L3.22513 3.32666L3.62503 3.83768L4.02493 3.32666L4.04339 3.97152L4.67198 3.78953L4.30195 4.32192L4.91913 4.53848L4.30195 4.75504L4.67198 5.28743L4.04339 5.10544L4.02493 5.7503L3.62503 5.23928Z" fill="#F7FCFF"/>
<path fill-rule="evenodd" clip-rule="evenodd" d="M3.54065 5.0892C4.91069 5.09476 5.64115 4.30539 5.64115 4.30539C5.78566 5.20611 4.66996 5.80539 3.554 5.80539C2.43805 5.80539 1.7624 4.9885 1.34614 4.30539C1.34614 4.30539 2.17061 5.08364 3.54065 5.0892Z" fill="#F9FAFA"/>
</g>
</g>
<defs>
<clipPath id="clip0_964_6925">
<rect width="20" height="15" fill="white"/>
</clipPath>
</defs>
</svg>
