<svg width="20" height="15" viewBox="0 0 20 15" fill="none" xmlns="http://www.w3.org/2000/svg">
<mask id="mask0_964_6931" style="mask-type:alpha" maskUnits="userSpaceOnUse" x="0" y="0" width="20" height="15">
<rect width="20" height="15" fill="white"/>
</mask>
<g mask="url(#mask0_964_6931)">
<path fill-rule="evenodd" clip-rule="evenodd" d="M5 0H15.625V15H5V0Z" fill="#F7FCFF"/>
<path fill-rule="evenodd" clip-rule="evenodd" d="M15 0H20V15H15V0Z" fill="#F50101"/>
<path fill-rule="evenodd" clip-rule="evenodd" d="M0 0H5V15H0V0Z" fill="#F50101"/>
<path d="M9.83834 5.46572L9.85928 5.69193C9.23525 5.75505 8.89812 5.45013 8.89812 4.8173C8.89812 4.18935 9.22796 3.85557 9.84815 3.85162L9.84947 4.07889C9.34699 4.08209 9.11551 4.31634 9.11551 4.8173C9.11551 5.31338 9.33971 5.51615 9.83834 5.46572Z" fill="#A2BB6A"/>
<path d="M10.1147 5.46572L10.0938 5.69193C10.7178 5.75505 11.0549 5.45013 11.0549 4.8173C11.0549 4.18935 10.7251 3.85557 10.1049 3.85162L10.1036 4.07889C10.6061 4.08209 10.8375 4.31634 10.8375 4.8173C10.8375 5.31338 10.6133 5.51615 10.1147 5.46572Z" fill="#A2BB6A"/>
<path fill-rule="evenodd" clip-rule="evenodd" d="M9.46229 10.7018C9.28286 10.7661 8.06631 10.7018 8.06631 10.7018V11.0406H8.87286C9.14197 11.0406 9.24371 11.0888 9.33704 11.133C9.41613 11.1704 9.48918 11.205 9.65293 11.205C9.97188 11.205 9.96604 10.9677 9.96117 10.7703C9.96059 10.7467 9.96002 10.7237 9.96002 10.7018C9.96002 10.6179 9.97313 10.571 9.98333 10.5346C9.99817 10.4816 10.0069 10.4506 9.96002 10.3594C9.88101 10.2055 9.12968 10.226 9.12968 10.3594C9.12968 10.4223 9.24359 10.4877 9.34513 10.5461C9.45887 10.6114 9.55709 10.6678 9.46229 10.7018ZM10.5557 10.7018C10.7351 10.7661 11.9517 10.7018 11.9517 10.7018V11.0406H11.1451C10.876 11.0406 10.7743 11.0888 10.6809 11.133C10.6019 11.1704 10.5288 11.205 10.365 11.205C10.0461 11.205 10.0519 10.9677 10.0568 10.7703C10.0574 10.7467 10.058 10.7237 10.058 10.7018C10.058 10.6179 10.0448 10.571 10.0346 10.5346C10.0198 10.4816 10.0111 10.4506 10.058 10.3594C10.137 10.2055 10.8883 10.226 10.8883 10.3594C10.8883 10.4223 10.7744 10.4877 10.6728 10.5461C10.5591 10.6114 10.4609 10.6678 10.5557 10.7018Z" fill="#E31D1C"/>
<path fill-rule="evenodd" clip-rule="evenodd" d="M10.2544 10.7342C10.2544 10.7342 11.2038 10.6399 11.4185 10.2975C11.6332 9.95517 11.9908 9.37068 12.1166 9.22918C12.2423 9.08767 12.2505 9.43129 12.2505 9.43129C12.2505 9.43129 12.4579 9.72556 12.4579 9.34929C12.4579 8.97302 12.3103 9.2359 12.1166 8.66977C11.9228 8.10363 11.8138 7.54832 11.8683 7.46427C11.9228 7.38022 12.0519 7.54832 12.0519 7.46427C12.0519 7.38022 12.0519 7.21569 12.0519 7.21569L12.2505 7.46427L12.4579 7.38553C12.4579 7.38553 12.6287 7.75128 12.7339 7.86451C12.8391 7.97774 12.9006 7.71286 12.8699 7.46427C12.8391 7.21569 12.4579 7.21569 12.4579 7.21569C12.4579 7.21569 11.9704 6.95291 11.9704 6.84278C11.9704 6.73266 12.1812 6.76546 12.1812 6.76546L12.1166 6.42446C12.1166 6.42446 12.2908 6.63157 12.3744 6.52802C12.4579 6.42446 12.2505 6.24274 12.2505 6.24274H12.5812V6.08305L12.7339 6.16852L12.5812 5.8198C12.5812 5.8198 12.1333 5.88724 12.0519 5.8198C11.9704 5.75235 11.7139 5.48947 11.7139 5.48947V5.36468H11.5661L11.7139 5.11436V4.71575L12.2505 4.82272V4.52798C12.2505 4.52798 13.0058 4.89621 12.8699 5.19284C12.7339 5.48947 12.7339 5.8198 12.7339 5.8198V6.08305C12.7339 6.08305 12.7565 6.00246 12.8699 6.00246C12.9832 6.00246 13.1122 6.06102 13.1122 6.24274C13.1122 6.42446 13.343 6.16852 13.343 6.16852V6.92452C13.343 6.92452 13.3972 7.00626 13.5158 6.92452C13.6344 6.84278 13.5824 6.90655 13.2262 7.38553C12.8699 7.86451 12.9982 7.8658 13.1122 7.74844C13.2262 7.63109 13.6887 7.29745 13.5158 7.46427C13.343 7.63109 13.3315 7.98057 13.5158 7.86451C13.7002 7.74844 13.6646 7.66586 13.6646 7.86451C13.6646 8.06316 13.3401 8.73931 13.2262 8.84523C13.1122 8.95115 13.0058 9.01628 12.8699 9.12273C12.7339 9.22918 12.5812 9.35497 12.5812 9.43129C12.5812 9.50762 12.8699 9.34929 12.8699 9.34929L12.7339 9.83463H12.9981C12.9981 9.83463 12.7878 10.4791 12.3744 10.4791C11.9609 10.4791 11.6492 10.4791 11.5661 10.4791C11.483 10.4791 11.1076 10.6562 11.1076 10.6562L10.833 10.7342C10.833 10.7342 11.2708 10.776 11.4185 10.9075C11.5661 11.039 11.4185 11.1306 11.4185 11.1306C11.4185 11.1306 11.0133 11.0904 10.7108 10.999C10.4083 10.9075 10.2544 11.0808 10.2544 10.9075C10.2544 10.7342 10.2544 10.7342 10.2544 10.7342Z" fill="#00A854"/>
<path fill-rule="evenodd" clip-rule="evenodd" d="M12.9891 5.5682C12.9891 5.63096 12.9405 5.68183 12.8804 5.68183C12.8204 5.68183 12.7717 5.63096 12.7717 5.5682C12.7717 5.50544 12.8204 5.45456 12.8804 5.45456C12.9405 5.45456 12.9891 5.50544 12.9891 5.5682ZM12.4457 6.02274C12.4457 6.0855 12.397 6.13638 12.337 6.13638C12.2769 6.13638 12.2283 6.0855 12.2283 6.02274C12.2283 5.95998 12.2769 5.9091 12.337 5.9091C12.397 5.9091 12.4457 5.95998 12.4457 6.02274ZM12.9891 5.9091C13.0492 5.9091 13.0978 5.85823 13.0978 5.79547C13.0978 5.73271 13.0492 5.68183 12.9891 5.68183C12.9291 5.68183 12.8804 5.73271 12.8804 5.79547C12.8804 5.85823 12.9291 5.9091 12.9891 5.9091ZM12.7717 7.61365C12.7717 7.67641 12.7231 7.72729 12.663 7.72729C12.603 7.72729 12.5544 7.67641 12.5544 7.61365C12.5544 7.55089 12.603 7.50001 12.663 7.50001C12.7231 7.50001 12.7717 7.55089 12.7717 7.61365ZM12.2283 9.09092C12.2883 9.09092 12.337 9.04005 12.337 8.97729C12.337 8.91453 12.2883 8.86365 12.2283 8.86365C12.1682 8.86365 12.1196 8.91453 12.1196 8.97729C12.1196 9.04005 12.1682 9.09092 12.2283 9.09092ZM13.0978 9.3182C13.0978 9.38096 13.0492 9.43183 12.9891 9.43183C12.9291 9.43183 12.8804 9.38096 12.8804 9.3182C12.8804 9.25544 12.9291 9.20456 12.9891 9.20456C13.0492 9.20456 13.0978 9.25544 13.0978 9.3182ZM13.2065 9.20456C13.2666 9.20456 13.3152 9.15368 13.3152 9.09092C13.3152 9.02816 13.2666 8.97729 13.2065 8.97729C13.1465 8.97729 13.0978 9.02816 13.0978 9.09092C13.0978 9.15368 13.1465 9.20456 13.2065 9.20456ZM13.2065 7.50001C13.2065 7.56277 13.1579 7.61365 13.0978 7.61365C13.0378 7.61365 12.9891 7.56277 12.9891 7.50001C12.9891 7.43725 13.0378 7.38638 13.0978 7.38638C13.1579 7.38638 13.2065 7.43725 13.2065 7.50001Z" fill="#C51918"/>
<path fill-rule="evenodd" clip-rule="evenodd" d="M9.80347 10.5341C9.80347 10.5341 8.0762 10.1928 7.98173 9.532C7.88726 8.87123 7.88858 8.16778 7.88858 8.16778L7.72842 8.59767C7.72842 8.59767 7.72033 8.01244 8.04885 7.59499C8.37738 7.17754 7.63818 7.8716 7.63818 7.8716C7.63818 7.8716 8.01246 7.28145 8.16829 7.22527C8.32412 7.16908 7.54218 7.59499 7.54218 7.59499C7.54218 7.59499 7.76619 7.09979 7.94031 6.95972C8.11444 6.81965 7.54218 7.22527 7.54218 7.22527C7.54218 7.22527 7.67166 6.7341 7.82654 6.61692C7.98141 6.49975 7.32044 7.22527 7.32044 7.22527C7.32044 7.22527 7.66912 6.10298 7.86557 5.99824C8.06202 5.89351 7.54218 6.20401 7.54218 6.20401C7.54218 6.20401 7.8606 5.72401 8.14581 5.4854C8.43102 5.24679 7.6303 5.58715 7.72842 5.58715C7.72842 5.58715 8.01796 5.26017 8.18432 5.16788C8.35067 5.07558 7.54218 5.4854 7.54218 5.4854C7.54218 5.4854 8.12254 4.84499 8.29651 4.7507C8.47048 4.65642 7.44247 5.25928 7.44247 5.25928C7.44247 5.25928 7.50251 4.98003 7.52843 4.78045C7.55434 4.58088 7.05216 5.32741 7.12034 5.99824C7.18853 6.66907 6.84714 5.4854 6.84714 5.4854C6.84714 5.4854 6.70978 5.74237 7.04349 6.41547L6.6818 5.90855C6.6818 5.90855 6.73125 6.36858 6.84714 6.61692C6.96304 6.86527 6.51819 6.20401 6.51819 6.20401C6.51819 6.20401 6.43309 6.61692 6.51819 6.61692C6.51819 6.61692 7.02614 7.29555 7.04497 7.49341C7.0638 7.69127 6.4745 6.78697 6.39564 6.78697C6.31677 6.78697 6.27308 7.0774 6.39564 7.0774C6.51819 7.0774 6.75035 7.49341 6.75035 7.49341C6.75035 7.49341 6.44864 7.27537 6.38395 7.26248C6.31926 7.2496 6.43473 7.39183 6.51819 7.49341C6.51819 7.49341 6.28218 7.68585 6.30011 7.83162C6.31804 7.97738 6.94336 8.00824 7.21587 8.70025C7.21587 8.70025 6.65244 8.4023 6.51819 8.4023C6.38395 8.4023 6.73437 8.71341 6.84714 8.8161C6.95992 8.91879 6.67339 8.71341 6.59579 8.8161C6.51819 8.91879 7.02482 9.35737 7.12034 9.35737C7.21587 9.35737 6.75035 9.35737 6.75035 9.35737C6.75035 9.35737 6.87407 9.532 7.04497 9.532C7.21587 9.532 7.82654 9.80645 7.82654 9.89537C7.82654 9.98429 7.3114 9.78156 7.21587 9.78156C7.12034 9.78156 7.88842 10.5065 8.29651 10.5341C8.70459 10.5618 8.96245 10.6713 9.13837 10.6713C9.3143 10.6713 9.43797 10.6713 9.43797 10.6713L8.60684 11.0948C8.60684 11.0948 8.52289 11.0948 8.88348 11.0948C9.24406 11.0948 9.51985 11.195 9.66166 10.9878C9.80347 10.7807 9.80347 10.5341 9.80347 10.5341Z" fill="#00A854"/>
<mask id="path-11-outside-1_964_6931" maskUnits="userSpaceOnUse" x="7.23563" y="3.55093" width="6" height="8" fill="black">
<rect fill="white" x="7.23563" y="3.55093" width="6" height="8"/>
<path fill-rule="evenodd" clip-rule="evenodd" d="M10.0543 5.5659C10.0709 5.55647 10.0802 5.55093 10.0802 5.55093V5.58039C10.2005 5.64677 10.5035 5.80232 10.7004 5.80232C10.9509 5.80232 11.2913 5.55093 11.2913 5.55093L11.8608 6.35514C11.8608 6.35514 11.4772 7.15908 11.7707 8.14146C12.0643 9.12384 11.7552 9.88133 10.45 9.96544C10.45 9.96544 10.1928 10.0143 10.0802 10.0922V10.1641C10.0802 10.1462 10.0706 10.1292 10.0543 10.1132C10.0379 10.1292 10.0283 10.1462 10.0283 10.1641V10.0922C9.91566 10.0143 9.65848 9.96544 9.65848 9.96544C8.35329 9.88133 8.04425 9.12384 8.33775 8.14146C8.63125 7.15908 8.24768 6.35514 8.24768 6.35514L8.81723 5.55093C8.81723 5.55093 9.15763 5.80232 9.40806 5.80232C9.60505 5.80232 9.90801 5.64677 10.0283 5.58039V5.55093C10.0283 5.55093 10.0376 5.55647 10.0543 5.5659Z"/>
</mask>
<path fill-rule="evenodd" clip-rule="evenodd" d="M10.0543 5.5659C10.0709 5.55647 10.0802 5.55093 10.0802 5.55093V5.58039C10.2005 5.64677 10.5035 5.80232 10.7004 5.80232C10.9509 5.80232 11.2913 5.55093 11.2913 5.55093L11.8608 6.35514C11.8608 6.35514 11.4772 7.15908 11.7707 8.14146C12.0643 9.12384 11.7552 9.88133 10.45 9.96544C10.45 9.96544 10.1928 10.0143 10.0802 10.0922V10.1641C10.0802 10.1462 10.0706 10.1292 10.0543 10.1132C10.0379 10.1292 10.0283 10.1462 10.0283 10.1641V10.0922C9.91566 10.0143 9.65848 9.96544 9.65848 9.96544C8.35329 9.88133 8.04425 9.12384 8.33775 8.14146C8.63125 7.15908 8.24768 6.35514 8.24768 6.35514L8.81723 5.55093C8.81723 5.55093 9.15763 5.80232 9.40806 5.80232C9.60505 5.80232 9.90801 5.64677 10.0283 5.58039V5.55093C10.0283 5.55093 10.0376 5.55647 10.0543 5.5659Z" fill="#E8AA00"/>
<path d="M10.0802 5.55093H10.7052V4.4507L9.76013 5.01409L10.0802 5.55093ZM10.0543 5.5659L9.74606 6.10963L10.0543 6.28432L10.3624 6.10963L10.0543 5.5659ZM10.0802 5.58039H9.45517V5.94938L9.77825 6.12763L10.0802 5.58039ZM11.2913 5.55093L11.8013 5.18971L11.4328 4.66942L10.92 5.04818L11.2913 5.55093ZM11.8608 6.35514L12.4249 6.62428L12.5829 6.29324L12.3709 5.99392L11.8608 6.35514ZM11.7707 8.14146L11.1719 8.32037L11.1719 8.32037L11.7707 8.14146ZM10.45 9.96544L10.4098 9.34173L10.3713 9.34421L10.3333 9.35142L10.45 9.96544ZM10.0802 10.0922L9.72481 9.57804L9.45517 9.7644V10.0922H10.0802ZM10.0543 10.1132L10.4919 9.66701L10.0543 9.23776L9.61661 9.66701L10.0543 10.1132ZM10.0283 10.0922H10.6533V9.7644L10.3837 9.57804L10.0283 10.0922ZM9.65848 9.96544L9.77516 9.35142L9.73722 9.34421L9.69868 9.34173L9.65848 9.96544ZM8.24768 6.35514L7.73764 5.99392L7.52565 6.29324L7.68359 6.62428L8.24768 6.35514ZM8.81723 5.55093L9.18853 5.04818L8.67567 4.66942L8.30719 5.18971L8.81723 5.55093ZM10.0283 5.58039L10.3302 6.12763L10.6533 5.94938V5.58039H10.0283ZM10.0283 5.55093L10.3484 5.01409L9.40333 4.4507V5.55093H10.0283ZM10.0802 5.55093C9.76013 5.01409 9.76014 5.01409 9.76015 5.01408C9.76016 5.01408 9.76017 5.01407 9.76017 5.01407C9.76019 5.01406 9.7602 5.01405 9.76021 5.01404C9.76024 5.01403 9.76026 5.01401 9.76029 5.014C9.76034 5.01397 9.76039 5.01394 9.76043 5.01391C9.76052 5.01386 9.7606 5.01381 9.76068 5.01377C9.76083 5.01368 9.76094 5.01361 9.76102 5.01356C9.76118 5.01347 9.76121 5.01345 9.7611 5.01351C9.7609 5.01364 9.76017 5.01406 9.75895 5.01477C9.75651 5.0162 9.75213 5.01873 9.74606 5.02217L10.3624 6.10963C10.373 6.10364 10.3816 6.09869 10.3879 6.09499C10.3911 6.09313 10.3938 6.09159 10.3958 6.09038C10.3968 6.08977 10.3977 6.08925 10.3985 6.08882C10.3988 6.0886 10.3992 6.0884 10.3994 6.08823C10.3996 6.08814 10.3997 6.08806 10.3999 6.08799C10.3999 6.08795 10.4 6.08791 10.4 6.08788C10.4001 6.08786 10.4001 6.08784 10.4001 6.08783C10.4001 6.08782 10.4002 6.08781 10.4002 6.0878C10.4002 6.0878 10.4002 6.08779 10.4002 6.08779C10.4002 6.08778 10.4002 6.08778 10.0802 5.55093ZM10.7052 5.58039V5.55093H9.45517V5.58039H10.7052ZM9.77825 6.12763C9.84918 6.16676 9.97842 6.23482 10.125 6.29476C10.2517 6.34656 10.4725 6.42732 10.7004 6.42732V5.17732C10.7266 5.17732 10.7292 5.18139 10.6999 5.17349C10.6744 5.16662 10.6399 5.15484 10.5981 5.13774C10.5139 5.10331 10.4315 5.0604 10.3821 5.03315L9.77825 6.12763ZM10.7004 6.42732C10.9929 6.42732 11.2593 6.29539 11.3867 6.22659C11.4647 6.18449 11.5309 6.14313 11.5777 6.11236C11.6013 6.09678 11.6208 6.08341 11.6351 6.07336C11.6423 6.06832 11.6483 6.06408 11.6529 6.06076C11.6552 6.0591 11.6571 6.05768 11.6587 6.05649C11.6596 6.0559 11.6603 6.05537 11.6609 6.0549C11.6612 6.05467 11.6615 6.05445 11.6618 6.05425C11.6619 6.05415 11.6621 6.05405 11.6622 6.05396C11.6623 6.05391 11.6624 6.05384 11.6624 6.05382C11.6625 6.05375 11.6626 6.05369 11.2913 5.55093C10.92 5.04818 10.9201 5.04812 10.9201 5.04805C10.9202 5.04803 10.9202 5.04797 10.9203 5.04793C10.9204 5.04786 10.9205 5.04778 10.9206 5.04771C10.9208 5.04757 10.921 5.04744 10.9211 5.04733C10.9214 5.0471 10.9217 5.04693 10.9218 5.04682C10.9221 5.04659 10.9222 5.04657 10.9219 5.04675C10.9214 5.04712 10.9198 5.04828 10.9172 5.05011C10.9119 5.05381 10.9028 5.06008 10.8907 5.06807C10.8658 5.08443 10.8313 5.10592 10.7928 5.12667C10.7532 5.14809 10.7181 5.16394 10.6914 5.17333C10.6601 5.18431 10.6661 5.17732 10.7004 5.17732V6.42732ZM10.7812 5.91216L11.3508 6.71637L12.3709 5.99392L11.8013 5.18971L10.7812 5.91216ZM11.8608 6.35514C11.2967 6.08601 11.2966 6.08622 11.2965 6.08644C11.2965 6.08652 11.2964 6.08674 11.2963 6.0869C11.2962 6.08721 11.296 6.08753 11.2959 6.08786C11.2955 6.08854 11.2952 6.08926 11.2948 6.09003C11.2941 6.09158 11.2933 6.09334 11.2924 6.09529C11.2906 6.09921 11.2884 6.10394 11.2859 6.10947C11.281 6.12053 11.2748 6.1348 11.2676 6.15212C11.2533 6.18673 11.2349 6.23373 11.2148 6.29183C11.1747 6.40771 11.1271 6.56978 11.0909 6.76749C11.0189 7.16155 10.9901 7.71171 11.1719 8.32037L12.3696 7.96255C12.2579 7.58883 12.2742 7.24583 12.3205 6.99233C12.3436 6.86626 12.3735 6.76595 12.3961 6.70039C12.4074 6.66777 12.4167 6.64429 12.4222 6.63109C12.4249 6.62451 12.4267 6.62055 12.4272 6.61935C12.4275 6.61875 12.4275 6.61885 12.4271 6.61967C12.4269 6.62007 12.4266 6.62066 12.4263 6.62143C12.4261 6.62181 12.4259 6.62224 12.4256 6.62272C12.4255 6.62296 12.4254 6.6232 12.4253 6.62346C12.4252 6.6236 12.4251 6.6238 12.4251 6.62386C12.425 6.62407 12.4249 6.62428 11.8608 6.35514ZM11.1719 8.32037C11.2954 8.73362 11.2461 8.95419 11.1814 9.05665C11.1275 9.14208 10.9592 9.30633 10.4098 9.34173L10.4902 10.5891C11.246 10.5404 11.8849 10.2839 12.2384 9.72395C12.5811 9.18104 12.5396 8.53168 12.3696 7.96255L11.1719 8.32037ZM10.45 9.96544C10.3333 9.35142 10.3333 9.35143 10.3332 9.35145C10.3332 9.35145 10.3331 9.35146 10.3331 9.35147C10.333 9.35149 10.3329 9.35151 10.3328 9.35153C10.3326 9.35157 10.3324 9.35161 10.3321 9.35165C10.3317 9.35174 10.3311 9.35185 10.3305 9.35196C10.3293 9.3522 10.3279 9.35248 10.3262 9.35282C10.3228 9.35349 10.3184 9.35436 10.3131 9.35545C10.3026 9.35761 10.2884 9.36061 10.2714 9.36442C10.2378 9.37194 10.1911 9.3831 10.1388 9.39776C10.0604 9.41972 9.87582 9.47366 9.72481 9.57804L10.4355 10.6063C10.4058 10.6269 10.3916 10.63 10.412 10.622C10.4269 10.6163 10.4488 10.609 10.4759 10.6014C10.5019 10.5942 10.5266 10.5882 10.5448 10.5842C10.5536 10.5822 10.5604 10.5807 10.5644 10.5799C10.5664 10.5795 10.5676 10.5793 10.568 10.5792C10.5683 10.5791 10.5683 10.5791 10.568 10.5792C10.5679 10.5792 10.5678 10.5792 10.5675 10.5793C10.5674 10.5793 10.5673 10.5793 10.5672 10.5794C10.5671 10.5794 10.567 10.5794 10.5669 10.5794C10.5669 10.5794 10.5668 10.5794 10.5668 10.5794C10.5668 10.5794 10.5667 10.5794 10.45 9.96544ZM10.7052 10.1641V10.0922H9.45517V10.1641H10.7052ZM9.61661 10.5594C9.57288 10.5165 9.45517 10.3825 9.45517 10.1641H10.7052C10.7052 9.90991 10.5683 9.7419 10.4919 9.66701L9.61661 10.5594ZM9.61661 9.66701C9.54025 9.7419 9.40333 9.90991 9.40333 10.1641H10.6533C10.6533 10.3825 10.5356 10.5165 10.4919 10.5594L9.61661 9.66701ZM10.6533 10.1641V10.0922H9.40333V10.1641H10.6533ZM9.65848 9.96544C9.54181 10.5794 9.54175 10.5794 9.54169 10.5794C9.54167 10.5794 9.54161 10.5794 9.54157 10.5794C9.54149 10.5794 9.54142 10.5794 9.54135 10.5794C9.54121 10.5793 9.54108 10.5793 9.54097 10.5793C9.54075 10.5792 9.54058 10.5792 9.54047 10.5792C9.54025 10.5791 9.54025 10.5791 9.54046 10.5792C9.54088 10.5793 9.54213 10.5795 9.54411 10.5799C9.54809 10.5807 9.55487 10.5822 9.56374 10.5842C9.58192 10.5882 9.60655 10.5942 9.6326 10.6014C9.65965 10.609 9.68163 10.6163 9.69654 10.622C9.71693 10.63 9.70273 10.6269 9.67297 10.6063L10.3837 9.57804C10.2327 9.47366 10.0481 9.41972 9.96971 9.39776C9.91738 9.3831 9.87068 9.37194 9.83711 9.36442C9.82011 9.36061 9.80592 9.35761 9.7954 9.35545C9.79013 9.35436 9.78574 9.35349 9.78234 9.35282C9.78064 9.35248 9.77918 9.3522 9.77798 9.35196C9.77738 9.35185 9.77684 9.35174 9.77637 9.35165C9.77614 9.35161 9.77592 9.35157 9.77571 9.35153C9.77561 9.35151 9.77552 9.35149 9.77542 9.35147C9.77538 9.35146 9.77531 9.35145 9.77529 9.35145C9.77522 9.35143 9.77516 9.35142 9.65848 9.96544ZM7.73891 7.96255C7.56887 8.53168 7.52736 9.18104 7.87012 9.72395C8.22362 10.2839 8.86246 10.5404 9.61829 10.5891L9.69868 9.34173C9.14931 9.30633 8.98104 9.14208 8.9271 9.05665C8.86241 8.95419 8.81313 8.73362 8.9366 8.32037L7.73891 7.96255ZM8.24768 6.35514C7.68359 6.62428 7.68349 6.62407 7.6834 6.62386C7.68337 6.6238 7.68327 6.6236 7.68321 6.62346C7.68308 6.6232 7.68296 6.62296 7.68285 6.62272C7.68263 6.62224 7.68242 6.62181 7.68224 6.62143C7.68188 6.62066 7.68161 6.62007 7.68142 6.61967C7.68105 6.61885 7.68101 6.61875 7.68127 6.61935C7.68181 6.62055 7.68356 6.62451 7.68629 6.63109C7.69176 6.64429 7.70107 6.66777 7.71235 6.70039C7.73503 6.76595 7.76492 6.86626 7.78797 6.99233C7.83433 7.24583 7.85056 7.58883 7.73891 7.96255L8.9366 8.32037C9.11845 7.71171 9.08964 7.16155 9.01758 6.76749C8.98143 6.56978 8.93377 6.40771 8.8937 6.29183C8.8736 6.23373 8.85524 6.18673 8.84088 6.15212C8.8337 6.1348 8.8275 6.12053 8.82256 6.10947C8.82008 6.10394 8.81793 6.09921 8.81612 6.09529C8.81521 6.09334 8.81439 6.09158 8.81367 6.09003C8.8133 6.08926 8.81296 6.08854 8.81264 6.08786C8.81249 6.08753 8.81233 6.08721 8.81219 6.0869C8.81211 6.08674 8.81201 6.08652 8.81197 6.08644C8.81186 6.08622 8.81176 6.08601 8.24768 6.35514ZM8.30719 5.18971L7.73764 5.99392L8.75772 6.71637L9.32728 5.91216L8.30719 5.18971ZM9.40806 5.17732C9.44243 5.17732 9.44841 5.18431 9.41713 5.17333C9.39037 5.16394 9.35534 5.14809 9.31567 5.12667C9.27723 5.10592 9.24271 5.08443 9.21783 5.06807C9.20569 5.06008 9.1966 5.05381 9.19133 5.05011C9.18872 5.04828 9.1871 5.04712 9.18659 5.04675C9.18634 5.04657 9.18636 5.04659 9.18668 5.04682C9.18684 5.04693 9.18707 5.0471 9.18738 5.04733C9.18753 5.04744 9.18771 5.04757 9.1879 5.04771C9.188 5.04778 9.1881 5.04786 9.1882 5.04793C9.18825 5.04797 9.18834 5.04803 9.18836 5.04805C9.18845 5.04812 9.18853 5.04818 8.81723 5.55093C8.44594 6.05369 8.44603 6.05375 8.44611 6.05382C8.44615 6.05384 8.44624 6.05391 8.4463 6.05396C8.44643 6.05405 8.44656 6.05415 8.44669 6.05425C8.44697 6.05445 8.44727 6.05467 8.44758 6.0549C8.44822 6.05537 8.44895 6.0559 8.44976 6.05649C8.45138 6.05768 8.45335 6.0591 8.45565 6.06076C8.46024 6.06408 8.46619 6.06832 8.47337 6.07336C8.4877 6.08341 8.50715 6.09678 8.53084 6.11236C8.57761 6.14313 8.64383 6.18449 8.7218 6.22659C8.84923 6.29539 9.11563 6.42732 9.40806 6.42732V5.17732ZM9.72641 5.03315C9.67701 5.0604 9.59462 5.10331 9.51041 5.13774C9.46858 5.15484 9.43409 5.16662 9.40859 5.17349C9.37926 5.18139 9.38188 5.17732 9.40806 5.17732V6.42732C9.63598 6.42732 9.85679 6.34656 9.98348 6.29476C10.1301 6.23482 10.2593 6.16676 10.3302 6.12763L9.72641 5.03315ZM10.6533 5.58039V5.55093H9.40333V5.58039H10.6533ZM10.0283 5.55093C9.70829 6.08778 9.7083 6.08778 9.70831 6.08779C9.70831 6.08779 9.70832 6.0878 9.70833 6.0878C9.70835 6.08781 9.70836 6.08782 9.70837 6.08783C9.7084 6.08784 9.70843 6.08786 9.70846 6.08788C9.70852 6.08791 9.70858 6.08795 9.70864 6.08799C9.70877 6.08806 9.70891 6.08814 9.70905 6.08823C9.70935 6.0884 9.70968 6.0886 9.71004 6.08882C9.71078 6.08925 9.71166 6.08977 9.71268 6.09038C9.71474 6.09159 9.71737 6.09313 9.72055 6.09499C9.72691 6.09869 9.7355 6.10364 9.74606 6.10963L10.3624 5.02217C10.3564 5.01873 10.352 5.0162 10.3496 5.01477C10.3483 5.01406 10.3476 5.01364 10.3474 5.01351C10.3473 5.01345 10.3473 5.01347 10.3475 5.01356C10.3476 5.01361 10.3477 5.01368 10.3478 5.01377C10.3479 5.01381 10.348 5.01386 10.3481 5.01391C10.3481 5.01394 10.3482 5.01397 10.3482 5.014C10.3482 5.01401 10.3483 5.01403 10.3483 5.01404C10.3483 5.01405 10.3483 5.01406 10.3483 5.01407C10.3483 5.01407 10.3483 5.01408 10.3483 5.01408C10.3484 5.01409 10.3484 5.01409 10.0283 5.55093Z" fill="#E8AA00" mask="url(#path-11-outside-1_964_6931)"/>
<mask id="mask1_964_6931" style="mask-type:alpha" maskUnits="userSpaceOnUse" x="7" y="4" width="6" height="7">
<mask id="path-13-outside-2_964_6931" maskUnits="userSpaceOnUse" x="7.23563" y="3.55093" width="6" height="8" fill="black">
<rect fill="white" x="7.23563" y="3.55093" width="6" height="8"/>
<path fill-rule="evenodd" clip-rule="evenodd" d="M10.0543 5.5659C10.0709 5.55647 10.0802 5.55093 10.0802 5.55093V5.58039C10.2005 5.64677 10.5035 5.80232 10.7004 5.80232C10.9509 5.80232 11.2913 5.55093 11.2913 5.55093L11.8608 6.35514C11.8608 6.35514 11.4772 7.15908 11.7707 8.14146C12.0643 9.12384 11.7552 9.88133 10.45 9.96544C10.45 9.96544 10.1928 10.0143 10.0802 10.0922V10.1641C10.0802 10.1462 10.0706 10.1292 10.0543 10.1132C10.0379 10.1292 10.0283 10.1462 10.0283 10.1641V10.0922C9.91566 10.0143 9.65848 9.96544 9.65848 9.96544C8.35329 9.88133 8.04425 9.12384 8.33775 8.14146C8.63125 7.15908 8.24768 6.35514 8.24768 6.35514L8.81723 5.55093C8.81723 5.55093 9.15763 5.80232 9.40806 5.80232C9.60505 5.80232 9.90801 5.64677 10.0283 5.58039V5.55093C10.0283 5.55093 10.0376 5.55647 10.0543 5.5659Z"/>
</mask>
<path fill-rule="evenodd" clip-rule="evenodd" d="M10.0543 5.5659C10.0709 5.55647 10.0802 5.55093 10.0802 5.55093V5.58039C10.2005 5.64677 10.5035 5.80232 10.7004 5.80232C10.9509 5.80232 11.2913 5.55093 11.2913 5.55093L11.8608 6.35514C11.8608 6.35514 11.4772 7.15908 11.7707 8.14146C12.0643 9.12384 11.7552 9.88133 10.45 9.96544C10.45 9.96544 10.1928 10.0143 10.0802 10.0922V10.1641C10.0802 10.1462 10.0706 10.1292 10.0543 10.1132C10.0379 10.1292 10.0283 10.1462 10.0283 10.1641V10.0922C9.91566 10.0143 9.65848 9.96544 9.65848 9.96544C8.35329 9.88133 8.04425 9.12384 8.33775 8.14146C8.63125 7.15908 8.24768 6.35514 8.24768 6.35514L8.81723 5.55093C8.81723 5.55093 9.15763 5.80232 9.40806 5.80232C9.60505 5.80232 9.90801 5.64677 10.0283 5.58039V5.55093C10.0283 5.55093 10.0376 5.55647 10.0543 5.5659Z" fill="white"/>
<path d="M10.0802 5.55093H10.7052V4.4507L9.76013 5.01409L10.0802 5.55093ZM10.0543 5.5659L9.74606 6.10963L10.0543 6.28432L10.3624 6.10963L10.0543 5.5659ZM10.0802 5.58039H9.45517V5.94938L9.77825 6.12763L10.0802 5.58039ZM11.2913 5.55093L11.8013 5.18971L11.4328 4.66942L10.92 5.04818L11.2913 5.55093ZM11.8608 6.35514L12.4249 6.62428L12.5829 6.29324L12.3709 5.99392L11.8608 6.35514ZM11.7707 8.14146L11.1719 8.32037L11.1719 8.32037L11.7707 8.14146ZM10.45 9.96544L10.4098 9.34173L10.3713 9.34421L10.3333 9.35142L10.45 9.96544ZM10.0802 10.0922L9.72481 9.57804L9.45517 9.7644V10.0922H10.0802ZM10.0543 10.1132L10.4919 9.66701L10.0543 9.23776L9.61661 9.66701L10.0543 10.1132ZM10.0283 10.0922H10.6533V9.7644L10.3837 9.57804L10.0283 10.0922ZM9.65848 9.96544L9.77516 9.35142L9.73722 9.34421L9.69868 9.34173L9.65848 9.96544ZM8.24768 6.35514L7.73764 5.99392L7.52565 6.29324L7.68359 6.62428L8.24768 6.35514ZM8.81723 5.55093L9.18853 5.04818L8.67567 4.66942L8.30719 5.18971L8.81723 5.55093ZM10.0283 5.58039L10.3302 6.12763L10.6533 5.94938V5.58039H10.0283ZM10.0283 5.55093L10.3484 5.01409L9.40333 4.4507V5.55093H10.0283ZM10.0802 5.55093C9.76013 5.01409 9.76014 5.01409 9.76015 5.01408C9.76016 5.01408 9.76017 5.01407 9.76017 5.01407C9.76019 5.01406 9.7602 5.01405 9.76021 5.01404C9.76024 5.01403 9.76026 5.01401 9.76029 5.014C9.76034 5.01397 9.76039 5.01394 9.76043 5.01391C9.76052 5.01386 9.7606 5.01381 9.76068 5.01377C9.76083 5.01368 9.76094 5.01361 9.76102 5.01356C9.76118 5.01347 9.76121 5.01345 9.7611 5.01351C9.7609 5.01364 9.76017 5.01406 9.75895 5.01477C9.75651 5.0162 9.75213 5.01873 9.74606 5.02217L10.3624 6.10963C10.373 6.10364 10.3816 6.09869 10.3879 6.09499C10.3911 6.09313 10.3938 6.09159 10.3958 6.09038C10.3968 6.08977 10.3977 6.08925 10.3985 6.08882C10.3988 6.0886 10.3992 6.0884 10.3994 6.08823C10.3996 6.08814 10.3997 6.08806 10.3999 6.08799C10.3999 6.08795 10.4 6.08791 10.4 6.08788C10.4001 6.08786 10.4001 6.08784 10.4001 6.08783C10.4001 6.08782 10.4002 6.08781 10.4002 6.0878C10.4002 6.0878 10.4002 6.08779 10.4002 6.08779C10.4002 6.08778 10.4002 6.08778 10.0802 5.55093ZM10.7052 5.58039V5.55093H9.45517V5.58039H10.7052ZM9.77825 6.12763C9.84918 6.16676 9.97842 6.23482 10.125 6.29476C10.2517 6.34656 10.4725 6.42732 10.7004 6.42732V5.17732C10.7266 5.17732 10.7292 5.18139 10.6999 5.17349C10.6744 5.16662 10.6399 5.15484 10.5981 5.13774C10.5139 5.10331 10.4315 5.0604 10.3821 5.03315L9.77825 6.12763ZM10.7004 6.42732C10.9929 6.42732 11.2593 6.29539 11.3867 6.22659C11.4647 6.18449 11.5309 6.14313 11.5777 6.11236C11.6013 6.09678 11.6208 6.08341 11.6351 6.07336C11.6423 6.06832 11.6483 6.06408 11.6529 6.06076C11.6552 6.0591 11.6571 6.05768 11.6587 6.05649C11.6596 6.0559 11.6603 6.05537 11.6609 6.0549C11.6612 6.05467 11.6615 6.05445 11.6618 6.05425C11.6619 6.05415 11.6621 6.05405 11.6622 6.05396C11.6623 6.05391 11.6624 6.05384 11.6624 6.05382C11.6625 6.05375 11.6626 6.05369 11.2913 5.55093C10.92 5.04818 10.9201 5.04812 10.9201 5.04805C10.9202 5.04803 10.9202 5.04797 10.9203 5.04793C10.9204 5.04786 10.9205 5.04778 10.9206 5.04771C10.9208 5.04757 10.921 5.04744 10.9211 5.04733C10.9214 5.0471 10.9217 5.04693 10.9218 5.04682C10.9221 5.04659 10.9222 5.04657 10.9219 5.04675C10.9214 5.04712 10.9198 5.04828 10.9172 5.05011C10.9119 5.05381 10.9028 5.06008 10.8907 5.06807C10.8658 5.08443 10.8313 5.10592 10.7928 5.12667C10.7532 5.14809 10.7181 5.16394 10.6914 5.17333C10.6601 5.18431 10.6661 5.17732 10.7004 5.17732V6.42732ZM10.7812 5.91216L11.3508 6.71637L12.3709 5.99392L11.8013 5.18971L10.7812 5.91216ZM11.8608 6.35514C11.2967 6.08601 11.2966 6.08622 11.2965 6.08644C11.2965 6.08652 11.2964 6.08674 11.2963 6.0869C11.2962 6.08721 11.296 6.08753 11.2959 6.08786C11.2955 6.08854 11.2952 6.08926 11.2948 6.09003C11.2941 6.09158 11.2933 6.09334 11.2924 6.09529C11.2906 6.09921 11.2884 6.10394 11.2859 6.10947C11.281 6.12053 11.2748 6.1348 11.2676 6.15212C11.2533 6.18673 11.2349 6.23373 11.2148 6.29183C11.1747 6.40771 11.1271 6.56978 11.0909 6.76749C11.0189 7.16155 10.9901 7.71171 11.1719 8.32037L12.3696 7.96255C12.2579 7.58883 12.2742 7.24583 12.3205 6.99233C12.3436 6.86626 12.3735 6.76595 12.3961 6.70039C12.4074 6.66777 12.4167 6.64429 12.4222 6.63109C12.4249 6.62451 12.4267 6.62055 12.4272 6.61935C12.4275 6.61875 12.4275 6.61885 12.4271 6.61967C12.4269 6.62007 12.4266 6.62066 12.4263 6.62143C12.4261 6.62181 12.4259 6.62224 12.4256 6.62272C12.4255 6.62296 12.4254 6.6232 12.4253 6.62346C12.4252 6.6236 12.4251 6.6238 12.4251 6.62386C12.425 6.62407 12.4249 6.62428 11.8608 6.35514ZM11.1719 8.32037C11.2954 8.73362 11.2461 8.95419 11.1814 9.05665C11.1275 9.14208 10.9592 9.30633 10.4098 9.34173L10.4902 10.5891C11.246 10.5404 11.8849 10.2839 12.2384 9.72395C12.5811 9.18104 12.5396 8.53168 12.3696 7.96255L11.1719 8.32037ZM10.45 9.96544C10.3333 9.35142 10.3333 9.35143 10.3332 9.35145C10.3332 9.35145 10.3331 9.35146 10.3331 9.35147C10.333 9.35149 10.3329 9.35151 10.3328 9.35153C10.3326 9.35157 10.3324 9.35161 10.3321 9.35165C10.3317 9.35174 10.3311 9.35185 10.3305 9.35196C10.3293 9.3522 10.3279 9.35248 10.3262 9.35282C10.3228 9.35349 10.3184 9.35436 10.3131 9.35545C10.3026 9.35761 10.2884 9.36061 10.2714 9.36442C10.2378 9.37194 10.1911 9.3831 10.1388 9.39776C10.0604 9.41972 9.87582 9.47366 9.72481 9.57804L10.4355 10.6063C10.4058 10.6269 10.3916 10.63 10.412 10.622C10.4269 10.6163 10.4488 10.609 10.4759 10.6014C10.5019 10.5942 10.5266 10.5882 10.5448 10.5842C10.5536 10.5822 10.5604 10.5807 10.5644 10.5799C10.5664 10.5795 10.5676 10.5793 10.568 10.5792C10.5683 10.5791 10.5683 10.5791 10.568 10.5792C10.5679 10.5792 10.5678 10.5792 10.5675 10.5793C10.5674 10.5793 10.5673 10.5793 10.5672 10.5794C10.5671 10.5794 10.567 10.5794 10.5669 10.5794C10.5669 10.5794 10.5668 10.5794 10.5668 10.5794C10.5668 10.5794 10.5667 10.5794 10.45 9.96544ZM10.7052 10.1641V10.0922H9.45517V10.1641H10.7052ZM9.61661 10.5594C9.57288 10.5165 9.45517 10.3825 9.45517 10.1641H10.7052C10.7052 9.90991 10.5683 9.7419 10.4919 9.66701L9.61661 10.5594ZM9.61661 9.66701C9.54025 9.7419 9.40333 9.90991 9.40333 10.1641H10.6533C10.6533 10.3825 10.5356 10.5165 10.4919 10.5594L9.61661 9.66701ZM10.6533 10.1641V10.0922H9.40333V10.1641H10.6533ZM9.65848 9.96544C9.54181 10.5794 9.54175 10.5794 9.54169 10.5794C9.54167 10.5794 9.54161 10.5794 9.54157 10.5794C9.54149 10.5794 9.54142 10.5794 9.54135 10.5794C9.54121 10.5793 9.54108 10.5793 9.54097 10.5793C9.54075 10.5792 9.54058 10.5792 9.54047 10.5792C9.54025 10.5791 9.54025 10.5791 9.54046 10.5792C9.54088 10.5793 9.54213 10.5795 9.54411 10.5799C9.54809 10.5807 9.55487 10.5822 9.56374 10.5842C9.58192 10.5882 9.60655 10.5942 9.6326 10.6014C9.65965 10.609 9.68163 10.6163 9.69654 10.622C9.71693 10.63 9.70273 10.6269 9.67297 10.6063L10.3837 9.57804C10.2327 9.47366 10.0481 9.41972 9.96971 9.39776C9.91738 9.3831 9.87068 9.37194 9.83711 9.36442C9.82011 9.36061 9.80592 9.35761 9.7954 9.35545C9.79013 9.35436 9.78574 9.35349 9.78234 9.35282C9.78064 9.35248 9.77918 9.3522 9.77798 9.35196C9.77738 9.35185 9.77684 9.35174 9.77637 9.35165C9.77614 9.35161 9.77592 9.35157 9.77571 9.35153C9.77561 9.35151 9.77552 9.35149 9.77542 9.35147C9.77538 9.35146 9.77531 9.35145 9.77529 9.35145C9.77522 9.35143 9.77516 9.35142 9.65848 9.96544ZM7.73891 7.96255C7.56887 8.53168 7.52736 9.18104 7.87012 9.72395C8.22362 10.2839 8.86246 10.5404 9.61829 10.5891L9.69868 9.34173C9.14931 9.30633 8.98104 9.14208 8.9271 9.05665C8.86241 8.95419 8.81313 8.73362 8.9366 8.32037L7.73891 7.96255ZM8.24768 6.35514C7.68359 6.62428 7.68349 6.62407 7.6834 6.62386C7.68337 6.6238 7.68327 6.6236 7.68321 6.62346C7.68308 6.6232 7.68296 6.62296 7.68285 6.62272C7.68263 6.62224 7.68242 6.62181 7.68224 6.62143C7.68188 6.62066 7.68161 6.62007 7.68142 6.61967C7.68105 6.61885 7.68101 6.61875 7.68127 6.61935C7.68181 6.62055 7.68356 6.62451 7.68629 6.63109C7.69176 6.64429 7.70107 6.66777 7.71235 6.70039C7.73503 6.76595 7.76492 6.86626 7.78797 6.99233C7.83433 7.24583 7.85056 7.58883 7.73891 7.96255L8.9366 8.32037C9.11845 7.71171 9.08964 7.16155 9.01758 6.76749C8.98143 6.56978 8.93377 6.40771 8.8937 6.29183C8.8736 6.23373 8.85524 6.18673 8.84088 6.15212C8.8337 6.1348 8.8275 6.12053 8.82256 6.10947C8.82008 6.10394 8.81793 6.09921 8.81612 6.09529C8.81521 6.09334 8.81439 6.09158 8.81367 6.09003C8.8133 6.08926 8.81296 6.08854 8.81264 6.08786C8.81249 6.08753 8.81233 6.08721 8.81219 6.0869C8.81211 6.08674 8.81201 6.08652 8.81197 6.08644C8.81186 6.08622 8.81176 6.08601 8.24768 6.35514ZM8.30719 5.18971L7.73764 5.99392L8.75772 6.71637L9.32728 5.91216L8.30719 5.18971ZM9.40806 5.17732C9.44243 5.17732 9.44841 5.18431 9.41713 5.17333C9.39037 5.16394 9.35534 5.14809 9.31567 5.12667C9.27723 5.10592 9.24271 5.08443 9.21783 5.06807C9.20569 5.06008 9.1966 5.05381 9.19133 5.05011C9.18872 5.04828 9.1871 5.04712 9.18659 5.04675C9.18634 5.04657 9.18636 5.04659 9.18668 5.04682C9.18684 5.04693 9.18707 5.0471 9.18738 5.04733C9.18753 5.04744 9.18771 5.04757 9.1879 5.04771C9.188 5.04778 9.1881 5.04786 9.1882 5.04793C9.18825 5.04797 9.18834 5.04803 9.18836 5.04805C9.18845 5.04812 9.18853 5.04818 8.81723 5.55093C8.44594 6.05369 8.44603 6.05375 8.44611 6.05382C8.44615 6.05384 8.44624 6.05391 8.4463 6.05396C8.44643 6.05405 8.44656 6.05415 8.44669 6.05425C8.44697 6.05445 8.44727 6.05467 8.44758 6.0549C8.44822 6.05537 8.44895 6.0559 8.44976 6.05649C8.45138 6.05768 8.45335 6.0591 8.45565 6.06076C8.46024 6.06408 8.46619 6.06832 8.47337 6.07336C8.4877 6.08341 8.50715 6.09678 8.53084 6.11236C8.57761 6.14313 8.64383 6.18449 8.7218 6.22659C8.84923 6.29539 9.11563 6.42732 9.40806 6.42732V5.17732ZM9.72641 5.03315C9.67701 5.0604 9.59462 5.10331 9.51041 5.13774C9.46858 5.15484 9.43409 5.16662 9.40859 5.17349C9.37926 5.18139 9.38188 5.17732 9.40806 5.17732V6.42732C9.63598 6.42732 9.85679 6.34656 9.98348 6.29476C10.1301 6.23482 10.2593 6.16676 10.3302 6.12763L9.72641 5.03315ZM10.6533 5.58039V5.55093H9.40333V5.58039H10.6533ZM10.0283 5.55093C9.70829 6.08778 9.7083 6.08778 9.70831 6.08779C9.70831 6.08779 9.70832 6.0878 9.70833 6.0878C9.70835 6.08781 9.70836 6.08782 9.70837 6.08783C9.7084 6.08784 9.70843 6.08786 9.70846 6.08788C9.70852 6.08791 9.70858 6.08795 9.70864 6.08799C9.70877 6.08806 9.70891 6.08814 9.70905 6.08823C9.70935 6.0884 9.70968 6.0886 9.71004 6.08882C9.71078 6.08925 9.71166 6.08977 9.71268 6.09038C9.71474 6.09159 9.71737 6.09313 9.72055 6.09499C9.72691 6.09869 9.7355 6.10364 9.74606 6.10963L10.3624 5.02217C10.3564 5.01873 10.352 5.0162 10.3496 5.01477C10.3483 5.01406 10.3476 5.01364 10.3474 5.01351C10.3473 5.01345 10.3473 5.01347 10.3475 5.01356C10.3476 5.01361 10.3477 5.01368 10.3478 5.01377C10.3479 5.01381 10.348 5.01386 10.3481 5.01391C10.3481 5.01394 10.3482 5.01397 10.3482 5.014C10.3482 5.01401 10.3483 5.01403 10.3483 5.01404C10.3483 5.01405 10.3483 5.01406 10.3483 5.01407C10.3483 5.01407 10.3483 5.01408 10.3483 5.01408C10.3484 5.01409 10.3484 5.01409 10.0283 5.55093Z" fill="white" mask="url(#path-13-outside-2_964_6931)"/>
</mask>
<g mask="url(#mask1_964_6931)">
<rect x="8.31523" y="5.45456" width="1.73913" height="2.38636" fill="#67BAFF"/>
<rect x="10.0544" y="5.45456" width="1.73913" height="2.38636" fill="white"/>
<rect x="8.09784" y="8.06818" width="4.34783" height="2.72727" fill="#C51918"/>
<path d="M10.8967 7.67185H10.6794V6.03766H10.8967V7.67185Z" fill="#C9A951"/>
<path d="M10.8087 6.92848L10.7027 7.11829L10.3275 6.90877L10.4334 6.71896L10.8087 6.92848Z" fill="#C9A951"/>
<path d="M10.8087 6.47395L10.7027 6.66376L10.3275 6.45424L10.4334 6.26443L10.8087 6.47395Z" fill="#C9A951"/>
<path d="M10.7622 6.92848L10.8682 7.11829L11.2435 6.90877L11.1375 6.71896L10.7622 6.92848Z" fill="#C9A951"/>
<path d="M10.7622 6.47395L10.8682 6.66376L11.2435 6.45424L11.1375 6.26443L10.7622 6.47395Z" fill="#C9A951"/>
<path fill-rule="evenodd" clip-rule="evenodd" d="M11.0807 8.56562C11.0807 8.56562 11.232 8.3927 11.232 8.47916C11.232 8.56562 11.232 8.71099 11.1563 8.71099C11.0807 8.71099 10.7285 8.64183 10.5943 8.47916C10.4601 8.31649 10.1762 8.0333 9.81079 8.09998C9.44537 8.16666 9.01196 8.64038 8.90512 8.64038C8.79829 8.64038 8.56414 9.00552 8.73463 9.29068C8.90512 9.57584 9.19513 9.48737 9.19513 9.5701C9.19513 9.65283 9.26765 9.66235 9.53922 9.66235C9.81079 9.66235 9.9101 9.75813 10.1452 9.75813C10.3803 9.75813 10.0676 9.75461 10.4463 9.66235C10.8249 9.5701 11.1117 9.29068 10.8911 9.29068C10.6704 9.29068 10.5991 9.29068 10.4463 9.29068C10.2934 9.29068 9.95314 9.40085 9.95314 9.29068C9.95314 9.18051 10.0287 8.94464 10.2375 9.06258C10.4463 9.18051 11.0264 9.27044 11.232 9.06258C11.4375 8.85471 11.5094 8.72937 11.4735 8.47916C11.4375 8.22894 11.1563 8.30096 11.1563 8.30096L11.0807 8.56562Z" fill="#FBCD17"/>
<path fill-rule="evenodd" clip-rule="evenodd" d="M9.61012 5.9812C9.47909 6.09582 9.56362 6.51467 9.3489 6.51467C9.13418 6.51467 8.83202 6.20103 8.75593 6.40799C8.67983 6.61495 8.75593 6.54541 8.75593 6.72168C8.75593 6.89795 8.57367 7.38777 8.6648 7.47057C8.75593 7.55338 8.8493 7.77155 8.83312 7.66942C8.81694 7.56729 8.74805 7.4173 8.77675 7.25437C8.749 7.08604 8.93033 6.92414 8.93033 6.92414C8.93033 6.92414 8.91065 7.0989 8.89637 7.16405C8.89637 7.16405 8.83659 7.29557 8.86086 7.38292C8.86086 7.38292 8.92225 7.62911 8.94756 7.64612C8.94756 7.64612 8.964 7.06319 8.98269 6.96712C9.00139 6.87104 9.13465 7.07548 9.17898 7.05232C9.17898 7.05232 9.1942 7.45092 9.17115 7.49842C9.17115 7.49842 9.12441 7.59271 9.14179 7.62283C9.14179 7.62283 9.18514 7.73195 9.22213 7.70017C9.22213 7.70017 9.22344 7.6979 9.24218 7.59169C9.24218 7.59169 9.2204 7.52754 9.25449 7.3815C9.25449 7.3815 9.2904 7.05992 9.30526 7.1297C9.30526 7.1297 9.29858 7.28152 9.31571 7.35978C9.31571 7.35978 9.34306 7.55406 9.34855 7.57539C9.34855 7.57539 9.47974 7.76225 9.48323 7.68334C9.48323 7.68334 9.35747 7.53338 9.38441 7.41927C9.38441 7.41927 9.31241 7.096 9.41291 7.02392C9.41291 7.02392 9.67954 6.90058 9.69558 6.68947C9.69558 6.68947 9.73421 6.44888 9.74115 6.33858C9.74115 6.33858 9.68266 6.30616 9.80356 6.24921C9.80356 6.24921 9.99818 6.17451 9.87691 6.07063" fill="#D18219"/>
</g>
</g>
</svg>
