<svg width="20" height="15" viewBox="0 0 20 15" fill="none" xmlns="http://www.w3.org/2000/svg">
<mask id="mask0_964_6948" style="mask-type:alpha" maskUnits="userSpaceOnUse" x="0" y="0" width="20" height="15">
<rect width="20" height="15" fill="white"/>
</mask>
<g mask="url(#mask0_964_6948)">
<path fill-rule="evenodd" clip-rule="evenodd" d="M0 0V15H20V0H0Z" fill="#4857A1"/>
<mask id="mask1_964_6948" style="mask-type:alpha" maskUnits="userSpaceOnUse" x="0" y="0" width="20" height="15">
<path fill-rule="evenodd" clip-rule="evenodd" d="M0 0V15H20V0H0Z" fill="white"/>
</mask>
<g mask="url(#mask1_964_6948)">
<path fill-rule="evenodd" clip-rule="evenodd" d="M0 0V5H20V0H0Z" fill="#C51918"/>
<path fill-rule="evenodd" clip-rule="evenodd" d="M0 10V15H20V10H0Z" fill="#F7FCFF"/>
<path fill-rule="evenodd" clip-rule="evenodd" d="M7.15989 2.37701L7.08917 2.0936C7.14946 2.11211 7.21493 2.13111 7.28404 2.15065L7.28338 2.14703C8.10841 2.22187 9.38374 2.64892 9.62115 3.10251C9.71291 3.27783 9.62166 3.42728 9.50208 3.62314C9.48421 3.65241 9.46571 3.68271 9.44709 3.71429C9.38697 3.81627 9.33246 3.91377 9.28109 4.00565C9.09575 4.33713 8.95126 4.59556 8.73132 4.72831L8.73571 5.47893L5.051 5.44725L5.04623 4.68905C4.85787 4.54799 4.72313 4.30701 4.55464 4.00565L4.55463 4.00564L4.55463 4.00564L4.55463 4.00563L4.55462 4.00563C4.50326 3.91375 4.44875 3.81627 4.38863 3.71429C4.37002 3.68271 4.35152 3.65241 4.33365 3.62314L4.33365 3.62314C4.21407 3.42728 4.12282 3.27783 4.21458 3.10251C4.39307 2.76148 5.20174 2.42981 5.94274 2.2544C6.08853 2.20255 6.24091 2.1541 6.39198 2.10771L6.45941 2.15652C6.51799 2.14852 6.57475 2.142 6.62922 2.13706L6.71411 2.32637H7.01413C7.01413 2.32637 7.19529 2.86421 7.19529 3.1629C7.19529 3.46159 7.01413 3.7086 7.01413 3.7086V3.91478C7.04559 3.9174 7.07859 3.9206 7.11289 3.9243C7.11313 3.90641 7.11488 3.88758 7.11827 3.8683C7.13565 3.76977 7.18967 3.69694 7.23894 3.70562C7.2882 3.71431 7.31405 3.80123 7.29668 3.89976C7.29386 3.91578 7.29006 3.93112 7.28548 3.94554C7.47987 3.97198 7.6977 4.00888 7.90404 4.04685C7.98262 3.89454 8.07842 3.74407 8.16989 3.60039L8.16989 3.60038C8.40633 3.22901 8.61384 2.90307 8.42018 2.70851C8.38345 2.67161 8.31699 2.63728 8.23126 2.60549C7.94793 2.53499 7.63945 2.48062 7.33967 2.45342L7.33062 2.40416C7.2708 2.39445 7.21339 2.3854 7.15989 2.37701ZM8.56002 4.17669C8.66478 4.19876 8.72831 4.2128 8.72831 4.2128L8.72894 4.32021C9.094 4.03884 9.35229 3.41541 9.37557 3.21118C9.38961 3.08806 9.19436 2.94611 8.88822 2.81749C9.03311 3.09228 8.83906 3.36496 8.59553 3.70718C8.50401 3.8358 8.4055 3.97423 8.31537 4.12628L8.40477 4.14444C8.40399 4.1162 8.40771 4.08445 8.41646 4.05181C8.44235 3.95517 8.50252 3.88732 8.55084 3.90027C8.59916 3.91322 8.61734 4.00206 8.59144 4.0987C8.58365 4.12777 8.57276 4.15424 8.56002 4.17669ZM6.67722 3.91618V3.68655C6.67722 3.68655 6.52037 3.51125 6.49606 3.14616C6.47867 2.885 6.53251 2.57798 6.56457 2.42435C6.33054 2.45403 6.08382 2.50012 5.84493 2.55673C5.68643 2.60135 5.56011 2.6519 5.50377 2.70851C5.31011 2.90307 5.51762 3.22901 5.75406 3.60038L5.75406 3.60039L5.75406 3.6004C5.84242 3.73917 5.93481 3.8843 6.01182 4.03128C6.145 4.00244 6.27884 3.97575 6.40379 3.95452C6.39841 3.9352 6.39455 3.91412 6.39261 3.89193C6.38389 3.79225 6.41722 3.70792 6.46705 3.70356C6.51689 3.6992 6.56436 3.77647 6.57308 3.87614C6.57466 3.8942 6.57485 3.91176 6.57382 3.92844C6.6097 3.92363 6.64427 3.91951 6.67722 3.91618ZM5.60772 4.12484C5.51782 3.97335 5.41965 3.83539 5.32842 3.70719L5.32842 3.70718L5.32842 3.70718C5.07938 3.35723 4.8821 3.07998 5.04608 2.79885C4.68764 2.93765 4.44615 3.08838 4.46015 3.21118C4.48215 3.40414 4.71394 3.97132 5.04736 4.27064C5.07058 4.26416 5.1995 4.22839 5.38148 4.18161C5.36751 4.15981 5.35518 4.13385 5.34584 4.1051C5.31492 4.00994 5.32843 3.92027 5.37601 3.90482C5.42358 3.88936 5.48722 3.95396 5.51813 4.04912C5.5288 4.08196 5.53418 4.11415 5.5347 4.14285L5.60772 4.12484Z" fill="#F6C540"/>
<path fill-rule="evenodd" clip-rule="evenodd" d="M7.2826 2.19124C7.2826 2.41092 7.10011 2.589 6.875 2.589C6.64988 2.589 6.46739 2.41092 6.46739 2.19124C6.46739 1.97157 6.64988 1.79349 6.875 1.79349C7.10011 1.79349 7.2826 1.97157 7.2826 2.19124ZM6.875 5.14494C7.05009 5.14494 7.19203 5.06383 7.19203 4.96378C7.19203 4.86373 7.05009 4.78262 6.875 4.78262C6.69991 4.78262 6.55797 4.86373 6.55797 4.96378C6.55797 5.06383 6.69991 5.14494 6.875 5.14494ZM5.28985 5.09965C5.28985 5.17469 5.22902 5.23552 5.15398 5.23552C5.07894 5.23552 5.01811 5.17469 5.01811 5.09965C5.01811 5.02461 5.07894 4.96378 5.15398 4.96378C5.22902 4.96378 5.28985 5.02461 5.28985 5.09965ZM8.91304 5.09965C8.91304 5.17469 8.85221 5.23552 8.77717 5.23552C8.70213 5.23552 8.6413 5.17469 8.6413 5.09965C8.6413 5.02461 8.70213 4.96378 8.77717 4.96378C8.85221 4.96378 8.91304 5.02461 8.91304 5.09965Z" fill="#2E42A5"/>
<path fill-rule="evenodd" clip-rule="evenodd" d="M6.19565 5.00907C6.19565 5.08411 6.09427 5.14494 5.9692 5.14494C5.84414 5.14494 5.74275 5.08411 5.74275 5.00907C5.74275 4.93403 5.84414 4.8732 5.9692 4.8732C6.09427 4.8732 6.19565 4.93403 6.19565 5.00907ZM8.09782 5.00907C8.09782 5.08411 7.99644 5.14494 7.87138 5.14494C7.74631 5.14494 7.64493 5.08411 7.64493 5.00907C7.64493 4.93403 7.74631 4.8732 7.87138 4.8732C7.99644 4.8732 8.09782 4.93403 8.09782 5.00907Z" fill="#C5363C"/>
<path fill-rule="evenodd" clip-rule="evenodd" d="M7.64493 3.87681C7.64493 3.97686 7.60438 4.05797 7.55435 4.05797C7.50432 4.05797 7.46377 3.97686 7.46377 3.87681C7.46377 3.77676 7.50432 3.69565 7.55435 3.69565C7.60438 3.69565 7.64493 3.77676 7.64493 3.87681ZM6.2818 3.84882C6.31272 3.94397 6.29921 4.03364 6.25164 4.0491C6.20406 4.06456 6.14042 3.99995 6.10951 3.9048C6.07859 3.80964 6.0921 3.71997 6.13967 3.70451C6.18725 3.68906 6.25088 3.75366 6.2818 3.84882ZM5.21623 4.33996C5.2638 4.3245 5.27731 4.23483 5.24639 4.13968C5.21547 4.04453 5.15184 3.97992 5.10426 3.99538C5.05669 4.01084 5.04318 4.10051 5.0741 4.19566C5.10502 4.29082 5.16865 4.35542 5.21623 4.33996ZM8.80036 4.21702C8.74734 4.30187 8.66997 4.34916 8.62754 4.32265C8.58512 4.29614 8.59371 4.20587 8.64673 4.12102C8.69975 4.03617 8.77712 3.98888 8.81954 4.01539C8.86197 4.0419 8.85338 4.13217 8.80036 4.21702Z" fill="#F7FCFF"/>
<path fill-rule="evenodd" clip-rule="evenodd" d="M6.10565 2.37021C6.13091 2.3886 6.16202 2.39945 6.19565 2.39945C6.2802 2.39945 6.34873 2.33092 6.34873 2.24637C6.34873 2.16183 6.2802 2.09329 6.19565 2.09329C6.1357 2.09329 6.08379 2.12776 6.05867 2.17796C6.03341 2.15957 6.00231 2.14872 5.96867 2.14872C5.91474 2.14872 5.86732 2.17662 5.84005 2.21876C5.8136 2.19696 5.77971 2.18387 5.74275 2.18387C5.65821 2.18387 5.58968 2.25241 5.58968 2.33695C5.58968 2.34166 5.58989 2.34633 5.5903 2.35093C5.56225 2.31609 5.51923 2.2938 5.47102 2.2938C5.39439 2.2938 5.33091 2.3501 5.3197 2.42359C5.29167 2.38793 5.24815 2.36503 5.19928 2.36503C5.12581 2.36503 5.06443 2.41678 5.04961 2.48582C5.02447 2.46773 4.99362 2.45707 4.96029 2.45707C4.89245 2.45707 4.83492 2.5012 4.81483 2.56231C4.79423 2.552 4.77098 2.54619 4.74638 2.54619C4.67085 2.54619 4.60809 2.6009 4.59557 2.67285C4.58576 2.67087 4.57561 2.66984 4.56522 2.66984C4.48148 2.66984 4.41345 2.73707 4.41216 2.8205C4.40305 2.81881 4.39366 2.81793 4.38406 2.81793C4.29952 2.81793 4.23098 2.88647 4.23098 2.97101C4.23098 2.98173 4.23208 2.99219 4.23418 3.00229C4.22408 3.00019 4.21362 2.99909 4.2029 2.99909C4.11836 2.99909 4.04982 3.06763 4.04982 3.15217C4.04982 3.2164 4.08938 3.2714 4.14547 3.29411C4.14216 3.30663 4.1404 3.31977 4.1404 3.33333C4.1404 3.39756 4.17996 3.45256 4.23605 3.47527C4.23274 3.48779 4.23098 3.50093 4.23098 3.51449C4.23098 3.59702 4.2963 3.6643 4.37806 3.66745C4.34358 3.69552 4.32156 3.7383 4.32156 3.78623C4.32156 3.87077 4.3901 3.93931 4.47464 3.93931C4.55918 3.93931 4.62772 3.87077 4.62772 3.78623C4.62772 3.70369 4.5624 3.63641 4.48064 3.63326C4.51512 3.60519 4.53714 3.56241 4.53714 3.51449C4.53714 3.45025 4.49758 3.39526 4.44149 3.37255C4.4448 3.36003 4.44656 3.34688 4.44656 3.33333C4.44656 3.26909 4.407 3.2141 4.35091 3.19139C4.35422 3.17887 4.35598 3.16573 4.35598 3.15217C4.35598 3.14145 4.35488 3.13099 4.35278 3.12089C4.36288 3.12299 4.37334 3.12409 4.38406 3.12409C4.4678 3.12409 4.53583 3.05685 4.53712 2.97342C4.54623 2.97511 4.55562 2.976 4.56522 2.976C4.64075 2.976 4.70351 2.92129 4.71603 2.84934C4.72584 2.85131 4.73599 2.85235 4.74638 2.85235C4.81421 2.85235 4.87175 2.80822 4.89183 2.74711C4.91243 2.75743 4.93568 2.76323 4.96029 2.76323C4.99387 2.76323 5.02493 2.75241 5.05017 2.73408C5.05493 2.75455 5.0638 2.77345 5.07586 2.78985C5.05721 2.81521 5.0462 2.84654 5.0462 2.88043C5.0462 2.96296 5.11151 3.03024 5.19328 3.03339C5.1588 3.06146 5.13678 3.10424 5.13678 3.15217C5.13678 3.2164 5.17634 3.2714 5.23243 3.29411C5.22912 3.30663 5.22736 3.31977 5.22736 3.33333C5.22736 3.39756 5.26692 3.45256 5.32301 3.47527C5.3197 3.48779 5.31794 3.50093 5.31794 3.51449C5.31794 3.59903 5.38647 3.66757 5.47102 3.66757C5.55556 3.66757 5.6241 3.59903 5.6241 3.51449C5.6241 3.45025 5.58453 3.39526 5.52845 3.37255C5.53175 3.36003 5.53352 3.34688 5.53352 3.33333C5.53352 3.26909 5.49395 3.2141 5.43787 3.19139C5.44117 3.17887 5.44294 3.16573 5.44294 3.15217C5.44294 3.06963 5.37762 3.00236 5.29586 2.9992C5.33033 2.97114 5.35236 2.92835 5.35236 2.88043C5.35236 2.84654 5.34134 2.81521 5.32269 2.78985C5.34134 2.76449 5.35236 2.73316 5.35236 2.69927C5.35236 2.66538 5.34134 2.63405 5.32269 2.60869C5.33698 2.58925 5.34679 2.56631 5.3506 2.5414C5.37862 2.57705 5.42214 2.59995 5.47102 2.59995C5.55556 2.59995 5.6241 2.53142 5.6241 2.44688C5.6241 2.44216 5.62388 2.4375 5.62347 2.43289C5.65152 2.46774 5.69454 2.49003 5.74275 2.49003C5.79669 2.49003 5.84411 2.46214 5.87138 2.41999C5.89783 2.44179 5.93172 2.45488 5.96867 2.45488C6.02863 2.45488 6.08053 2.42041 6.10565 2.37021ZM5.10995 2.64244C5.13509 2.66053 5.16594 2.67119 5.19928 2.67119C5.24993 2.67119 5.29483 2.64659 5.32269 2.60869C5.29483 2.57079 5.24993 2.54619 5.19928 2.54619C5.21478 2.54619 5.22736 2.53362 5.22736 2.51811C5.22736 2.5026 5.21478 2.49003 5.19928 2.49003C5.18377 2.49003 5.1712 2.5026 5.1712 2.51811C5.1712 2.53362 5.18377 2.54619 5.19928 2.54619C5.16569 2.54619 5.13463 2.55701 5.10939 2.57535C5.10087 2.5387 5.07919 2.50711 5.04961 2.48582C5.04737 2.49623 5.0462 2.50703 5.0462 2.51811C5.0462 2.55201 5.05721 2.58333 5.07586 2.60869C5.05721 2.63405 5.0462 2.66538 5.0462 2.69927C5.0462 2.71124 5.04757 2.72289 5.05017 2.73408C5.08014 2.7123 5.10191 2.67992 5.10995 2.64244ZM5.10995 2.64244C5.0969 2.63305 5.08538 2.62165 5.07586 2.60869C5.08525 2.59592 5.09657 2.58466 5.10939 2.57535C5.11199 2.58653 5.11337 2.59818 5.11337 2.61015C5.11337 2.62123 5.11219 2.63203 5.10995 2.64244ZM5.19928 2.85235C5.14863 2.85235 5.10372 2.82775 5.07586 2.78985C5.10372 2.75195 5.14863 2.72735 5.19928 2.72735C5.24993 2.72735 5.29483 2.75195 5.32269 2.78985C5.29483 2.82775 5.24993 2.85235 5.19928 2.85235ZM5.19928 2.85235C5.21478 2.85235 5.22736 2.86492 5.22736 2.88043C5.22736 2.89594 5.21478 2.90851 5.19928 2.90851C5.18377 2.90851 5.1712 2.89594 5.1712 2.88043C5.1712 2.86492 5.18377 2.85235 5.19928 2.85235ZM5.19928 2.72735C5.18377 2.72735 5.1712 2.71478 5.1712 2.69927C5.1712 2.68376 5.18377 2.67119 5.19928 2.67119C5.21478 2.67119 5.22736 2.68376 5.22736 2.69927C5.22736 2.71478 5.21478 2.72735 5.19928 2.72735ZM5.52845 3.37255C5.51071 3.36536 5.49133 3.36141 5.47102 3.36141C5.40003 3.36141 5.34033 3.40973 5.32301 3.47527C5.34074 3.48245 5.36013 3.48641 5.38044 3.48641C5.45142 3.48641 5.51113 3.43809 5.52845 3.37255ZM5.43787 3.19139C5.42013 3.1842 5.40075 3.18025 5.38044 3.18025C5.30945 3.18025 5.24975 3.22857 5.23243 3.29411C5.25016 3.30129 5.26955 3.30525 5.28986 3.30525C5.36084 3.30525 5.42055 3.25693 5.43787 3.19139ZM5.29586 2.9992L5.28986 2.99909C5.25324 2.99909 5.21962 3.01195 5.19328 3.03339L5.19928 3.03351C5.2359 3.03351 5.26951 3.02065 5.29586 2.9992ZM4.48064 3.63326L4.47464 3.63315C4.43802 3.63315 4.4044 3.64601 4.37806 3.66745L4.38406 3.66757C4.42068 3.66757 4.45429 3.65471 4.48064 3.63326ZM4.44149 3.37255C4.42417 3.43809 4.36447 3.48641 4.29348 3.48641C4.27317 3.48641 4.25378 3.48245 4.23605 3.47527C4.25337 3.40973 4.31307 3.36141 4.38406 3.36141C4.40437 3.36141 4.42376 3.36536 4.44149 3.37255ZM4.35091 3.19139C4.33359 3.25693 4.27389 3.30525 4.2029 3.30525C4.18259 3.30525 4.1632 3.30129 4.14547 3.29411C4.16279 3.22857 4.22249 3.18025 4.29348 3.18025C4.31379 3.18025 4.33318 3.1842 4.35091 3.19139ZM4.23418 3.00229C4.24652 3.06173 4.29334 3.10855 4.35278 3.12089C4.34044 3.06145 4.29362 3.01463 4.23418 3.00229ZM4.53712 2.97342C4.466 2.96023 4.41214 2.89786 4.41214 2.82292L4.41216 2.8205C4.48328 2.8337 4.53714 2.89606 4.53714 2.97101L4.53712 2.97342ZM4.71603 2.84934C4.64602 2.83526 4.5933 2.77342 4.5933 2.69927C4.5933 2.69026 4.59408 2.68143 4.59557 2.67285C4.66557 2.68693 4.7183 2.74877 4.7183 2.82292C4.7183 2.83193 4.71752 2.84076 4.71603 2.84934ZM4.89183 2.74711C4.84166 2.72198 4.80721 2.67009 4.80721 2.61015C4.80721 2.59344 4.80988 2.57736 4.81483 2.56231C4.86501 2.58744 4.89946 2.63933 4.89946 2.69927C4.89946 2.71598 4.89678 2.73206 4.89183 2.74711ZM5.3506 2.5414C5.33014 2.51537 5.31794 2.48255 5.31794 2.44688C5.31794 2.43896 5.31854 2.43118 5.3197 2.42359C5.34015 2.44962 5.35236 2.48244 5.35236 2.51811C5.35236 2.52603 5.35175 2.5338 5.3506 2.5414ZM5.5903 2.35093C5.5931 2.38182 5.60507 2.41005 5.62347 2.43289C5.62067 2.40201 5.6087 2.37377 5.5903 2.35093ZM5.87138 2.41999C5.83731 2.39191 5.81559 2.34939 5.81559 2.3018C5.81559 2.27119 5.82457 2.24268 5.84005 2.21876C5.87412 2.24684 5.89583 2.28936 5.89583 2.33695C5.89583 2.36756 5.88685 2.39607 5.87138 2.41999ZM6.10565 2.37021C6.06742 2.34238 6.04257 2.29728 6.04257 2.24637C6.04257 2.22178 6.04837 2.19855 6.05867 2.17796C6.0969 2.20579 6.12175 2.2509 6.12175 2.3018C6.12175 2.32639 6.11595 2.34962 6.10565 2.37021ZM4.56522 2.851C4.58073 2.851 4.5933 2.83843 4.5933 2.82292C4.5933 2.80741 4.58073 2.79484 4.56522 2.79484C4.54971 2.79484 4.53714 2.80741 4.53714 2.82292C4.53714 2.83843 4.54971 2.851 4.56522 2.851ZM4.38406 2.99909C4.39957 2.99909 4.41214 2.98652 4.41214 2.97101C4.41214 2.9555 4.39957 2.94293 4.38406 2.94293C4.36855 2.94293 4.35598 2.9555 4.35598 2.97101C4.35598 2.98652 4.36855 2.99909 4.38406 2.99909ZM4.2029 3.18025C4.21841 3.18025 4.23098 3.16768 4.23098 3.15217C4.23098 3.13666 4.21841 3.12409 4.2029 3.12409C4.18739 3.12409 4.17482 3.13666 4.17482 3.15217C4.17482 3.16768 4.18739 3.18025 4.2029 3.18025ZM4.29348 3.36141C4.30899 3.36141 4.32156 3.34884 4.32156 3.33333C4.32156 3.31782 4.30899 3.30525 4.29348 3.30525C4.27797 3.30525 4.2654 3.31782 4.2654 3.33333C4.2654 3.34884 4.27797 3.36141 4.29348 3.36141ZM4.38406 3.54257C4.39957 3.54257 4.41214 3.53 4.41214 3.51449C4.41214 3.49898 4.39957 3.48641 4.38406 3.48641C4.36855 3.48641 4.35598 3.49898 4.35598 3.51449C4.35598 3.53 4.36855 3.54257 4.38406 3.54257ZM4.50272 3.78623C4.50272 3.80174 4.49015 3.81431 4.47464 3.81431C4.45913 3.81431 4.44656 3.80174 4.44656 3.78623C4.44656 3.77072 4.45913 3.75815 4.47464 3.75815C4.49015 3.75815 4.50272 3.77072 4.50272 3.78623ZM4.74638 2.72735C4.76189 2.72735 4.77446 2.71478 4.77446 2.69927C4.77446 2.68376 4.76189 2.67119 4.74638 2.67119C4.73087 2.67119 4.7183 2.68376 4.7183 2.69927C4.7183 2.71478 4.73087 2.72735 4.74638 2.72735ZM4.96029 2.63823C4.97579 2.63823 4.98837 2.62566 4.98837 2.61015C4.98837 2.59464 4.97579 2.58207 4.96029 2.58207C4.94478 2.58207 4.93221 2.59464 4.93221 2.61015C4.93221 2.62566 4.94478 2.63823 4.96029 2.63823ZM5.47102 2.47495C5.48652 2.47495 5.4991 2.46238 5.4991 2.44688C5.4991 2.43137 5.48652 2.4188 5.47102 2.4188C5.45551 2.4188 5.44294 2.43137 5.44294 2.44688C5.44294 2.46238 5.45551 2.47495 5.47102 2.47495ZM5.74275 2.36503C5.75826 2.36503 5.77083 2.35246 5.77083 2.33695C5.77083 2.32144 5.75826 2.30887 5.74275 2.30887C5.72725 2.30887 5.71468 2.32144 5.71468 2.33695C5.71468 2.35246 5.72725 2.36503 5.74275 2.36503ZM5.96867 2.32988C5.98418 2.32988 5.99675 2.31731 5.99675 2.3018C5.99675 2.28629 5.98418 2.27372 5.96867 2.27372C5.95316 2.27372 5.94059 2.28629 5.94059 2.3018C5.94059 2.31731 5.95316 2.32988 5.96867 2.32988ZM6.19565 2.27445C6.21116 2.27445 6.22373 2.26188 6.22373 2.24637C6.22373 2.23086 6.21116 2.21829 6.19565 2.21829C6.18015 2.21829 6.16757 2.23086 6.16757 2.24637C6.16757 2.26188 6.18015 2.27445 6.19565 2.27445ZM5.28986 3.18025C5.30536 3.18025 5.31794 3.16768 5.31794 3.15217C5.31794 3.13666 5.30536 3.12409 5.28986 3.12409C5.27435 3.12409 5.26178 3.13666 5.26178 3.15217C5.26178 3.16768 5.27435 3.18025 5.28986 3.18025ZM5.38044 3.36141C5.39594 3.36141 5.40852 3.34884 5.40852 3.33333C5.40852 3.31782 5.39594 3.30525 5.38044 3.30525C5.36493 3.30525 5.35236 3.31782 5.35236 3.33333C5.35236 3.34884 5.36493 3.36141 5.38044 3.36141ZM5.47102 3.54257C5.48652 3.54257 5.4991 3.53 5.4991 3.51449C5.4991 3.49898 5.48652 3.48641 5.47102 3.48641C5.45551 3.48641 5.44294 3.49898 5.44294 3.51449C5.44294 3.53 5.45551 3.54257 5.47102 3.54257ZM9.45652 3.81431C9.47203 3.81431 9.4846 3.80174 9.4846 3.78623C9.4846 3.77072 9.47203 3.75815 9.45652 3.75815C9.44101 3.75815 9.42844 3.77072 9.42844 3.78623C9.42844 3.80174 9.44101 3.81431 9.45652 3.81431ZM9.30344 3.78623C9.30344 3.87077 9.37198 3.93931 9.45652 3.93931C9.54107 3.93931 9.6096 3.87077 9.6096 3.78623C9.6096 3.7383 9.58758 3.69552 9.5531 3.66745C9.63486 3.6643 9.70018 3.59702 9.70018 3.51449C9.70018 3.50093 9.69842 3.48779 9.69511 3.47527C9.7512 3.45256 9.79076 3.39756 9.79076 3.33333C9.79076 3.31977 9.789 3.30663 9.78569 3.29411C9.84178 3.2714 9.88134 3.2164 9.88134 3.15217C9.88134 3.06763 9.81281 2.99909 9.72826 2.99909C9.71754 2.99909 9.70708 3.00019 9.69698 3.00229C9.69908 2.99219 9.70018 2.98173 9.70018 2.97101C9.70018 2.88647 9.63165 2.81793 9.5471 2.81793C9.5375 2.81793 9.52811 2.81881 9.519 2.8205C9.51771 2.73707 9.44968 2.66984 9.36594 2.66984C9.35555 2.66984 9.3454 2.67087 9.33559 2.67285C9.32307 2.6009 9.26032 2.54619 9.18478 2.54619C9.16018 2.54619 9.13693 2.552 9.11633 2.56231C9.09624 2.5012 9.03871 2.45707 8.97088 2.45707C8.93754 2.45707 8.90669 2.46773 8.88155 2.48582C8.86673 2.41678 8.80535 2.36503 8.73188 2.36503C8.68301 2.36503 8.63949 2.38793 8.61147 2.42359C8.60025 2.3501 8.53677 2.2938 8.46015 2.2938C8.41193 2.2938 8.36892 2.31609 8.34086 2.35093C8.34127 2.34633 8.34149 2.34166 8.34149 2.33695C8.34149 2.25241 8.27295 2.18387 8.18841 2.18387C8.15146 2.18387 8.11756 2.19696 8.09111 2.21876C8.06385 2.17662 8.01643 2.14872 7.96249 2.14872C7.92885 2.14872 7.89775 2.15957 7.87249 2.17796C7.84737 2.12776 7.79546 2.09329 7.73551 2.09329C7.65096 2.09329 7.58243 2.16183 7.58243 2.24637C7.58243 2.33092 7.65096 2.39945 7.73551 2.39945C7.76915 2.39945 7.80025 2.3886 7.82551 2.37021C7.85063 2.42041 7.90254 2.45488 7.96249 2.45488C7.99944 2.45488 8.03334 2.44179 8.05979 2.41999C8.08705 2.46214 8.13447 2.49003 8.18841 2.49003C8.23663 2.49003 8.27964 2.46774 8.3077 2.43289C8.30728 2.4375 8.30707 2.44216 8.30707 2.44688C8.30707 2.53142 8.3756 2.59995 8.46015 2.59995C8.50902 2.59995 8.55254 2.57705 8.58057 2.5414C8.58437 2.56631 8.59418 2.58925 8.60847 2.60869C8.58982 2.63405 8.57881 2.66538 8.57881 2.69927C8.57881 2.73316 8.58982 2.76449 8.60847 2.78985C8.58982 2.81521 8.57881 2.84654 8.57881 2.88043C8.57881 2.92835 8.60083 2.97114 8.63531 2.9992C8.55354 3.00236 8.48823 3.06963 8.48823 3.15217C8.48823 3.16573 8.48999 3.17887 8.4933 3.19139C8.43721 3.2141 8.39765 3.26909 8.39765 3.33333C8.39765 3.34688 8.39941 3.36003 8.40272 3.37255C8.34663 3.39526 8.30707 3.45025 8.30707 3.51449C8.30707 3.59903 8.3756 3.66757 8.46015 3.66757C8.54469 3.66757 8.61323 3.59903 8.61323 3.51449C8.61323 3.50093 8.61146 3.48779 8.60816 3.47527C8.66424 3.45256 8.70381 3.39756 8.70381 3.33333C8.70381 3.31977 8.70204 3.30663 8.69874 3.29411C8.75482 3.2714 8.79439 3.2164 8.79439 3.15217C8.79439 3.10424 8.77236 3.06146 8.73788 3.03339C8.81965 3.03024 8.88496 2.96296 8.88496 2.88043C8.88496 2.84654 8.87395 2.81521 8.8553 2.78985C8.86736 2.77345 8.87623 2.75455 8.88099 2.73408C8.90623 2.75241 8.93729 2.76323 8.97088 2.76323C8.99548 2.76323 9.01873 2.75743 9.03933 2.74711C9.05942 2.80822 9.11695 2.85235 9.18478 2.85235C9.19518 2.85235 9.20533 2.85131 9.21514 2.84934C9.22765 2.92129 9.29041 2.976 9.36594 2.976C9.37554 2.976 9.38493 2.97511 9.39404 2.97342C9.39533 3.05685 9.46337 3.12409 9.5471 3.12409C9.55782 3.12409 9.56828 3.12299 9.57838 3.12089C9.57628 3.13099 9.57518 3.14145 9.57518 3.15217C9.57518 3.16573 9.57694 3.17887 9.58025 3.19139C9.52417 3.2141 9.4846 3.26909 9.4846 3.33333C9.4846 3.34688 9.48636 3.36003 9.48967 3.37255C9.43359 3.39526 9.39402 3.45025 9.39402 3.51449C9.39402 3.56241 9.41605 3.60519 9.45052 3.63326C9.36876 3.63641 9.30344 3.70369 9.30344 3.78623ZM8.82121 2.64244C8.79607 2.66053 8.76522 2.67119 8.73188 2.67119C8.68124 2.67119 8.63633 2.64659 8.60847 2.60869C8.63633 2.57079 8.68124 2.54619 8.73188 2.54619C8.76547 2.54619 8.79653 2.55701 8.82177 2.57535C8.81917 2.58653 8.8178 2.59818 8.8178 2.61015C8.8178 2.62123 8.81897 2.63203 8.82121 2.64244ZM8.8553 2.60869C8.87395 2.63405 8.88496 2.66538 8.88496 2.69927C8.88496 2.71124 8.88359 2.72289 8.88099 2.73408C8.85102 2.7123 8.82926 2.67992 8.82121 2.64244C8.83426 2.63305 8.84578 2.62165 8.8553 2.60869ZM8.8553 2.60869C8.84591 2.59592 8.83459 2.58466 8.82177 2.57535C8.83029 2.5387 8.85197 2.50711 8.88155 2.48582C8.88379 2.49623 8.88496 2.50703 8.88496 2.51811C8.88496 2.55201 8.87395 2.58333 8.8553 2.60869ZM8.73188 2.54619C8.71638 2.54619 8.70381 2.53362 8.70381 2.51811C8.70381 2.5026 8.71638 2.49003 8.73188 2.49003C8.74739 2.49003 8.75996 2.5026 8.75996 2.51811C8.75996 2.53362 8.74739 2.54619 8.73188 2.54619ZM8.73188 2.85235C8.68124 2.85235 8.63633 2.82775 8.60847 2.78985C8.63633 2.75195 8.68124 2.72735 8.73188 2.72735C8.78253 2.72735 8.82744 2.75195 8.8553 2.78985C8.82744 2.82775 8.78253 2.85235 8.73188 2.85235ZM8.73188 2.85235C8.74739 2.85235 8.75996 2.86492 8.75996 2.88043C8.75996 2.89594 8.74739 2.90851 8.73188 2.90851C8.71638 2.90851 8.70381 2.89594 8.70381 2.88043C8.70381 2.86492 8.71638 2.85235 8.73188 2.85235ZM8.73188 2.72735C8.71638 2.72735 8.70381 2.71478 8.70381 2.69927C8.70381 2.68376 8.71638 2.67119 8.73188 2.67119C8.74739 2.67119 8.75996 2.68376 8.75996 2.69927C8.75996 2.71478 8.74739 2.72735 8.73188 2.72735ZM8.60816 3.47527C8.59084 3.40973 8.53113 3.36141 8.46015 3.36141C8.43984 3.36141 8.42045 3.36536 8.40272 3.37255C8.42004 3.43809 8.47974 3.48641 8.55073 3.48641C8.57104 3.48641 8.59042 3.48245 8.60816 3.47527ZM8.69874 3.29411C8.68142 3.22857 8.62171 3.18025 8.55073 3.18025C8.53042 3.18025 8.51103 3.1842 8.4933 3.19139C8.51062 3.25693 8.57032 3.30525 8.64131 3.30525C8.66162 3.30525 8.681 3.30129 8.69874 3.29411ZM8.73788 3.03339C8.71154 3.01195 8.67792 2.99909 8.64131 2.99909L8.63531 2.9992C8.66165 3.02065 8.69527 3.03351 8.73188 3.03351L8.73788 3.03339ZM7.82551 2.37021C7.86374 2.34238 7.88859 2.29728 7.88859 2.24637C7.88859 2.22178 7.88279 2.19855 7.87249 2.17796C7.83426 2.20579 7.80941 2.2509 7.80941 2.3018C7.80941 2.32639 7.81521 2.34962 7.82551 2.37021ZM8.05979 2.41999C8.09385 2.39191 8.11557 2.34939 8.11557 2.3018C8.11557 2.27119 8.10659 2.24268 8.09111 2.21876C8.05705 2.24684 8.03533 2.28936 8.03533 2.33695C8.03533 2.36756 8.04431 2.39607 8.05979 2.41999ZM8.34086 2.35093C8.33806 2.38182 8.32609 2.41005 8.3077 2.43289C8.31049 2.40201 8.32246 2.37378 8.34086 2.35093ZM8.58057 2.5414C8.60102 2.51537 8.61323 2.48255 8.61323 2.44688C8.61323 2.43896 8.61262 2.43118 8.61147 2.42359C8.59101 2.44962 8.57881 2.48244 8.57881 2.51811C8.57881 2.52603 8.57941 2.5338 8.58057 2.5414ZM9.03933 2.74711C9.08951 2.72198 9.12396 2.67009 9.12396 2.61015C9.12396 2.59344 9.12128 2.57736 9.11633 2.56231C9.06615 2.58744 9.0317 2.63933 9.0317 2.69927C9.0317 2.71598 9.03438 2.73206 9.03933 2.74711ZM9.21514 2.84934C9.28514 2.83526 9.33786 2.77342 9.33786 2.69927C9.33786 2.69026 9.33708 2.68143 9.33559 2.67285C9.26559 2.68693 9.21286 2.74877 9.21286 2.82292C9.21286 2.83193 9.21364 2.84076 9.21514 2.84934ZM9.57838 3.12089C9.63783 3.10855 9.68464 3.06173 9.69698 3.00229C9.63754 3.01463 9.59072 3.06145 9.57838 3.12089ZM9.519 2.8205L9.51902 2.82292C9.51902 2.89786 9.46517 2.96023 9.39404 2.97342L9.39402 2.97101C9.39402 2.89606 9.44788 2.8337 9.519 2.8205ZM9.58025 3.19139C9.59799 3.1842 9.61737 3.18025 9.63768 3.18025C9.70867 3.18025 9.76837 3.22857 9.78569 3.29411C9.76796 3.30129 9.74857 3.30525 9.72826 3.30525C9.65727 3.30525 9.59757 3.25693 9.58025 3.19139ZM9.48967 3.37255C9.50741 3.36536 9.52679 3.36141 9.5471 3.36141C9.61809 3.36141 9.67779 3.40973 9.69511 3.47527C9.67738 3.48245 9.65799 3.48641 9.63768 3.48641C9.56669 3.48641 9.50699 3.43809 9.48967 3.37255ZM9.5471 3.66757C9.51048 3.66757 9.47687 3.65471 9.45052 3.63326L9.45652 3.63315C9.49314 3.63315 9.52676 3.64601 9.5531 3.66745L9.5471 3.66757ZM9.5471 3.54257C9.56261 3.54257 9.57518 3.53 9.57518 3.51449C9.57518 3.49898 9.56261 3.48641 9.5471 3.48641C9.53159 3.48641 9.51902 3.49898 9.51902 3.51449C9.51902 3.53 9.53159 3.54257 9.5471 3.54257ZM9.63768 3.36141C9.65319 3.36141 9.66576 3.34884 9.66576 3.33333C9.66576 3.31782 9.65319 3.30525 9.63768 3.30525C9.62217 3.30525 9.6096 3.31782 9.6096 3.33333C9.6096 3.34884 9.62217 3.36141 9.63768 3.36141ZM9.72826 3.18025C9.74377 3.18025 9.75634 3.16768 9.75634 3.15217C9.75634 3.13666 9.74377 3.12409 9.72826 3.12409C9.71275 3.12409 9.70018 3.13666 9.70018 3.15217C9.70018 3.16768 9.71275 3.18025 9.72826 3.18025ZM9.5471 2.99909C9.56261 2.99909 9.57518 2.98652 9.57518 2.97101C9.57518 2.9555 9.56261 2.94293 9.5471 2.94293C9.53159 2.94293 9.51902 2.9555 9.51902 2.97101C9.51902 2.98652 9.53159 2.99909 9.5471 2.99909ZM9.36594 2.851C9.38145 2.851 9.39402 2.83843 9.39402 2.82292C9.39402 2.80741 9.38145 2.79484 9.36594 2.79484C9.35044 2.79484 9.33786 2.80741 9.33786 2.82292C9.33786 2.83843 9.35044 2.851 9.36594 2.851ZM9.18478 2.72735C9.20029 2.72735 9.21286 2.71478 9.21286 2.69927C9.21286 2.68376 9.20029 2.67119 9.18478 2.67119C9.16928 2.67119 9.1567 2.68376 9.1567 2.69927C9.1567 2.71478 9.16928 2.72735 9.18478 2.72735ZM8.97088 2.63823C8.98638 2.63823 8.99896 2.62566 8.99896 2.61015C8.99896 2.59464 8.98638 2.58207 8.97088 2.58207C8.95537 2.58207 8.9428 2.59464 8.9428 2.61015C8.9428 2.62566 8.95537 2.63823 8.97088 2.63823ZM8.46015 2.47495C8.47565 2.47495 8.48823 2.46238 8.48823 2.44688C8.48823 2.43137 8.47565 2.4188 8.46015 2.4188C8.44464 2.4188 8.43207 2.43137 8.43207 2.44688C8.43207 2.46238 8.44464 2.47495 8.46015 2.47495ZM8.18841 2.36503C8.20391 2.36503 8.21649 2.35246 8.21649 2.33695C8.21649 2.32144 8.20391 2.30887 8.18841 2.30887C8.1729 2.30887 8.16033 2.32144 8.16033 2.33695C8.16033 2.35246 8.1729 2.36503 8.18841 2.36503ZM7.96249 2.32988C7.978 2.32988 7.99057 2.31731 7.99057 2.3018C7.99057 2.28629 7.978 2.27372 7.96249 2.27372C7.94698 2.27372 7.93441 2.28629 7.93441 2.3018C7.93441 2.31731 7.94698 2.32988 7.96249 2.32988ZM7.73551 2.27445C7.75102 2.27445 7.76359 2.26188 7.76359 2.24637C7.76359 2.23086 7.75102 2.21829 7.73551 2.21829C7.72 2.21829 7.70743 2.23086 7.70743 2.24637C7.70743 2.26188 7.72 2.27445 7.73551 2.27445ZM8.64131 3.18025C8.65681 3.18025 8.66939 3.16768 8.66939 3.15217C8.66939 3.13666 8.65681 3.12409 8.64131 3.12409C8.6258 3.12409 8.61323 3.13666 8.61323 3.15217C8.61323 3.16768 8.6258 3.18025 8.64131 3.18025ZM8.55073 3.36141C8.56623 3.36141 8.57881 3.34884 8.57881 3.33333C8.57881 3.31782 8.56623 3.30525 8.55073 3.30525C8.53522 3.30525 8.52265 3.31782 8.52265 3.33333C8.52265 3.34884 8.53522 3.36141 8.55073 3.36141ZM8.46015 3.54257C8.47565 3.54257 8.48823 3.53 8.48823 3.51449C8.48823 3.49898 8.47565 3.48641 8.46015 3.48641C8.44464 3.48641 8.43207 3.49898 8.43207 3.51449C8.43207 3.53 8.44464 3.54257 8.46015 3.54257Z" fill="white"/>
<path fill-rule="evenodd" clip-rule="evenodd" d="M6.93852 1.34632L6.80425 1.34852L6.80448 1.56922L6.55665 1.56908L6.5596 1.70307L6.80462 1.7032L6.80488 1.95475L6.93915 1.95255L6.93889 1.70328L7.1827 1.70342L7.17975 1.56943L6.93875 1.5693L6.93852 1.34632Z" fill="#F6C540"/>
<path fill-rule="evenodd" clip-rule="evenodd" d="M3.61546 5.45886H10.1155V10.9798C10.1155 10.9798 9.9189 13.7298 6.86546 13.7298C3.81203 13.7298 3.61546 10.9798 3.61546 10.9798V5.45886Z" fill="#C51918"/>
<path fill-rule="evenodd" clip-rule="evenodd" d="M5.57726 5.64993C5.51765 5.64993 5.4259 5.69274 5.30428 5.74121C5.18266 5.78969 5.05494 5.89434 5.17961 5.99917C5.30428 6.10399 5.48276 6.33406 5.48276 6.24804C5.48276 6.16202 5.69596 6.07862 5.69596 6.12032C5.69596 6.16202 5.62995 6.24804 5.8031 6.24804C5.97624 6.24804 6.06544 6.2992 5.8807 6.2992C5.69596 6.2992 5.67589 6.38371 5.55582 6.38371C5.43576 6.38371 5.17961 6.29856 5.17961 6.24804C5.17961 6.19752 5.32795 6.49641 5.48276 6.49641C5.63756 6.49641 5.72549 6.64183 5.8031 6.56912C5.8807 6.49641 5.87152 6.49641 5.99689 6.49641C6.12226 6.49641 6.07651 6.20275 6.07651 6.20275C6.07651 6.20275 5.63686 5.64993 5.57726 5.64993Z" fill="#E8AA00"/>
<path fill-rule="evenodd" clip-rule="evenodd" d="M8.08566 5.64993C8.14526 5.64993 8.23701 5.69274 8.35863 5.74121C8.48025 5.78969 8.60797 5.89434 8.4833 5.99917C8.35863 6.10399 8.18016 6.33406 8.18016 6.24804C8.18016 6.16202 7.96696 6.07862 7.96696 6.12032C7.96696 6.16202 8.03296 6.24804 7.85982 6.24804C7.68668 6.24804 7.59747 6.2992 7.78222 6.2992C7.96696 6.2992 7.98703 6.38371 8.1071 6.38371C8.22716 6.38371 8.4833 6.29856 8.4833 6.24804C8.4833 6.19752 8.33497 6.49641 8.18016 6.49641C8.02535 6.49641 7.93742 6.64183 7.85982 6.56912C7.78222 6.49641 7.7914 6.49641 7.66603 6.49641C7.54065 6.49641 7.58641 6.20275 7.58641 6.20275C7.58641 6.20275 8.02606 5.64993 8.08566 5.64993Z" fill="#E8AA00"/>
<path fill-rule="evenodd" clip-rule="evenodd" d="M8.88245 6.25014C9.00705 6.54071 8.0521 7.62014 8.0521 7.62014H7.94517C7.90024 7.62014 7.81667 7.50958 7.71576 7.37608C7.6466 7.28459 7.5693 7.18232 7.49071 7.09749C7.34287 6.93791 7.42122 6.80384 7.49426 6.67887C7.5167 6.64048 7.53864 6.60295 7.55336 6.56579C7.58526 6.48531 7.5898 6.45321 7.59498 6.41652C7.59998 6.38114 7.60558 6.34151 7.6369 6.25014C7.68292 6.11586 7.84338 5.9426 7.95464 5.82247C7.9976 5.77608 8.03323 5.73761 8.0521 5.71237C8.11167 5.63268 8.06647 5.63314 7.94213 5.63441C7.92507 5.63459 7.90652 5.63477 7.88654 5.63477C7.72098 5.63477 7.40472 5.71237 7.31019 5.80299C7.21566 5.89361 7.11653 5.91294 6.97088 5.91294C6.82522 5.91294 6.91506 6.01103 7.04771 6.07727C6.90488 6.10458 6.81332 6.34266 6.75953 6.55405C6.73018 6.34266 6.66544 6.10458 6.52261 6.07727C6.65526 6.01103 6.7451 5.91294 6.59945 5.91294C6.45379 5.91294 6.35467 5.89361 6.26013 5.80299C6.1656 5.71237 5.84934 5.63477 5.68378 5.63477C5.66381 5.63477 5.64526 5.63459 5.6282 5.63441C5.50385 5.63314 5.45866 5.63268 5.51822 5.71237C5.53709 5.73761 5.57272 5.77608 5.61568 5.82247C5.72694 5.9426 5.8874 6.11586 5.93342 6.25014C5.96474 6.34151 5.97034 6.38114 5.97534 6.41652C5.98053 6.45321 5.98507 6.48531 6.01696 6.56579C6.03169 6.60295 6.05362 6.64048 6.07606 6.67887C6.1491 6.80384 6.22746 6.93791 6.07961 7.09749C6.00103 7.18232 5.92372 7.28459 5.85457 7.37608C5.75366 7.50958 5.67008 7.62014 5.62515 7.62014H5.51822C5.51822 7.62014 4.56327 6.54071 4.68787 6.25014C4.73603 6.13782 4.81372 6.03199 4.878 5.94441C4.98003 5.8054 5.04832 5.71237 4.91127 5.71237C4.68787 5.71237 3.79733 6.27705 3.79733 7.55032C3.79733 8.82359 3.87959 9.54774 4.07054 10.0551C4.20085 10.4013 4.08149 10.7375 3.99254 10.9881C3.95114 11.1047 3.91633 11.2028 3.91633 11.2746C3.91633 11.501 4.26696 11.3027 4.26696 11.1609C4.26696 11.0935 4.31497 11.1939 4.36532 11.2992C4.42084 11.4153 4.47921 11.5374 4.47921 11.447C4.47921 11.3506 4.53511 11.2487 4.58436 11.159C4.62313 11.0884 4.65778 11.0252 4.65778 10.9782C4.65778 10.9311 4.70696 10.9329 4.762 10.9348C4.83192 10.9373 4.91127 10.9401 4.91127 10.8437C4.91127 10.7786 4.93652 10.7657 4.96795 10.7495C5.01979 10.7228 5.08845 10.6875 5.08845 10.3957C5.08845 10.1795 5.13174 10.2561 5.1814 10.344C5.2271 10.4249 5.2782 10.5153 5.3059 10.3957C5.3086 10.3841 5.33728 10.334 5.37274 10.272C5.42436 10.1818 5.49032 10.0665 5.51142 10.0083C5.44637 10.2629 5.29031 10.5283 5.1912 10.6547C5.08845 10.7858 4.91127 11.0703 4.91127 11.0703C4.91127 11.0703 5.07651 11.1625 5.1912 11.0703C5.25527 11.0189 5.25959 11.0673 5.2643 11.1201C5.26803 11.1618 5.272 11.2062 5.3059 11.2062C5.32718 11.2062 5.34722 11.2097 5.36507 11.2128C5.37827 11.2151 5.39028 11.2172 5.4007 11.2175C5.36241 11.315 5.32807 11.471 5.44326 11.3668C5.52552 11.2924 5.5832 11.2622 5.62141 11.2422C5.66563 11.219 5.68378 11.2095 5.68378 11.1609C5.68378 11.1124 5.70175 11.1288 5.7299 11.1546C5.75433 11.1769 5.78642 11.2062 5.82109 11.2062C5.86576 11.2062 5.87507 11.144 5.88859 11.0535C5.89766 10.9929 5.90863 10.9195 5.93342 10.8437C5.9392 10.826 5.94463 10.809 5.94977 10.7929C5.99965 10.6368 6.02291 10.564 6.07961 10.761C6.10612 10.853 6.15292 10.9181 6.19368 10.9749C6.24914 11.0521 6.2934 11.1137 6.26013 11.2062C6.24711 11.2425 6.23077 11.2834 6.21327 11.3272C6.15324 11.4776 6.07961 11.6621 6.07961 11.8073C6.07961 11.8936 6.00101 12.0113 5.92715 12.1219C5.84056 12.2516 5.76047 12.3715 5.82109 12.4198C5.93342 12.5093 5.79749 12.8107 5.68378 12.9654C5.57007 13.12 5.58888 13.3088 5.76115 13.3088C5.85543 13.3088 5.90659 13.343 5.95291 13.374C5.99123 13.3996 6.02624 13.423 6.07961 13.423C6.19751 13.423 6.26013 13.3649 6.26013 13.3649C6.26013 13.3649 6.33291 13.4749 6.45379 13.4749C6.57467 13.4749 6.59945 13.3649 6.59945 13.3649L6.68895 13.4749L6.69589 12.9932V13.4749L6.97088 13.3649C6.97088 13.3649 6.99565 13.4749 7.11653 13.4749C7.23741 13.4749 7.31019 13.3649 7.31019 13.3649C7.31019 13.3649 7.37281 13.423 7.49071 13.423C7.54408 13.423 7.5791 13.3996 7.61742 13.374C7.66374 13.343 7.71489 13.3088 7.80917 13.3088C7.98144 13.3088 8.00025 13.12 7.88654 12.9654C7.77283 12.8107 7.6369 12.5093 7.74923 12.4198C7.80985 12.3715 7.72976 12.2516 7.64318 12.1219C7.56931 12.0113 7.49071 11.8936 7.49071 11.8073C7.49071 11.6621 7.41708 11.4776 7.35705 11.3272C7.33955 11.2834 7.32322 11.2425 7.31019 11.2062C7.27692 11.1137 7.32119 11.0521 7.37664 10.9749C7.4174 10.9181 7.46421 10.853 7.49071 10.761C7.54741 10.564 7.57068 10.6368 7.62055 10.7929C7.6257 10.809 7.63112 10.826 7.6369 10.8437C7.66169 10.9195 7.67266 10.9929 7.68173 11.0535C7.69526 11.144 7.70456 11.2062 7.74923 11.2062C7.7839 11.2062 7.816 11.1769 7.84042 11.1546C7.86857 11.1288 7.88654 11.1124 7.88654 11.1609C7.88654 11.2095 7.90469 11.219 7.94891 11.2422C7.98712 11.2622 8.0448 11.2924 8.12706 11.3668C8.24225 11.471 8.20791 11.315 8.16962 11.2175C8.18004 11.2172 8.19205 11.2151 8.20525 11.2128C8.2231 11.2097 8.24314 11.2062 8.26443 11.2062C8.29832 11.2062 8.30229 11.1618 8.30602 11.1201C8.31073 11.0673 8.31506 11.0189 8.37912 11.0703C8.49381 11.1625 8.65905 11.0703 8.65905 11.0703C8.65905 11.0703 8.48187 10.7858 8.37912 10.6547C8.28002 10.5283 8.12395 10.2629 8.05891 10.0083C8.08 10.0665 8.14597 10.1818 8.19758 10.272C8.23304 10.334 8.26173 10.3841 8.26443 10.3957C8.29213 10.5153 8.34322 10.4249 8.38892 10.344C8.43858 10.2561 8.48187 10.1795 8.48187 10.3957C8.48187 10.6875 8.55053 10.7228 8.60237 10.7495C8.6338 10.7657 8.65905 10.7786 8.65905 10.8437C8.65905 10.9401 8.73841 10.9373 8.80832 10.9348C8.86336 10.9329 8.91254 10.9311 8.91254 10.9782C8.91254 11.0252 8.94719 11.0884 8.98596 11.159C9.03521 11.2487 9.09111 11.3506 9.09111 11.447C9.09111 11.5374 9.14948 11.4153 9.205 11.2992C9.25535 11.1939 9.30337 11.0935 9.30337 11.1609C9.30337 11.3027 9.65399 11.501 9.65399 11.2746C9.65399 11.2028 9.61918 11.1047 9.57778 10.9881C9.48883 10.7375 9.36947 10.4013 9.49978 10.0551C9.69073 9.54774 9.77299 8.82359 9.77299 7.55032C9.77299 6.27705 8.88245 5.71237 8.65905 5.71237C8.522 5.71237 8.59029 5.8054 8.69232 5.94441C8.75661 6.03199 8.83429 6.13782 8.88245 6.25014ZM8.0521 9.98019C8.05424 9.98953 8.05651 9.99889 8.05891 10.0083C8.05454 9.99623 8.0521 9.98662 8.0521 9.98019ZM8.12706 11.1609C8.12706 11.1291 8.14892 11.1648 8.16962 11.2175C8.1433 11.2183 8.12706 11.2078 8.12706 11.1609ZM5.4007 11.2175C5.42702 11.2183 5.44326 11.2078 5.44326 11.1609C5.44326 11.1291 5.4214 11.1648 5.4007 11.2175ZM5.51142 10.0083C5.51578 9.99623 5.51822 9.98662 5.51822 9.98019C5.51608 9.98953 5.51381 9.99889 5.51142 10.0083Z" fill="#F7FCFF"/>
<path fill-rule="evenodd" clip-rule="evenodd" d="M5.11795 12.0012C5.11795 11.9134 5.34265 11.7097 5.34265 11.7097V11.727C5.37418 11.7525 5.575 11.918 5.575 11.999C5.575 12.0492 5.549 12.122 5.52674 12.1844C5.51008 12.231 5.49552 12.2718 5.49552 12.2928C5.49552 12.307 5.5014 12.2968 5.51259 12.2775C5.54033 12.2296 5.60067 12.1255 5.68495 12.1951C5.7966 12.2873 5.79592 12.4233 5.79549 12.5096C5.79547 12.5147 5.79544 12.5197 5.79544 12.5244C5.79544 12.5513 5.79539 12.5511 5.79181 12.5383C5.78411 12.5107 5.76005 12.4247 5.68495 12.4247C5.575 12.4247 5.49552 12.5244 5.49552 12.5244V12.6944C5.49552 12.6944 5.50946 12.8348 5.575 12.7646C5.64054 12.6944 5.65448 12.8513 5.575 12.8513C5.53443 12.8513 5.49269 12.8943 5.45183 12.9365C5.41266 12.9769 5.37428 13.0165 5.33851 13.0165V13.0024C5.30462 12.9997 5.2767 12.9649 5.24822 12.9293C5.21731 12.8907 5.18575 12.8513 5.14517 12.8513C5.06569 12.8513 5.07964 12.6944 5.14517 12.7646C5.21071 12.8348 5.22465 12.6944 5.22465 12.6944V12.5244C5.22465 12.5244 5.14517 12.4247 5.03522 12.4247C4.96012 12.4247 4.93607 12.5107 4.92836 12.5383C4.92478 12.5511 4.92473 12.5513 4.92473 12.5244C4.92473 12.5197 4.9247 12.5147 4.92468 12.5096C4.92425 12.4233 4.92357 12.2873 5.03522 12.1951C5.1195 12.1255 5.17984 12.2296 5.20758 12.2775C5.21877 12.2968 5.22465 12.307 5.22465 12.2928C5.22465 12.2718 5.20511 12.2314 5.18274 12.1853C5.15286 12.1236 5.11795 12.0515 5.11795 12.0012Z" fill="#E8AA00"/>
<path fill-rule="evenodd" clip-rule="evenodd" d="M8.10708 12.0012C8.10708 11.9134 8.33179 11.7097 8.33179 11.7097V11.727C8.36331 11.7525 8.56414 11.918 8.56414 11.999C8.56414 12.0492 8.53813 12.122 8.51587 12.1844C8.49922 12.231 8.48465 12.2718 8.48465 12.2928C8.48465 12.307 8.49054 12.2968 8.50173 12.2775C8.52946 12.2296 8.58981 12.1255 8.67409 12.1951C8.78574 12.2873 8.78506 12.4233 8.78463 12.5096C8.7846 12.5147 8.78458 12.5197 8.78458 12.5244C8.78458 12.5513 8.78453 12.5511 8.78095 12.5383C8.77324 12.5107 8.74918 12.4247 8.67409 12.4247C8.56414 12.4247 8.48465 12.5244 8.48465 12.5244V12.6944C8.48465 12.6944 8.4986 12.8348 8.56414 12.7646C8.62967 12.6944 8.64362 12.8513 8.56414 12.8513C8.52356 12.8513 8.48183 12.8943 8.44097 12.9365C8.40179 12.9769 8.36342 13.0165 8.32765 13.0165V13.0024C8.29376 12.9997 8.26584 12.9649 8.23736 12.9293C8.20645 12.8907 8.17488 12.8513 8.13431 12.8513C8.05483 12.8513 8.06877 12.6944 8.13431 12.7646C8.19984 12.8348 8.21379 12.6944 8.21379 12.6944V12.5244C8.21379 12.5244 8.13431 12.4247 8.02435 12.4247C7.94926 12.4247 7.9252 12.5107 7.91749 12.5383C7.91392 12.5511 7.91386 12.5513 7.91386 12.5244C7.91386 12.5197 7.91384 12.5147 7.91381 12.5096C7.91338 12.4233 7.91271 12.2873 8.02435 12.1951C8.10864 12.1255 8.16898 12.2296 8.19671 12.2775C8.20791 12.2968 8.21379 12.307 8.21379 12.2928C8.21379 12.2718 8.19424 12.2314 8.17188 12.1853C8.14199 12.1236 8.10708 12.0515 8.10708 12.0012Z" fill="#E8AA00"/>
<path fill-rule="evenodd" clip-rule="evenodd" d="M4.89417 11.4746C5.09446 11.4746 5.13496 11.0936 5.13496 11.0936C5.13496 11.0936 5.30301 10.9195 5.30301 11.0479C5.30301 11.1164 5.25523 11.2027 5.21889 11.2683C5.18707 11.3258 5.16402 11.3674 5.18947 11.3674H5.46683C5.69552 11.3674 5.42667 11.4746 5.30301 11.5224C5.24691 11.544 5.20712 11.5554 5.16896 11.5662C5.12299 11.5793 5.07938 11.5917 5.01243 11.6208C4.88991 11.6739 4.83735 12.0234 4.89417 12.1356C4.95099 12.2479 4.83735 12.2005 4.79038 12.1356C4.76429 12.0996 4.74524 12.1492 4.71868 12.2184C4.69743 12.2738 4.67137 12.3416 4.63304 12.3882C4.559 12.4783 4.5598 12.3987 4.56151 12.2275C4.56179 12.1992 4.56209 12.1685 4.56209 12.1356C4.56209 11.9839 4.59238 11.9825 4.63744 11.9805C4.66134 11.9794 4.68939 11.9782 4.71928 11.9542C4.78384 11.9023 4.79159 11.8757 4.8111 11.8085C4.81765 11.786 4.82554 11.7589 4.83735 11.7247C4.88431 11.5887 4.63304 11.8036 4.56209 11.9054C4.5189 11.9674 4.48881 11.9741 4.4438 11.9842C4.41489 11.9907 4.37983 11.9986 4.33119 12.0234C4.25213 12.0637 4.27359 11.9845 4.29971 11.8881C4.31468 11.8329 4.33119 11.772 4.33119 11.7247C4.33119 11.6431 4.38029 11.664 4.44322 11.6908C4.48044 11.7067 4.5225 11.7247 4.56209 11.7247C4.66328 11.7247 4.71553 11.6819 4.78004 11.6292C4.78345 11.6264 4.78689 11.6236 4.79038 11.6208C4.84214 11.5786 4.7294 11.5913 4.59514 11.6065C4.54923 11.6116 4.50079 11.6171 4.45556 11.6208C4.35232 11.6291 4.34543 11.6229 4.31965 11.5997C4.30111 11.583 4.27281 11.5575 4.19191 11.5224C3.99848 11.4383 4.31624 11.4746 4.45556 11.5224C4.53303 11.5489 4.59803 11.5312 4.67492 11.5102C4.7363 11.4934 4.80525 11.4746 4.89417 11.4746ZM8.77848 11.4746C8.57818 11.4746 8.53769 11.0936 8.53769 11.0936C8.53769 11.0936 8.36964 10.9195 8.36964 11.0479C8.36964 11.1164 8.41742 11.2027 8.45376 11.2683C8.48557 11.3258 8.50862 11.3674 8.48318 11.3674H8.20581C7.97712 11.3674 8.24597 11.4746 8.36964 11.5224C8.42574 11.544 8.46552 11.5554 8.50369 11.5662C8.54965 11.5793 8.59327 11.5917 8.66021 11.6208C8.78274 11.6739 8.8353 12.0234 8.77848 12.1356C8.72166 12.2479 8.8353 12.2005 8.88226 12.1356C8.90836 12.0996 8.9274 12.1492 8.95397 12.2184C8.97522 12.2738 9.00128 12.3416 9.03961 12.3882C9.11364 12.4783 9.11285 12.3987 9.11114 12.2275C9.11086 12.1992 9.11055 12.1685 9.11055 12.1356C9.11055 11.9839 9.08026 11.9825 9.03521 11.9805C9.01131 11.9794 8.98326 11.9782 8.95336 11.9542C8.88881 11.9023 8.88106 11.8757 8.86155 11.8085C8.85499 11.786 8.84711 11.7589 8.8353 11.7247C8.78833 11.5887 9.03961 11.8036 9.11055 11.9054C9.15375 11.9674 9.18384 11.9741 9.22885 11.9842C9.25775 11.9907 9.29281 11.9986 9.34145 12.0234C9.42051 12.0637 9.39906 11.9845 9.37293 11.8881C9.35796 11.8329 9.34145 11.772 9.34145 11.7247C9.34145 11.6431 9.29235 11.664 9.22943 11.6908C9.19221 11.7067 9.15015 11.7247 9.11055 11.7247C9.00937 11.7247 8.95711 11.6819 8.89261 11.6292C8.8892 11.6264 8.88575 11.6236 8.88226 11.6208C8.83051 11.5786 8.94325 11.5913 9.0775 11.6065C9.12342 11.6116 9.17185 11.6171 9.21709 11.6208C9.32033 11.6291 9.32722 11.6229 9.353 11.5997C9.37153 11.583 9.39983 11.5575 9.48074 11.5224C9.67416 11.4383 9.3564 11.4746 9.21709 11.5224C9.13962 11.5489 9.07461 11.5312 8.99773 11.5102C8.93635 11.4934 8.8674 11.4746 8.77848 11.4746Z" fill="#E8AA00"/>
<path fill-rule="evenodd" clip-rule="evenodd" d="M5.65437 7.71326H8.07657V9.92221C8.07657 9.92221 7.81654 11.0225 6.86547 11.0225C5.9144 11.0225 5.65437 9.92221 5.65437 9.92221V7.71326Z" fill="#C51918"/>
<path fill-rule="evenodd" clip-rule="evenodd" d="M7.19203 7.68118H6.55797V8.9493H5.65218V9.4022H6.55797V11.0326H7.19203V9.4022H8.09783V8.9493H7.19203V7.68118Z" fill="#F7FCFF"/>
<path fill-rule="evenodd" clip-rule="evenodd" d="M6.06302 8.31804C6.12381 8.31804 6.15282 8.26676 6.12066 8.22161C6.10376 8.19787 6.06873 8.191 6.04243 8.20625C6.04007 8.20762 6.03786 8.20912 6.0358 8.21074C6.02612 8.20831 6.01428 8.20502 6.00064 8.20085C5.9884 8.1971 5.9751 8.19725 5.96296 8.20126C5.94826 8.20613 5.93991 8.19107 5.947 8.09737C5.95377 8.07125 5.98959 8.05509 6.07304 8.05509C6.22552 8.05509 6.28816 8.0714 6.28816 8.08574V8.30981L6.21417 8.37659C6.1785 8.40877 6.20376 8.4638 6.2542 8.4638H6.28816V8.63537C6.24164 8.67164 6.20005 8.6886 6.16362 8.6886C6.02722 8.6886 5.95058 8.63777 5.94847 8.57772C5.94905 8.56012 5.94984 8.54713 5.95042 8.5383L5.96217 8.54215C5.97465 8.54648 5.98843 8.54667 6.00106 8.54271L6.00625 8.541C6.01113 8.53935 6.01396 8.5384 6.01554 8.5394C6.01774 8.5408 6.01752 8.54597 6.01702 8.55832L6.01644 8.57509C6.01576 8.60329 6.04054 8.62666 6.0718 8.62728C6.10306 8.62789 6.12896 8.60552 6.12964 8.57731C6.13203 8.47835 6.07652 8.42145 5.98438 8.4408C5.93001 8.42451 5.89198 8.4264 5.86231 8.45993C5.84052 8.48455 5.8376 8.50477 5.83529 8.57774C5.83949 8.70311 5.97167 8.79077 6.16362 8.79077C6.23761 8.79077 6.31092 8.7577 6.38385 8.69491C6.39505 8.68527 6.40139 8.67191 6.40139 8.65794V8.41271C6.40139 8.39619 6.39269 8.38149 6.3792 8.37215L6.38481 8.3671C6.39542 8.35752 6.40139 8.34452 6.40139 8.33097V8.08574C6.40139 7.98104 6.29339 7.95291 6.07304 7.95291C5.94318 7.95291 5.85822 7.99124 5.83542 8.08193C5.82258 8.23685 5.86848 8.32928 5.98195 8.30286C6.01706 8.31293 6.04304 8.31804 6.06302 8.31804ZM7.65391 8.22161C7.62175 8.26676 7.65076 8.31804 7.71156 8.31804C7.73153 8.31804 7.75752 8.31293 7.79262 8.30286C7.90609 8.32928 7.952 8.23685 7.93915 8.08193C7.91635 7.99124 7.83139 7.95291 7.70153 7.95291C7.48119 7.95291 7.37318 7.98104 7.37318 8.08574V8.33097C7.37318 8.34452 7.37915 8.35752 7.38976 8.3671L7.39537 8.37215C7.38188 8.38149 7.37318 8.39619 7.37318 8.41271V8.65794C7.37318 8.67191 7.37952 8.68527 7.39072 8.69491C7.46365 8.7577 7.53696 8.79077 7.61096 8.79077C7.8029 8.79077 7.93509 8.70311 7.93928 8.57774C7.93697 8.50477 7.93405 8.48455 7.91226 8.45993C7.88259 8.4264 7.84456 8.42451 7.79019 8.4408C7.69805 8.42145 7.64254 8.47835 7.64494 8.57731C7.64562 8.60552 7.67151 8.62789 7.70277 8.62728C7.73403 8.62666 7.75882 8.60329 7.75813 8.57509L7.75756 8.55832V8.55832C7.75705 8.54597 7.75684 8.5408 7.75903 8.5394C7.76061 8.5384 7.76345 8.53935 7.76833 8.541L7.77352 8.54271C7.78614 8.54667 7.79992 8.54648 7.8124 8.54215L7.82415 8.5383C7.82473 8.54713 7.82553 8.56012 7.82611 8.57772C7.824 8.63777 7.74736 8.6886 7.61096 8.6886C7.57452 8.6886 7.53294 8.67164 7.48641 8.63537V8.4638H7.52038C7.57081 8.4638 7.59607 8.40877 7.56041 8.37659L7.48641 8.30981V8.08574C7.48641 8.0714 7.54905 8.05509 7.70153 8.05509C7.78498 8.05509 7.8208 8.07125 7.82757 8.09737C7.83466 8.19107 7.82631 8.20613 7.81161 8.20126C7.79947 8.19725 7.78618 8.1971 7.77393 8.20085C7.76029 8.20502 7.74845 8.20831 7.73877 8.21074C7.73672 8.20912 7.73451 8.20762 7.73214 8.20625C7.70584 8.191 7.67082 8.19787 7.65391 8.22161ZM7.84469 8.53374L7.84227 8.53365L7.84389 8.5338L7.84469 8.53374ZM7.71156 9.94847C7.65076 9.94847 7.62175 9.89719 7.65391 9.85204C7.67082 9.8283 7.70584 9.82143 7.73214 9.83669C7.73451 9.83806 7.73672 9.83956 7.73877 9.84117C7.74845 9.83875 7.76029 9.83546 7.77393 9.83128C7.78618 9.82753 7.79947 9.82768 7.81161 9.8317C7.82631 9.83657 7.83466 9.8215 7.82757 9.72781C7.8208 9.70169 7.78498 9.68552 7.70153 9.68552C7.54905 9.68552 7.48641 9.70184 7.48641 9.71618V9.94024L7.56041 10.007C7.59607 10.0392 7.57081 10.0942 7.52038 10.0942H7.48641V10.2658C7.53294 10.3021 7.57452 10.319 7.61096 10.319C7.74736 10.319 7.824 10.2682 7.82611 10.2082C7.82553 10.1906 7.82473 10.1776 7.82415 10.1687L7.8124 10.1726C7.79992 10.1769 7.78614 10.1771 7.77352 10.1731L7.76833 10.1714L7.76832 10.1714C7.76345 10.1698 7.76061 10.1688 7.75903 10.1698C7.75684 10.1712 7.75705 10.1764 7.75756 10.1888L7.75813 10.2055C7.75882 10.2337 7.73403 10.2571 7.70277 10.2577C7.67151 10.2583 7.64562 10.236 7.64494 10.2077C7.64254 10.1088 7.69805 10.0519 7.79019 10.0712C7.84456 10.0549 7.88259 10.0568 7.91226 10.0904C7.93405 10.115 7.93697 10.1352 7.93928 10.2082C7.93509 10.3335 7.8029 10.4212 7.61096 10.4212C7.53696 10.4212 7.46365 10.3881 7.39072 10.3253C7.37952 10.3157 7.37318 10.3023 7.37318 10.2884V10.0431C7.37318 10.0266 7.38188 10.0119 7.39537 10.0026L7.38976 9.99753C7.37915 9.98795 7.37318 9.97496 7.37318 9.96141V9.71618C7.37318 9.61147 7.48119 9.58335 7.70153 9.58335C7.83139 9.58335 7.91635 9.62168 7.93915 9.71237C7.952 9.86729 7.90609 9.95971 7.79262 9.93329C7.75752 9.94337 7.73153 9.94847 7.71156 9.94847ZM6.06302 9.94847C6.12381 9.94847 6.15282 9.89719 6.12066 9.85204C6.10376 9.8283 6.06873 9.82143 6.04243 9.83669C6.04007 9.83806 6.03786 9.83956 6.0358 9.84117C6.02612 9.83875 6.01428 9.83546 6.00064 9.83128C5.9884 9.82753 5.9751 9.82768 5.96296 9.8317C5.94826 9.83657 5.93991 9.8215 5.947 9.72781C5.95377 9.70169 5.98959 9.68552 6.07304 9.68552C6.22552 9.68552 6.28816 9.70184 6.28816 9.71618V9.94024L6.21417 10.007C6.1785 10.0392 6.20376 10.0942 6.2542 10.0942H6.28816V10.2658C6.24164 10.3021 6.20005 10.319 6.16362 10.319C6.02722 10.319 5.95058 10.2682 5.94847 10.2082C5.94905 10.1906 5.94984 10.1776 5.95042 10.1687L5.96217 10.1726C5.97465 10.1769 5.98843 10.1771 6.00106 10.1731C6.003 10.1725 6.00472 10.172 6.00625 10.1714C6.01113 10.1698 6.01396 10.1688 6.01554 10.1698C6.01774 10.1712 6.01752 10.1764 6.01702 10.1888C6.01683 10.1933 6.0166 10.1988 6.01644 10.2055C6.01576 10.2337 6.04054 10.2571 6.0718 10.2577C6.10306 10.2583 6.12896 10.236 6.12964 10.2077C6.13203 10.1088 6.07652 10.0519 5.98438 10.0712C5.93001 10.0549 5.89198 10.0568 5.86231 10.0904C5.84052 10.115 5.8376 10.1352 5.83529 10.2082C5.83949 10.3335 5.97167 10.4212 6.16362 10.4212C6.23761 10.4212 6.31092 10.3881 6.38385 10.3253C6.39505 10.3157 6.40139 10.3023 6.40139 10.2884V10.0431C6.40139 10.0266 6.39269 10.0119 6.3792 10.0026L6.38481 9.99753C6.39542 9.98795 6.40139 9.97496 6.40139 9.96141V9.71618C6.40139 9.61147 6.29339 9.58335 6.07304 9.58335C5.94318 9.58335 5.85822 9.62168 5.83542 9.71237C5.82258 9.86729 5.86848 9.95971 5.98195 9.93329C6.01706 9.94337 6.04304 9.94847 6.06302 9.94847Z" fill="#F7FCFF"/>
</g>
</g>
</svg>
