<svg width="20" height="15" viewBox="0 0 20 15" fill="none" xmlns="http://www.w3.org/2000/svg">
<mask id="mask0_964_6980" style="mask-type:alpha" maskUnits="userSpaceOnUse" x="0" y="0" width="20" height="15">
<rect width="20" height="15" fill="white"/>
</mask>
<g mask="url(#mask0_964_6980)">
<path fill-rule="evenodd" clip-rule="evenodd" d="M0 0V15H20V0H0Z" fill="#29C470"/>
<mask id="mask1_964_6980" style="mask-type:alpha" maskUnits="userSpaceOnUse" x="0" y="0" width="20" height="15">
<path fill-rule="evenodd" clip-rule="evenodd" d="M0 0V15H20V0H0Z" fill="white"/>
</mask>
<g mask="url(#mask1_964_6980)">
<rect x="1.25" y="-0.201843" width="6.25" height="16.4518" fill="#C51918"/>
<mask id="mask2_964_6980" style="mask-type:alpha" maskUnits="userSpaceOnUse" x="1" y="-1" width="7" height="18">
<rect x="1.25" y="-0.201843" width="6.25" height="16.4518" fill="white"/>
</mask>
<g mask="url(#mask2_964_6980)">
<path fill-rule="evenodd" clip-rule="evenodd" d="M1.6221 0.566016L1.28079 1.00459L1.25 0.974146L1.58114 0.548638V0.463222L1.58239 0.455287L1.62089 0.336735L1.59732 0.295436L1.40204 0.490695L1.77847 -0.0955613V0.104766L1.85071 0.169972L2.02326 -0.131817L1.85013 -0.422265L1.72518 -0.326241L1.77585 -0.224449L1.74101 -0.200256L1.45894 -0.672143L1.63864 -0.549269L1.6703 -0.595171L1.4981 -0.770577L1.57427 -0.854458L1.32258 -1.22178L1.355 -1.25L1.62897 -0.850154L1.5579 -0.771889L1.72598 -0.600682L1.64859 -0.488471L1.59705 -0.523711L1.69538 -0.359214L1.86113 -0.486594L2.07229 -0.132346L1.86055 0.237993L1.73751 0.126941V0.0469691L1.614 0.239322L1.66635 0.331059L1.6221 0.467314V0.566016ZM1.28079 4.1439L1.6221 3.70533V3.60662L1.66635 3.47037L1.614 3.37863L1.73751 3.18628V3.26625L1.86055 3.3773L2.07229 3.00696L1.86113 2.65272L1.69538 2.7801L1.59705 2.6156L1.64859 2.65084L1.72598 2.53863L1.5579 2.36742L1.62897 2.28916L1.355 1.88931L1.32258 1.91753L1.57427 2.28485L1.4981 2.36873L1.6703 2.54414L1.63864 2.59004L1.45894 2.46717L1.74101 2.93905L1.77585 2.91486L1.72518 2.81307L1.85013 2.71704L2.02326 3.00749L1.85071 3.30928L1.77847 3.24407V3.04375L1.40204 3.63L1.59732 3.43475L1.62089 3.47604L1.58239 3.5946L1.58114 3.60253V3.68795L1.25 4.11346L1.28079 4.1439ZM1.6221 6.56764L1.28079 7.00621L1.25 6.97577L1.58114 6.55026V6.46484L1.58239 6.45691L1.62089 6.33835L1.59732 6.29706L1.40204 6.49231L1.77847 5.90606V6.10639L1.85071 6.17159L2.02326 5.8698L1.85013 5.57935L1.72518 5.67538L1.77585 5.77717L1.74101 5.80136L1.45894 5.32948L1.63864 5.45235L1.6703 5.40645L1.4981 5.23104L1.57427 5.14716L1.32258 4.77984L1.355 4.75162L1.62897 5.15147L1.5579 5.22973L1.72598 5.40094L1.64859 5.51315L1.59705 5.47791L1.69538 5.64241L1.86113 5.51503L2.07229 5.86927L1.86055 6.23961L1.73751 6.12856V6.04859L1.614 6.24094L1.66635 6.33268L1.6221 6.46893V6.56764ZM1.28079 9.91469L1.6221 9.47611V9.37741L1.66635 9.24116L1.614 9.14942L1.73751 8.95707V9.03704L1.86055 9.14809L2.07229 8.77775L1.86113 8.4235L1.69538 8.55088L1.59705 8.38639L1.64859 8.42163L1.72598 8.30941L1.5579 8.13821L1.62897 8.05994L1.355 7.6601L1.32258 7.68832L1.57427 8.05564L1.4981 8.13952L1.6703 8.31493L1.63864 8.36083L1.45894 8.23795L1.74101 8.70984L1.77585 8.68565L1.72518 8.58386L1.85013 8.48783L2.02326 8.77828L1.85071 9.08007L1.77847 9.01486V8.81454L1.40204 9.40079L1.59732 9.20553L1.62089 9.24683L1.58239 9.36538L1.58114 9.37332V9.45873L1.25 9.88424L1.28079 9.91469ZM1.28079 12.5L1.6221 12.0614V11.9627L1.66635 11.8265L1.614 11.7347L1.73751 11.5424V11.6224L1.86055 11.7334L2.07229 11.3631L1.86113 11.0088L1.69538 11.1362L1.59705 10.9717L1.64859 11.0069L1.72598 10.8947L1.5579 10.7235L1.62897 10.6453L1.355 10.2454L1.32258 10.2736L1.57427 10.641L1.4981 10.7248L1.6703 10.9002L1.63864 10.9461L1.45894 10.8233L1.74101 11.2952L1.77585 11.271L1.72518 11.1692L1.85013 11.0731L2.02326 11.3636L1.85071 11.6654L1.77847 11.6002V11.3998L1.40204 11.9861L1.59732 11.7908L1.62089 11.8321L1.58239 11.9507L1.58114 11.9586V12.044L1.25 12.4696L1.28079 12.5ZM7.46921 12.5L7.1279 12.0614V11.9627L7.08365 11.8265L7.136 11.7347L7.01249 11.5424V11.6224L6.88945 11.7334L6.67771 11.3631L6.88887 11.0088L7.05462 11.1362L7.15295 10.9717L7.10141 11.0069L7.02402 10.8947L7.1921 10.7235L7.12103 10.6453L7.395 10.2454L7.42742 10.2736L7.17573 10.641L7.2519 10.7248L7.0797 10.9002L7.11136 10.9461L7.29106 10.8233L7.00899 11.2952L6.97415 11.271L7.02482 11.1692L6.89987 11.0731L6.72674 11.3636L6.89929 11.6654L6.97153 11.6002V11.3998L7.34796 11.9861L7.15268 11.7908L7.12911 11.8321L7.16761 11.9507L7.16886 11.9586V12.044L7.5 12.4696L7.46921 12.5ZM7.1279 9.47611L7.46921 9.91469L7.5 9.88424L7.16886 9.45873V9.37332L7.16761 9.36538L7.12911 9.24683L7.15268 9.20553L7.34796 9.40079L6.97153 8.81454V9.01486L6.89929 9.08007L6.72674 8.77828L6.89987 8.48783L7.02482 8.58386L6.97415 8.68565L7.00899 8.70984L7.29106 8.23795L7.11136 8.36083L7.0797 8.31493L7.2519 8.13952L7.17573 8.05564L7.42742 7.68832L7.395 7.6601L7.12103 8.05994L7.1921 8.13821L7.02402 8.30941L7.10141 8.42163L7.15295 8.38639L7.05462 8.55088L6.88887 8.4235L6.67771 8.77775L6.88945 9.14809L7.01249 9.03704V8.95707L7.136 9.14942L7.08365 9.24116L7.1279 9.37741V9.47611ZM7.46921 7.00621L7.1279 6.56764V6.46893L7.08365 6.33268L7.136 6.24094L7.01249 6.04859V6.12856L6.88945 6.23961L6.67771 5.86927L6.88887 5.51503L7.05462 5.64241L7.15295 5.47791L7.10141 5.51315L7.02402 5.40094L7.1921 5.22973L7.12103 5.15147L7.395 4.75162L7.42742 4.77984L7.17573 5.14716L7.2519 5.23104L7.0797 5.40645L7.11136 5.45235L7.29106 5.32948L7.00899 5.80136L6.97415 5.77717L7.02482 5.67538L6.89987 5.57935L6.72674 5.8698L6.89929 6.17159L6.97153 6.10639V5.90606L7.34796 6.49231L7.15268 6.29706L7.12911 6.33835L7.16761 6.45691L7.16886 6.46484V6.55026L7.5 6.97577L7.46921 7.00621ZM7.1279 3.70533L7.46921 4.1439L7.5 4.11346L7.16886 3.68795V3.60253L7.16761 3.5946L7.12911 3.47604L7.15268 3.43475L7.34796 3.63L6.97153 3.04375V3.24407L6.89929 3.30928L6.72674 3.00749L6.89987 2.71704L7.02482 2.81307L6.97415 2.91486L7.00899 2.93905L7.29106 2.46717L7.11136 2.59004L7.0797 2.54414L7.2519 2.36873L7.17573 2.28485L7.42742 1.91753L7.395 1.88931L7.12103 2.28916L7.1921 2.36742L7.02402 2.53863L7.10141 2.65084L7.15295 2.6156L7.05462 2.7801L6.88887 2.65272L6.67771 3.00696L6.88945 3.3773L7.01249 3.26625V3.18628L7.136 3.37863L7.08365 3.47037L7.1279 3.60662V3.70533ZM7.46921 1.00459L7.1279 0.566016V0.467314L7.08365 0.331059L7.136 0.239322L7.01249 0.0469691V0.126941L6.88945 0.237993L6.67771 -0.132346L6.88887 -0.486594L7.05462 -0.359214L7.15295 -0.523711L7.10141 -0.488471L7.02402 -0.600682L7.1921 -0.771889L7.12103 -0.850154L7.395 -1.25L7.42742 -1.22178L7.17573 -0.854458L7.2519 -0.770577L7.0797 -0.595171L7.11136 -0.549269L7.29106 -0.672143L7.00899 -0.200256L6.97415 -0.224449L7.02482 -0.326241L6.89987 -0.422265L6.72674 -0.131817L6.89929 0.169972L6.97153 0.104766V-0.0955613L7.34796 0.490695L7.15268 0.295436L7.12911 0.336735L7.16761 0.455287L7.16886 0.463222V0.548638L7.5 0.974146L7.46921 1.00459Z" fill="#E8AA00"/>
<path fill-rule="evenodd" clip-rule="evenodd" d="M4.56667 9.10283H5.53761V9.33069H5.75885V9.51299H6.02434V10.1054H5.75885V10.2877H5.53761V10.47H4.59258L4.33113 10.7024L4.06843 10.47H3.19248V10.2877H2.97124V10.1054H2.75V9.51299H2.97124V9.33069H3.19248V9.10283H4.09446L4.33113 8.89349L4.56667 9.10283Z" fill="#389F5D"/>
<path d="M5.53761 9.10283H5.78761V8.85283H5.53761V9.10283ZM4.56667 9.10283L4.4006 9.2897L4.47164 9.35283H4.56667V9.10283ZM5.53761 9.33069H5.28761V9.58069H5.53761V9.33069ZM5.75885 9.33069H6.00885V9.08069H5.75885V9.33069ZM5.75885 9.51299H5.50885V9.76299H5.75885V9.51299ZM6.02434 9.51299H6.27434V9.26299H6.02434V9.51299ZM6.02434 10.1054V10.3554H6.27434V10.1054H6.02434ZM5.75885 10.1054V9.85543H5.50885V10.1054H5.75885ZM5.75885 10.2877V10.5377H6.00885V10.2877H5.75885ZM5.53761 10.2877V10.0377H5.28761V10.2877H5.53761ZM5.53761 10.47V10.72H5.78761V10.47H5.53761ZM4.59258 10.47V10.22H4.49754L4.4265 10.2832L4.59258 10.47ZM4.33113 10.7024L4.16549 10.8896L4.33152 11.0365L4.4972 10.8892L4.33113 10.7024ZM4.06843 10.47L4.23407 10.2828L4.16313 10.22H4.06843V10.47ZM3.19248 10.47H2.94248V10.72H3.19248V10.47ZM3.19248 10.2877H3.44248V10.0377H3.19248V10.2877ZM2.97124 10.2877H2.72124V10.5377H2.97124V10.2877ZM2.97124 10.1054H3.22124V9.85543H2.97124V10.1054ZM2.75 10.1054H2.5V10.3554H2.75V10.1054ZM2.75 9.51299V9.26299H2.5V9.51299H2.75ZM2.97124 9.51299V9.76299H3.22124V9.51299H2.97124ZM2.97124 9.33069V9.08069H2.72124V9.33069H2.97124ZM3.19248 9.33069V9.58069H3.44248V9.33069H3.19248ZM3.19248 9.10283V8.85283H2.94248V9.10283H3.19248ZM4.09446 9.10283V9.35283H4.18916L4.2601 9.29009L4.09446 9.10283ZM4.33113 8.89349L4.4972 8.70663L4.33152 8.55938L4.16549 8.70624L4.33113 8.89349ZM5.53761 8.85283H4.56667V9.35283H5.53761V8.85283ZM5.78761 9.33069V9.10283H5.28761V9.33069H5.78761ZM5.75885 9.08069H5.53761V9.58069H5.75885V9.08069ZM6.00885 9.51299V9.33069H5.50885V9.51299H6.00885ZM6.02434 9.26299H5.75885V9.76299H6.02434V9.26299ZM6.27434 10.1054V9.51299H5.77434V10.1054H6.27434ZM5.75885 10.3554H6.02434V9.85543H5.75885V10.3554ZM6.00885 10.2877V10.1054H5.50885V10.2877H6.00885ZM5.53761 10.5377H5.75885V10.0377H5.53761V10.5377ZM5.78761 10.47V10.2877H5.28761V10.47H5.78761ZM4.59258 10.72H5.53761V10.22H4.59258V10.72ZM4.4972 10.8892L4.75865 10.6569L4.4265 10.2832L4.16505 10.5155L4.4972 10.8892ZM3.9028 10.6573L4.16549 10.8896L4.49676 10.5151L4.23407 10.2828L3.9028 10.6573ZM3.19248 10.72H4.06843V10.22H3.19248V10.72ZM2.94248 10.2877V10.47H3.44248V10.2877H2.94248ZM2.97124 10.5377H3.19248V10.0377H2.97124V10.5377ZM2.72124 10.1054V10.2877H3.22124V10.1054H2.72124ZM2.75 10.3554H2.97124V9.85543H2.75V10.3554ZM2.5 9.51299V10.1054H3V9.51299H2.5ZM2.97124 9.26299H2.75V9.76299H2.97124V9.26299ZM2.72124 9.33069V9.51299H3.22124V9.33069H2.72124ZM3.19248 9.08069H2.97124V9.58069H3.19248V9.08069ZM2.94248 9.10283V9.33069H3.44248V9.10283H2.94248ZM4.09446 8.85283H3.19248V9.35283H4.09446V8.85283ZM4.2601 9.29009L4.49676 9.08075L4.16549 8.70624L3.92883 8.91557L4.2601 9.29009ZM4.16505 9.08036L4.4006 9.2897L4.73275 8.91596L4.4972 8.70663L4.16505 9.08036Z" fill="#E8AA00"/>
<path fill-rule="evenodd" clip-rule="evenodd" d="M3.32202 9.62952V9.22693H3.79113L3.32202 9.62952ZM5.29555 9.62952V9.22693H4.82645L5.29555 9.62952ZM3.32202 10.3587V9.9561L3.79113 10.3587H3.32202ZM5.29555 9.9561V10.3587H4.82645L5.29555 9.9561Z" fill="#C51918"/>
<path fill-rule="evenodd" clip-rule="evenodd" d="M4.1532 9.26162L4.31513 9.04956L4.47502 9.26162H4.1532ZM4.1532 9.45972L4.31513 9.67177L4.47502 9.45972H4.1532ZM4.31513 9.96102L4.1532 10.1731H4.47502L4.31513 9.96102ZM4.1532 10.3712L4.31513 10.5832L4.47502 10.3712H4.1532Z" fill="#E8AA00"/>
<path fill-rule="evenodd" clip-rule="evenodd" d="M4.15654 9.23645V9.3276H4.06357V9.4526H4.15654V9.54374H4.48096V9.4526H4.57393V9.3276H4.48096V9.23645H4.15654ZM4.48096 10.2391V10.1479H4.15654V10.2391H4.06357V10.3641H4.15654V10.4552H4.48096V10.3641H4.57393V10.2391H4.48096Z" fill="#AF0100"/>
<path fill-rule="evenodd" clip-rule="evenodd" d="M3.53372 9.71826L3.68786 9.50525L3.84006 9.71826H3.53372ZM3.53372 9.91724L3.68786 10.1302L3.84006 9.91724H3.53372ZM4.97105 9.50525L4.81691 9.71826H5.12325L4.97105 9.50525ZM4.81691 9.91724L4.97105 10.1302L5.12325 9.91724H4.81691Z" fill="#AF0100"/>
<path fill-rule="evenodd" clip-rule="evenodd" d="M3.53259 9.6922V9.78517H3.44409V9.91267H3.53259V10.0056H3.8414V9.91267H3.9299V9.78517H3.8414V9.6922H3.53259ZM5.12459 9.78517V9.6922H4.81577V9.78517H4.72728V9.91267H4.81577V10.0056H5.12459V9.91267H5.21309V9.78517H5.12459Z" fill="#E8AA00"/>
<mask id="mask3_964_6980" style="mask-type:alpha" maskUnits="userSpaceOnUse" x="2" y="10" width="5" height="4">
<path fill-rule="evenodd" clip-rule="evenodd" d="M3.88564 10.7818L2.77841 11.4061V12.4409L3.88564 13.0904H5.08489L6.21845 12.4409V11.4061L5.08489 10.7818H3.88564Z" fill="white"/>
</mask>
<g mask="url(#mask3_964_6980)">
<path d="M2.79425 11.9349H4.51991V13.0742H2.79425V11.9349Z" fill="#E8AA00"/>
<rect x="2.61728" y="10.7956" width="1.90265" height="1.13932" fill="#F9E8E7"/>
<path d="M3.05975 11.4596L3.63258 11.1146V11.4596H3.05975Z" fill="#E8AA00"/>
<rect width="1.90265" height="1.13932" transform="matrix(-1 0 0 1 6.42258 10.7956)" fill="#E8AA00"/>
<path d="M5.84735 11.4596L5.27453 11.1146V11.4596H5.84735Z" fill="#F9E8E7"/>
<rect x="6.24557" y="13.0742" width="1.72566" height="1.13932" transform="rotate(-180 6.24557 13.0742)" fill="#F9E8E7"/>
<path d="M5.8031 12.4102L5.23028 12.7552V12.4102H5.8031Z" fill="#E8AA00"/>
<path d="M3.05975 12.3383L3.63258 12.6832V12.3383H3.05975Z" fill="#FCFCFC"/>
</g>
<path fill-rule="evenodd" clip-rule="evenodd" d="M3.90045 11.4791H4.18806L4.47567 11.388L4.76328 11.4791H5.05089V12.345H4.76328L4.47567 12.4818L4.18806 12.345H3.90045V11.4791Z" fill="#C51918"/>
<path fill-rule="evenodd" clip-rule="evenodd" d="M4.87389 10.961H5.03014V11.1373H5.09417V11.2623H5.03014V11.3296H4.87389V10.961ZM3.30447 11.5079H3.14822V11.8765H3.30447V11.8092H3.3685V11.6842H3.30447V11.5079ZM3.52571 11.5079H3.36946V11.8765H3.52571V11.5079ZM3.30447 11.9636H3.14822V12.3322H3.30447V12.2649H3.3685V12.1399H3.30447V11.9636ZM3.36946 11.9636H3.52571V12.3322H3.36946V11.9636ZM5.58185 11.5079H5.7381V11.6842H5.80213V11.8092H5.7381V11.8765H5.58185V11.5079ZM5.95934 11.5079H5.80309V11.8765H5.95934V11.5079ZM5.7381 11.9636H5.58185V12.3322H5.7381V12.2649H5.80213V12.1399H5.7381V11.9636ZM5.80309 11.9636H5.95934V12.3322H5.80309V11.9636ZM5.25138 10.961H5.09513V11.3296H5.25138V10.961ZM3.96819 10.961H3.81194V11.3296H3.96819V11.2623H4.03222V11.1373H3.96819V10.961ZM4.03318 10.961H4.18943V11.3296H4.03318V10.961ZM4.87389 12.5105H5.03014V12.6868H5.09417V12.8118H5.03014V12.8791H4.87389V12.5105ZM5.25138 12.5105H5.09513V12.8791H5.25138V12.5105ZM3.96819 12.5105H3.81194V12.8791H3.96819V12.8118H4.03222V12.6868H3.96819V12.5105ZM4.03318 12.5105H4.18943V12.8791H4.03318V12.5105Z" fill="#C9343F"/>
<path fill-rule="evenodd" clip-rule="evenodd" d="M4.39069 11.6664H4.43494V11.5425H4.21386V11.6842H4.03168V11.8872H4.20108V11.8416H4.07593V11.7297H4.22618L4.45235 11.9254L4.22618 12.1212H4.07593V12.0093H4.20108V11.9637H4.03168V12.1667H4.21386V12.3084H4.43494V12.1845H4.39069V12.2628H4.25811V12.1531L4.48811 11.954L4.71811 12.1531V12.2628H4.58552V12.1845H4.54128V12.3084H4.76235V12.1667H4.94454V11.9637H4.77513V12.0093H4.90029V12.1212H4.75003L4.52386 11.9254L4.75003 11.7297H4.90029V11.8416H4.77513V11.8872H4.94454V11.6842H4.76235V11.5425H4.54128V11.6664H4.58552V11.5881H4.71811V11.6978L4.48811 11.8969L4.25811 11.6978V11.5881H4.39069V11.6664Z" fill="white"/>
<path fill-rule="evenodd" clip-rule="evenodd" d="M4.74025 3H3.96103V5.5H4.74025V3ZM2.987 3.52885H3.47401V4.875H2.987V3.52885ZM5.27596 3.52885H5.76297V4.875H5.27596V3.52885Z" fill="#E8AA00"/>
<path fill-rule="evenodd" clip-rule="evenodd" d="M3.96104 3.19232H3.47403V5.1154H3.96104V3.19232ZM2.98701 3.72117H2.5V4.63463H2.98701V3.72117ZM5.76299 3.72117H6.25V4.63463H5.76299V3.72117ZM5.22727 3.19232H4.74026V5.1154H5.22727V3.19232Z" fill="#389F5D"/>
<path fill-rule="evenodd" clip-rule="evenodd" d="M3.86365 3.43268C3.86365 3.51234 3.79823 3.57691 3.71754 3.57691C3.63685 3.57691 3.57144 3.51234 3.57144 3.43268C3.57144 3.35303 3.63685 3.28845 3.71754 3.28845C3.79823 3.28845 3.86365 3.35303 3.86365 3.43268ZM2.88962 3.91345C2.88962 3.99311 2.82421 4.05768 2.74352 4.05768C2.66283 4.05768 2.59741 3.99311 2.59741 3.91345C2.59741 3.8338 2.66283 3.76922 2.74352 3.76922C2.82421 3.76922 2.88962 3.8338 2.88962 3.91345ZM2.88962 4.4423C2.88962 4.52195 2.82421 4.58653 2.74352 4.58653C2.66283 4.58653 2.59741 4.52195 2.59741 4.4423C2.59741 4.36264 2.66283 4.29807 2.74352 4.29807C2.82421 4.29807 2.88962 4.36264 2.88962 4.4423ZM3.71754 5.01922C3.79823 5.01922 3.86365 4.95465 3.86365 4.87499C3.86365 4.79533 3.79823 4.73076 3.71754 4.73076C3.63685 4.73076 3.57144 4.79533 3.57144 4.87499C3.57144 4.95465 3.63685 5.01922 3.71754 5.01922ZM6.0065 4.05768C6.08719 4.05768 6.15261 3.99311 6.15261 3.91345C6.15261 3.8338 6.08719 3.76922 6.0065 3.76922C5.92581 3.76922 5.8604 3.8338 5.8604 3.91345C5.8604 3.99311 5.92581 4.05768 6.0065 4.05768ZM6.15261 4.4423C6.15261 4.52195 6.08719 4.58653 6.0065 4.58653C5.92581 4.58653 5.8604 4.52195 5.8604 4.4423C5.8604 4.36264 5.92581 4.29807 6.0065 4.29807C6.08719 4.29807 6.15261 4.36264 6.15261 4.4423ZM4.98378 5.01922C5.06447 5.01922 5.12988 4.95465 5.12988 4.87499C5.12988 4.79533 5.06447 4.73076 4.98378 4.73076C4.90308 4.73076 4.83767 4.79533 4.83767 4.87499C4.83767 4.95465 4.90308 5.01922 4.98378 5.01922ZM5.12988 3.43268C5.12988 3.51234 5.06447 3.57691 4.98378 3.57691C4.90308 3.57691 4.83767 3.51234 4.83767 3.43268C4.83767 3.35303 4.90308 3.28845 4.98378 3.28845C5.06447 3.28845 5.12988 3.35303 5.12988 3.43268Z" fill="#E1E5E8"/>
<path fill-rule="evenodd" clip-rule="evenodd" d="M4.49675 3.24036C4.49675 3.32002 4.43134 3.38459 4.35065 3.38459C4.26995 3.38459 4.20454 3.32002 4.20454 3.24036C4.20454 3.1607 4.26995 3.09613 4.35065 3.09613C4.43134 3.09613 4.49675 3.1607 4.49675 3.24036ZM3.37662 3.76921C3.37662 3.84886 3.31121 3.91344 3.23052 3.91344C3.14982 3.91344 3.08441 3.84886 3.08441 3.76921C3.08441 3.68955 3.14982 3.62498 3.23052 3.62498C3.31121 3.62498 3.37662 3.68955 3.37662 3.76921ZM4.35065 5.4519C4.43134 5.4519 4.49675 5.38733 4.49675 5.30767C4.49675 5.22801 4.43134 5.16344 4.35065 5.16344C4.26995 5.16344 4.20454 5.22801 4.20454 5.30767C4.20454 5.38733 4.26995 5.4519 4.35065 5.4519ZM5.66558 3.76921C5.66558 3.84886 5.60017 3.91344 5.51948 3.91344C5.43879 3.91344 5.37337 3.84886 5.37337 3.76921C5.37337 3.68955 5.43879 3.62498 5.51948 3.62498C5.60017 3.62498 5.66558 3.68955 5.66558 3.76921ZM3.23052 4.77882C3.31121 4.77882 3.37662 4.71425 3.37662 4.63459C3.37662 4.55494 3.31121 4.49036 3.23052 4.49036C3.14982 4.49036 3.08441 4.55494 3.08441 4.63459C3.08441 4.71425 3.14982 4.77882 3.23052 4.77882ZM5.66558 4.63459C5.66558 4.71425 5.60017 4.77882 5.51948 4.77882C5.43879 4.77882 5.37337 4.71425 5.37337 4.63459C5.37337 4.55494 5.43879 4.49036 5.51948 4.49036C5.60017 4.49036 5.66558 4.55494 5.66558 4.63459Z" fill="#C51918"/>
<path fill-rule="evenodd" clip-rule="evenodd" d="M3.50407 3.99464L3.97817 3.56647H4.74797L5.28825 4.05769H6.00648V4.25H5.30772V4.26004L4.74797 4.82933H3.97817L3.50407 4.31552V4.25H2.69479V4.05769H3.50407V3.99464Z" fill="#C51918"/>
<path fill-rule="evenodd" clip-rule="evenodd" d="M4.38189 3.9228L4.61212 4.15612L4.37042 4.38507L4.12872 4.15612L4.35895 3.9228L4.37042 3.91221L4.38189 3.9228ZM4.42381 4.48615L4.45078 4.46119L4.42318 4.43504L4.6631 4.20778L4.91334 4.46138L4.80072 4.58015H4.73395L4.60974 4.65829L4.42381 4.48615ZM4.37042 4.53558L4.13969 4.74921L3.9856 4.65227H3.90844L3.7265 4.46039L4.02503 4.15785L3.72458 3.87324L3.92173 3.68193L3.99318 3.73806L4.09656 3.63363L4.06549 3.60214L4.11782 3.55182L4.37042 3.80782L4.62303 3.55182L4.67535 3.60214L4.64428 3.63363L4.74766 3.73806L4.81911 3.68193L5.01626 3.87324L4.71581 4.15785L5.01434 4.46039L4.8324 4.65227H4.75524L4.60115 4.74921L4.37042 4.53558ZM4.49917 3.9383L4.50221 3.9351L4.43303 3.87126L4.42434 3.86246L4.60429 3.69642L4.74153 3.83504L4.81401 3.7781L4.91141 3.87262L4.66483 4.10619L4.49917 3.9383ZM4.34463 4.46059L4.1311 4.65829L4.0069 4.58015H3.94012L3.82751 4.46138L4.07775 4.20778L4.34463 4.46059ZM3.82943 3.87262L4.07601 4.10619L4.3165 3.86246L4.13655 3.69642L3.99931 3.83504L3.92683 3.7781L3.82943 3.87262Z" fill="#E8AA00"/>
<path fill-rule="evenodd" clip-rule="evenodd" d="M2.78022 13.401L2.78022 13.401C2.64958 13.2352 2.56141 13.1233 2.53819 13.125C2.46527 13.1304 2.39689 13.9024 3.34465 14.4897C3.34465 14.4897 3.48455 14.5675 3.56603 14.4897C3.64751 14.4119 3.56603 14.2975 3.56603 14.2975C3.25967 14.0096 2.97348 13.6463 2.78022 13.401ZM5.96978 13.401L5.96978 13.401L5.96979 13.401C6.10042 13.2352 6.18859 13.1233 6.21181 13.125C6.28473 13.1304 6.35311 13.9024 5.40535 14.4897C5.40535 14.4897 5.26545 14.5675 5.18397 14.4897C5.10249 14.4119 5.18397 14.2975 5.18397 14.2975C5.49033 14.0096 5.77652 13.6463 5.96977 13.401L5.96978 13.401ZM5.90044 14.4398C5.58901 14.5318 5.22831 14.5511 5.09038 14.4916C5.04639 14.4726 4.99968 14.4577 4.9506 14.4466C4.81339 14.4154 4.67965 14.4152 4.52095 14.4326L4.46229 14.4393L4.4583 14.4398C4.44336 14.4415 4.43473 14.4422 4.43308 14.4422C4.42378 14.4422 4.41358 14.4436 4.4024 14.4462C4.39122 14.4436 4.38102 14.4422 4.37172 14.4422C4.37007 14.4422 4.36144 14.4415 4.3465 14.4398C4.34628 14.4398 4.34484 14.4396 4.34252 14.4393C4.33093 14.438 4.2974 14.434 4.28386 14.4326C4.12515 14.4152 3.99141 14.4154 3.8542 14.4466C3.80512 14.4577 3.75841 14.4726 3.71442 14.4916C3.57649 14.5511 3.2158 14.5318 2.90436 14.4398C2.90436 14.4398 3.47109 14.6674 3.80768 14.5666C3.84032 14.5525 3.87474 14.5415 3.91096 14.5333C4.00678 14.5115 4.10491 14.5096 4.22296 14.5206C4.17331 14.5437 4.11559 14.5702 4.04844 14.5974V14.625C4.18099 14.5712 4.33633 14.5458 4.4024 14.5379C4.46848 14.5458 4.62381 14.5712 4.75636 14.625V14.5974C4.68922 14.5702 4.63149 14.5437 4.58184 14.5206C4.69989 14.5096 4.79803 14.5115 4.89384 14.5333C4.93006 14.5415 4.96449 14.5525 4.99713 14.5666C5.33371 14.6674 5.90044 14.4398 5.90044 14.4398Z" fill="#E8AA00"/>
<path fill-rule="evenodd" clip-rule="evenodd" d="M3.60249 6.2359L2.82004 6.92544V7.58218L3.50409 8.26955H4.90082L5.67093 7.53612V6.977L4.90082 6.2359H3.60249Z" fill="#389F5D"/>
<path fill-rule="evenodd" clip-rule="evenodd" d="M3.87166 6.30884H3.69467V6.44556H3.87166V6.30884ZM3.87166 8.09636H3.69467V8.23307H3.87166V8.09636ZM4.13715 8.09636H4.31414V8.23307H4.13715V8.09636ZM4.31414 6.30884H4.13715V6.44556H4.31414V6.30884ZM4.57963 8.09636H4.75662V8.23307H4.57963V8.09636ZM4.75662 6.30884H4.57963V6.44556H4.75662V6.30884Z" fill="#C51918"/>
<path fill-rule="evenodd" clip-rule="evenodd" d="M4.09609 6.27344H3.91592V6.41016H4.09609V6.27344ZM4.09609 8.09635H3.91592V8.23307H4.09609V8.09635ZM4.36634 6.27344H4.5465V6.41016H4.36634V6.27344ZM4.5465 8.09635H4.36634V8.23307H4.5465V8.09635Z" fill="#E8AA00"/>
<path fill-rule="evenodd" clip-rule="evenodd" d="M3.07107 6.15118H5.43359V6.51626H5.77187V8.02552H5.43359V8.3375H3.07107V8.02552H2.70374V6.51626H3.07107V6.15118ZM3.20381 6.65298H2.83648V7.8888H3.20381V8.20079H5.30084V7.8888H5.63913V6.65298H5.30084V6.2879H3.20381V6.65298Z" fill="#750100"/>
<path fill-rule="evenodd" clip-rule="evenodd" d="M4.00441 6H3.78317V6.22786H4.00441V6ZM4.35839 6H4.13715V6.22786H4.35839V6ZM4.49114 6H4.71238V6.22786H4.49114V6ZM4.00441 8.27865H3.78317V8.50651H4.00441V8.27865ZM4.13715 8.27865H4.35839V8.50651H4.13715V8.27865ZM4.71238 8.27865H4.49114V8.50651H4.71238V8.27865ZM2.49667 7.77403V7.55279H2.72454V7.77403H2.49667ZM2.49667 7.18821V7.40945H2.72454V7.18821H2.49667ZM2.49667 7.04486V6.82363H2.72454V7.04486H2.49667ZM5.68251 7.55279V7.77403H5.91038V7.55279H5.68251ZM5.68251 7.40945V7.18821H5.91038V7.40945H5.68251ZM5.68251 6.82363V7.04486H5.91038V6.82363H5.68251Z" fill="#389F5D"/>
<path fill-rule="evenodd" clip-rule="evenodd" d="M3.61147 6.42786L3.22989 6.75974V7.83366L3.54657 8.05775H4.91946L5.23568 7.83366V6.75974L4.8788 6.42786H3.61147Z" fill="#C51918"/>
<path fill-rule="evenodd" clip-rule="evenodd" d="M4.25203 6.87305L3.7916 7.26644H4.25203V6.87305Z" fill="#E1E5E8"/>
<path d="M4.25203 7.62329L3.7916 7.22989H4.25203V7.62329Z" fill="#E8AA00"/>
<path fill-rule="evenodd" clip-rule="evenodd" d="M4.21193 6.87305L4.67236 7.26644H4.21193V6.87305Z" fill="#E8AA00"/>
<path fill-rule="evenodd" clip-rule="evenodd" d="M4.23235 7.37266C4.30937 7.37266 4.3718 7.31022 4.3718 7.2332C4.3718 7.15619 4.30937 7.09375 4.23235 7.09375C4.15533 7.09375 4.0929 7.15619 4.0929 7.2332C4.0929 7.31022 4.15533 7.37266 4.23235 7.37266Z" fill="#29AE66"/>
<path d="M4.21193 7.62329L4.67236 7.22989H4.21193V7.62329Z" fill="#E1E5E8"/>
<path fill-rule="evenodd" clip-rule="evenodd" d="M3.2522 7.09375H2.85397V7.22125H3.2522V7.09375ZM3.2522 7.32617H2.85397V7.45367H3.2522V7.32617ZM5.24335 7.09375H5.64158V7.22125H5.24335V7.09375ZM5.64158 7.32617H5.24335V7.45367H5.64158V7.32617Z" fill="#C51918"/>
<path fill-rule="evenodd" clip-rule="evenodd" d="M3.20796 6.95703H2.85397V7.09648H3.20796V6.95703ZM3.20796 7.18945H2.85397V7.32891H3.20796V7.18945ZM2.85397 7.42188H3.20796V7.56133H2.85397V7.42188ZM5.59734 6.95703H5.24335V7.09648H5.59734V6.95703ZM5.24335 7.18945H5.59734V7.32891H5.24335V7.18945ZM5.59734 7.42188H5.24335V7.56133H5.59734V7.42188Z" fill="#E8AA00"/>
<path fill-rule="evenodd" clip-rule="evenodd" d="M6.24062 0.993902L6.23927 1.24714H4.38995L4.38862 2.39714H3.80875C3.70752 2.39714 3.42999 2.20277 3.42999 2.20277H2.95914L2.74178 1.9807V1.75757L2.50848 1.48057L2.50983 1.22733H4.35916L4.36048 0.0773315H4.94035C5.04158 0.0773315 5.31911 0.271703 5.31911 0.271703H5.78996L6.00733 0.493768V0.716898L6.24062 0.993902Z" fill="#E8AA00"/>
<path fill-rule="evenodd" clip-rule="evenodd" d="M2.5085 0.993902L2.50984 1.24714H4.35917L4.36049 2.39714H4.94037C5.04159 2.39714 5.31913 2.20277 5.31913 2.20277H5.78997L6.00734 1.9807V1.75757L6.24063 1.48057L6.23929 1.22733H4.38996L4.38864 0.0773315H3.80876C3.70754 0.0773315 3.43 0.271703 3.43 0.271703H2.95916L2.74179 0.493768V0.716898L2.5085 0.993902Z" fill="#E1E5E8"/>
<path fill-rule="evenodd" clip-rule="evenodd" d="M3.75135 0.428315L3.7311 0.330506L4.13001 0.238773C4.1779 0.215649 4.26101 0.149773 4.37548 0.0427246L4.42911 0.103084L4.43832 0.0927246C4.55279 0.199773 4.6359 0.265649 4.68379 0.288773L5.0827 0.380506L5.06245 0.478314L4.84123 0.432616L4.86239 0.451541C4.84719 0.460649 4.83065 0.473926 4.81293 0.491292L4.71953 0.477539L4.72822 0.445954L4.70477 0.442135C4.68759 0.474541 4.66794 0.520905 4.64696 0.580399L4.55355 0.552896L4.59137 0.371718L4.38025 0.173704L4.23234 0.312431C4.25074 0.329112 4.26909 0.34826 4.28746 0.369923C4.27177 0.375894 4.25677 0.381163 4.24245 0.385733L4.23611 0.387244L4.26026 0.502896L4.16685 0.530399C4.15465 0.495832 4.14291 0.465698 4.13185 0.440158L4.12414 0.441292C4.10643 0.423926 4.08989 0.410649 4.07468 0.401541L4.10113 0.377901C4.09679 0.370484 4.09264 0.364055 4.08869 0.358631L3.75135 0.428315ZM3.76777 0.786438L3.82103 0.702711L3.54552 0.517985L3.57616 0.47514L3.49764 0.415958L3.46384 0.463223L3.35451 0.389914L3.30125 0.47364L3.40611 0.543951L3.38451 0.574153L3.46303 0.633335L3.48779 0.598713L3.76777 0.786438ZM3.42686 0.886438L3.48012 0.802711L3.20461 0.617985L3.23525 0.57514L3.15673 0.515958L3.12293 0.563223L3.0136 0.489914L2.96034 0.57364L3.0652 0.643951L3.0436 0.674153L3.12212 0.733335L3.14688 0.698713L3.42686 0.886438ZM3.28075 1.18644L3.33401 1.10271L3.0585 0.917985L3.08914 0.87514L3.01063 0.815958L2.97683 0.863223L2.86749 0.789914L2.81423 0.87364L2.9191 0.943951L2.8975 0.974153L2.97601 1.03334L3.00077 0.998713L3.28075 1.18644ZM3.28531 1.42645L3.23205 1.34272L2.95207 1.53045L2.92731 1.49583L2.8488 1.55501L2.8704 1.58521L2.76553 1.65552L2.81879 1.73925L2.92813 1.66594L2.96193 1.7132L3.04044 1.65402L3.0098 1.61118L3.28531 1.42645ZM3.37816 1.64272L3.43142 1.72645L3.15591 1.91118L3.18655 1.95402L3.10803 2.0132L3.07423 1.96594L2.9649 2.03925L2.91164 1.95552L3.0165 1.88521L2.9949 1.85501L3.07342 1.79583L3.09818 1.83045L3.37816 1.64272ZM3.71907 1.74272L3.77233 1.82645L3.49682 2.01118L3.52746 2.05402L3.44894 2.1132L3.41514 2.06594L3.30581 2.13925L3.25255 2.05552L3.35741 1.98521L3.33581 1.95501L3.41433 1.89583L3.43909 1.93045L3.71907 1.74272ZM4.23876 2.22063C4.22307 2.21466 4.20807 2.20939 4.19375 2.20482L4.17521 2.2004L4.21156 2.02627L4.11815 1.99876C4.08831 2.08336 4.06117 2.14141 4.03999 2.17053L3.70265 2.10085L3.6824 2.19866L4.06689 2.28707L4.06678 2.28744L4.12239 2.32437L4.12971 2.31981C4.17817 2.35361 4.24434 2.40935 4.32678 2.48644L4.3582 2.45108L4.38962 2.48644C4.50409 2.37939 4.5872 2.31351 4.63509 2.29039L4.64803 2.28741C4.66484 2.30176 4.68171 2.31407 4.69872 2.32437L4.75433 2.28744L4.74871 2.26838L4.75491 2.26284L5.034 2.19866L5.01375 2.10085L4.67641 2.17053C4.65523 2.14141 4.6281 2.08336 4.59826 1.99876L4.50484 2.02627L4.54267 2.20744L4.3582 2.38046L4.21555 2.24667C4.22329 2.23843 4.23102 2.22975 4.23876 2.22063ZM5.43109 1.42645L5.48435 1.34272L5.76433 1.53045L5.78909 1.49583L5.8676 1.55501L5.846 1.58521L5.95087 1.65552L5.89761 1.73925L5.78827 1.66594L5.75447 1.7132L5.67596 1.65402L5.7066 1.61118L5.43109 1.42645ZM5.28498 1.72645L5.33824 1.64272L5.61822 1.83045L5.64298 1.79583L5.7215 1.85501L5.6999 1.88521L5.80476 1.95552L5.7515 2.03925L5.64217 1.96594L5.60837 2.0132L5.52985 1.95402L5.56049 1.91118L5.28498 1.72645ZM4.94408 1.82645L4.99733 1.74272L5.27732 1.93045L5.30207 1.89583L5.38059 1.95501L5.35899 1.98521L5.46385 2.05552L5.41059 2.13925L5.30126 2.06594L5.26746 2.1132L5.18894 2.05402L5.21958 2.01118L4.94408 1.82645ZM5.47979 1.15271L5.53305 1.23644L5.81303 1.04871L5.83779 1.08334L5.9163 1.02415L5.8947 0.993951L5.99957 0.92364L5.94631 0.839914L5.83697 0.913223L5.80317 0.865958L5.72466 0.92514L5.7553 0.967985L5.47979 1.15271ZM5.33369 0.852711L5.38695 0.936438L5.66693 0.748713L5.69169 0.783335L5.7702 0.724153L5.7486 0.693951L5.85346 0.62364L5.8002 0.539914L5.69087 0.613223L5.65707 0.565958L5.57856 0.62514L5.60919 0.667985L5.33369 0.852711ZM4.99278 0.752711L5.04604 0.836438L5.32602 0.648713L5.35078 0.683335L5.42929 0.624153L5.40769 0.593951L5.51256 0.52364L5.4593 0.439914L5.34996 0.513223L5.31616 0.465958L5.23765 0.52514L5.26829 0.567985L4.99278 0.752711Z" fill="#C51918"/>
<path fill-rule="evenodd" clip-rule="evenodd" d="M3.87976 0.720545L4.43134 0.42804V1.22804H5.79498L5.47005 1.46206V1.76824H4.95578L4.40419 2.06074V1.26074H3.04056L3.36549 1.02672V0.720545H3.87976Z" fill="#C51918"/>
<path fill-rule="evenodd" clip-rule="evenodd" d="M4.95578 0.720545L4.4042 0.42804V1.22804H3.04056L3.36549 1.46206V1.76824H3.87976L4.43135 2.06074V1.26074H5.79498L5.47006 1.02672V0.720545H4.95578Z" fill="#29AE66"/>
<path fill-rule="evenodd" clip-rule="evenodd" d="M3.61182 0.927923L3.70182 0.750549L3.93078 0.873011L3.99386 0.77916L4.1542 0.892751L4.10488 0.966128L4.78257 1.3286L4.82435 1.26644L4.98469 1.38003L4.95667 1.42171L5.02987 1.46087L4.93987 1.63824L4.84517 1.58759L4.76831 1.70196L4.60797 1.58836L4.67108 1.49448L3.99339 1.13201L3.93782 1.21468L3.77748 1.10109L3.81929 1.03889L3.61182 0.927923Z" fill="#29AE66"/>
<path fill-rule="evenodd" clip-rule="evenodd" d="M5.05601 0.879151L4.95385 0.708488L4.73399 0.846623L4.66452 0.7574L4.5125 0.881899L4.56682 0.951657L3.91606 1.36052L3.87005 1.30142L3.71802 1.42592L3.74888 1.46555L3.67859 1.50972L3.78075 1.68038L3.87168 1.62325L3.95633 1.73197L4.10835 1.60747L4.03885 1.51821L4.68961 1.10936L4.75081 1.18795L4.90283 1.06345L4.85679 1.00432L5.05601 0.879151Z" fill="#C51918"/>
</g>
<path fill-rule="evenodd" clip-rule="evenodd" d="M11.9209 1.25C11.9209 1.25 13.3772 4.701 12.0833 6.16657C10.7894 7.63215 7.5 7.34959 7.5 7.34959C7.5 7.34959 11.7228 9.25687 13.5626 6.63066C15.4024 4.00446 11.9209 1.25 11.9209 1.25Z" fill="#F7FCFF"/>
<path fill-rule="evenodd" clip-rule="evenodd" d="M9.27768 3.28031L8.89234 3.55155L9.02828 3.09703L8.65419 2.81014L9.12355 2.80047L9.27768 2.35193L9.43182 2.80047L9.90118 2.81014L9.52708 3.09703L9.66302 3.55155L9.27768 3.28031ZM9.35222 4.53365L8.96688 4.80488L9.10283 4.35036L8.72873 4.06348L9.19809 4.0538L9.35222 3.60526L9.50636 4.0538L9.97572 4.06348L9.60162 4.35036L9.73757 4.80488L9.35222 4.53365ZM7.79544 4.90168L8.18078 4.63045L8.56612 4.90168L8.43018 4.44716L8.80427 4.16027L8.33491 4.1506L8.18078 3.70206L8.02664 4.1506L7.55728 4.16027L7.93138 4.44716L7.79544 4.90168ZM9.35222 5.84831L8.96688 6.11955L9.10283 5.66503L8.72873 5.37814L9.19809 5.36847L9.35222 4.91993L9.50636 5.36847L9.97572 5.37814L9.60162 5.66503L9.73757 6.11955L9.35222 5.84831ZM10.2404 4.42183L10.6257 4.1506L11.0111 4.42183L10.8751 3.96731L11.2492 3.68043L10.7799 3.67075L10.6257 3.22222L10.4716 3.67075L10.0022 3.68043L10.3763 3.96731L10.2404 4.42183Z" fill="#F7FCFF"/>
</g>
</g>
</svg>
