<svg width="20" height="15" viewBox="0 0 20 15" fill="none" xmlns="http://www.w3.org/2000/svg">
<mask id="mask0_964_6990" style="mask-type:alpha" maskUnits="userSpaceOnUse" x="0" y="0" width="20" height="15">
<rect width="20" height="15" fill="white"/>
</mask>
<g mask="url(#mask0_964_6990)">
<path fill-rule="evenodd" clip-rule="evenodd" d="M0 0H20V15H0V0Z" fill="#E31D1C"/>
<path fill-rule="evenodd" clip-rule="evenodd" d="M0 1.25V2.5H20V1.25H0ZM0 3.75V5H20V3.75H0ZM0 7.5V6.25H20V7.5H0ZM0 8.75V10H20V8.75H0ZM0 12.5V11.25H20V12.5H0ZM0 15V13.75H20V15H0Z" fill="#F7FCFF"/>
<rect width="11.25" height="8.75" fill="#2E42A5"/>
<path fill-rule="evenodd" clip-rule="evenodd" d="M1.3 2.71725L1.9624 2.25583L2.47623 2.62575H2.1853L2.77364 3.14612L2.57492 3.87575H2.26369L1.96148 3.20563L1.70375 3.87575H0.935303L1.52364 4.39612L1.3 5.21725L1.9624 4.75583L2.47623 5.12575H2.1853L2.77364 5.64612L2.57492 6.37575H2.26369L1.96148 5.70563L1.70375 6.37575H0.935303L1.52364 6.89612L1.3 7.71725L1.9624 7.25583L2.60332 7.71725L2.40406 6.89612L2.91877 6.37575H2.68136L3.2124 6.00583L3.72623 6.37575H3.4353L4.02364 6.89612L3.8 7.71725L4.4624 7.25583L5.10332 7.71725L4.90406 6.89612L5.41877 6.37575H5.18136L5.7124 6.00583L6.22623 6.37575H5.9353L6.52364 6.89612L6.3 7.71725L6.9624 7.25583L7.60332 7.71725L7.40406 6.89612L7.91877 6.37575H7.68136L8.2124 6.00583L8.72623 6.37575H8.4353L9.02364 6.89612L8.8 7.71725L9.4624 7.25583L10.1033 7.71725L9.90406 6.89612L10.4188 6.37575H9.76369L9.46148 5.70563L9.20375 6.37575H8.83112L8.65406 5.64612L9.16877 5.12575H8.93136L9.4624 4.75583L10.1033 5.21725L9.90406 4.39612L10.4188 3.87575H9.76369L9.46148 3.20563L9.20375 3.87575H8.83112L8.65406 3.14612L9.16877 2.62575H8.93136L9.4624 2.25583L10.1033 2.71725L9.90406 1.89612L10.4188 1.37575H9.76369L9.46148 0.705627L9.20375 1.37575H8.4353L9.02364 1.89612L8.82492 2.62575H8.51369L8.21148 1.95563L7.95375 2.62575H7.58112L7.40406 1.89612L7.91877 1.37575H7.26369L6.96148 0.705627L6.70375 1.37575H5.9353L6.52364 1.89612L6.32492 2.62575H6.01369L5.71148 1.95563L5.45375 2.62575H5.08112L4.90406 1.89612L5.41877 1.37575H4.76369L4.46148 0.705627L4.20375 1.37575H3.4353L4.02364 1.89612L3.82492 2.62575H3.51369L3.21148 1.95563L2.95375 2.62575H2.58112L2.40406 1.89612L2.91877 1.37575H2.26369L1.96148 0.705627L1.70375 1.37575H0.935303L1.52364 1.89612L1.3 2.71725ZM8.82492 5.12575L9.02364 4.39612L8.4353 3.87575H8.72623L8.2124 3.50583L7.68136 3.87575H7.91877L7.40406 4.39612L7.58112 5.12575H7.95375L8.21148 4.45563L8.51369 5.12575H8.82492ZM7.47623 5.12575L6.9624 4.75583L6.43136 5.12575H6.66877L6.15406 5.64612L6.33112 6.37575H6.70375L6.96148 5.70563L7.26369 6.37575H7.57492L7.77364 5.64612L7.1853 5.12575H7.47623ZM5.27364 5.64612L5.07492 6.37575H4.76369L4.46148 5.70563L4.20375 6.37575H3.83112L3.65406 5.64612L4.16877 5.12575H3.93136L4.4624 4.75583L4.97623 5.12575H4.6853L5.27364 5.64612ZM5.45375 5.12575H5.08112L4.90406 4.39612L5.41877 3.87575H5.18136L5.7124 3.50583L6.22623 3.87575H5.9353L6.52364 4.39612L6.32492 5.12575H6.01369L5.71148 4.45563L5.45375 5.12575ZM3.82492 5.12575L4.02364 4.39612L3.4353 3.87575H3.72623L3.2124 3.50583L2.68136 3.87575H2.91877L2.40406 4.39612L2.58112 5.12575H2.95375L3.21148 4.45563L3.51369 5.12575H3.82492ZM7.77364 3.14612L7.57492 3.87575H7.26369L6.96148 3.20563L6.70375 3.87575H6.33112L6.15406 3.14612L6.66877 2.62575H6.43136L6.9624 2.25583L7.47623 2.62575H7.1853L7.77364 3.14612ZM4.97623 2.62575L4.4624 2.25583L3.93136 2.62575H4.16877L3.65406 3.14612L3.83112 3.87575H4.20375L4.46148 3.20563L4.76369 3.87575H5.07492L5.27364 3.14612L4.6853 2.62575H4.97623Z" fill="#F7FCFF"/>
</g>
</svg>
