<svg width="20" height="15" viewBox="0 0 20 15" fill="none" xmlns="http://www.w3.org/2000/svg">
<mask id="mask0_964_6996" style="mask-type:alpha" maskUnits="userSpaceOnUse" x="0" y="0" width="20" height="15">
<rect width="20" height="15" rx="1.25" fill="white"/>
</mask>
<g mask="url(#mask0_964_6996)">
<path fill-rule="evenodd" clip-rule="evenodd" d="M0 0V15H20V0H0Z" fill="#2E42A5"/>
<mask id="mask1_964_6996" style="mask-type:alpha" maskUnits="userSpaceOnUse" x="0" y="0" width="20" height="15">
<path fill-rule="evenodd" clip-rule="evenodd" d="M0 0V15H20V0H0Z" fill="white"/>
</mask>
<g mask="url(#mask1_964_6996)">
<path fill-rule="evenodd" clip-rule="evenodd" d="M0 0V5H20V0H0Z" fill="#FECA00"/>
<path fill-rule="evenodd" clip-rule="evenodd" d="M0 10V15H20V10H0Z" fill="#E31D1C"/>
<path fill-rule="evenodd" clip-rule="evenodd" d="M7.9605 7.41212L8.57468 7.06369L9.26381 7.41212L9.01633 6.70398L9.53104 6.18361H8.87596L8.57375 5.51349L8.31602 6.18361H7.54757L8.12539 6.69467H7.47736L7.17515 6.02455L6.91742 6.69467H6.14898L6.73731 7.21505L6.62486 7.669H6.13451L5.8323 6.99888L5.57457 7.669H4.80612L5.39446 8.18938L5.28564 8.62865H5.07096L4.76875 7.95853L4.51102 8.62865H3.74258L4.33091 9.14903L4.1555 9.85717L4.76968 9.50874L5.45882 9.85717L5.21133 9.14903L5.72604 8.62865H5.69297L5.83322 8.54909L6.52236 8.89752L6.27488 8.18938L6.56983 7.89118L6.5619 7.92318L7.17608 7.57476L7.86522 7.92318L7.61773 7.21505L8.12915 6.698L8.13591 6.70398L7.9605 7.41212Z" fill="#F7FCFF"/>
<path fill-rule="evenodd" clip-rule="evenodd" d="M12.0143 7.38472L11.4002 7.03629L10.711 7.38472L10.9585 6.67658L10.4438 6.1562H11.0989L11.4011 5.48608L11.6588 6.1562H12.4273L11.8494 6.66727H12.5005L12.8027 5.99715L13.0605 6.66727H13.8289L13.2406 7.18764L13.353 7.6416H13.8434L14.1456 6.97148L14.4033 7.6416H15.1718L14.5834 8.16197L14.6922 8.60125H14.9069L15.2091 7.93113L15.4669 8.60125H16.2353L15.647 9.12162L15.8224 9.82976L15.2082 9.48133L14.5191 9.82976L14.7666 9.12162L14.2518 8.60125H14.2849L14.1447 8.52168L13.4555 8.87011L13.703 8.16197L13.4081 7.86378L13.416 7.89578L12.8018 7.54735L12.1127 7.89578L12.3602 7.18764L11.8473 6.66915L11.8389 6.67658L12.0143 7.38472Z" fill="#F7FCFF"/>
<path fill-rule="evenodd" clip-rule="evenodd" d="M9.89557 6.5842L9.28139 6.93263L9.4568 6.22449L8.86847 5.70412H9.63692L9.89465 5.034L10.1969 5.70412H10.8519L10.3372 6.22449L10.5847 6.93263L9.89557 6.5842Z" fill="#F7FCFF"/>
</g>
</g>
</svg>
