<svg width="20" height="15" viewBox="0 0 20 15" fill="none" xmlns="http://www.w3.org/2000/svg">
<mask id="mask0_964_7000" style="mask-type:alpha" maskUnits="userSpaceOnUse" x="0" y="0" width="20" height="15">
<rect width="20" height="15" fill="white"/>
</mask>
<g mask="url(#mask0_964_7000)">
<path fill-rule="evenodd" clip-rule="evenodd" d="M0 0H20V15H0V0Z" fill="#F7FCFF"/>
<path fill-rule="evenodd" clip-rule="evenodd" d="M0 0V5H20V0H0Z" fill="#C51918"/>
<path fill-rule="evenodd" clip-rule="evenodd" d="M0 10V15H20V10H0Z" fill="#5EAA22"/>
<path fill-rule="evenodd" clip-rule="evenodd" d="M0 -1.25L10.4185 7.5L0 16.25V-1.25Z" fill="#272727"/>
<mask id="path-6-outside-1_964_7000" maskUnits="userSpaceOnUse" x="-2" y="-5.09686" width="24" height="25" fill="black">
<rect fill="white" x="-2" y="-5.09686" width="24" height="25"/>
<path fill-rule="evenodd" clip-rule="evenodd" d="M0 -2.09686L10.8802 6.24998H20V8.74998H10.7309L0 16.7572V13.9626L8.75 7.49998L0 0.959045V-2.09686Z"/>
</mask>
<path fill-rule="evenodd" clip-rule="evenodd" d="M0 -2.09686L10.8802 6.24998H20V8.74998H10.7309L0 16.7572V13.9626L8.75 7.49998L0 0.959045V-2.09686Z" fill="#FFD018"/>
<path d="M10.8802 6.24998L10.1193 7.24175L10.4559 7.49998H10.8802V6.24998ZM0 -2.09686L0.760848 -3.08863L-1.25 -4.63128L-1.25 -2.09686H0ZM20 6.24998H21.25V4.99998H20V6.24998ZM20 8.74998V9.99998H21.25V8.74998H20ZM10.7309 8.74998V7.49998H10.3159L9.98331 7.74815L10.7309 8.74998ZM0 16.7572H-1.25V19.2496L0.747551 17.759L0 16.7572ZM0 13.9626L-0.742634 12.9571L-1.25 13.3318V13.9626H0ZM8.75 7.49998L9.49263 8.50546L10.8458 7.50602L9.49842 6.4988L8.75 7.49998ZM0 0.959045H-1.25V1.58528L-0.74842 1.96023L0 0.959045ZM11.641 5.25821L0.760848 -3.08863L-0.760848 -1.10509L10.1193 7.24175L11.641 5.25821ZM20 4.99998H10.8802V7.49998H20V4.99998ZM21.25 8.74998V6.24998H18.75V8.74998H21.25ZM10.7309 9.99998H20V7.49998H10.7309V9.99998ZM0.747551 17.759L11.4784 9.75181L9.98331 7.74815L-0.747551 15.7553L0.747551 17.759ZM-1.25 13.9626V16.7572H1.25V13.9626H-1.25ZM8.00737 6.4945L-0.742634 12.9571L0.742634 14.9681L9.49263 8.50546L8.00737 6.4945ZM-0.74842 1.96023L8.00158 8.50116L9.49842 6.4988L0.74842 -0.0421385L-0.74842 1.96023ZM-1.25 -2.09686V0.959045H1.25V-2.09686H-1.25Z" fill="#272727" mask="url(#path-6-outside-1_964_7000)"/>
<path d="M3.04604 10.48L3.04729 9.49232C3.9275 9.29814 4.51059 9.04556 4.79441 8.74181C5.49331 7.88046 5.02871 5.86241 3.59286 5.87561C2.88149 5.87561 2.14587 6.21459 2.14587 7.01243C2.14587 8.00333 2.34979 8.42692 3.04729 8.42692C3.74045 8.42692 3.99458 8.46398 4.45117 7.84166L4.94666 7.99475C4.45738 8.66163 3.79785 9.18842 3.04604 9.18842C1.80758 9.18842 1.13361 8.25463 1.13361 7.17468C1.13361 5.84149 2.21591 4.90778 3.52087 4.90778C4.49456 4.90778 6.03465 6.1004 6.03465 7.17468C6.03465 8.24896 6.03465 8.74181 5.19018 9.49232C4.85003 9.79461 4.00725 10.3345 3.04604 10.48Z" fill="#FFD018"/>
<path fill-rule="evenodd" clip-rule="evenodd" d="M3.11962 6.17492C3.07194 6.16233 3.02309 6.19077 3.0105 6.23845L2.97636 6.36771C2.97466 6.3655 2.97294 6.36328 2.97123 6.36106C2.94109 6.32204 2.88502 6.31483 2.84599 6.34497C2.80696 6.37511 2.79976 6.43119 2.8299 6.47021C2.85059 6.497 2.871 6.52347 2.89113 6.54962L2.78824 6.64464C2.75201 6.67809 2.74976 6.73458 2.78321 6.77081C2.81666 6.80703 2.87315 6.80928 2.90938 6.77583L3.0003 6.69187C3.05459 6.76283 3.10661 6.83118 3.15631 6.89682L2.98515 6.98871C2.9417 7.01203 2.92539 7.06616 2.94871 7.10961C2.97204 7.15305 3.02617 7.16937 3.06961 7.14604L3.2651 7.04109C3.312 7.10357 3.35646 7.16318 3.39845 7.21984L3.16372 7.34585C3.12027 7.36918 3.10396 7.42331 3.12728 7.46675C3.15061 7.5102 3.20474 7.52651 3.24818 7.50319L3.50539 7.3651C3.5738 7.45869 3.63377 7.54214 3.68497 7.61489L3.52086 7.703C3.47741 7.72632 3.4611 7.78045 3.48443 7.82389C3.50775 7.86734 3.56188 7.88365 3.60533 7.86033L3.78696 7.76282C3.86251 7.87539 3.90162 7.94292 3.90162 7.96069C3.90162 8.01001 3.94159 8.04998 3.99091 8.04998C4.04022 8.04998 4.08019 8.01001 4.08019 7.96069C4.08019 7.9155 4.03318 7.82045 3.93494 7.66812C3.93636 7.66565 3.93767 7.66311 3.93885 7.6605L4.07097 7.36959C4.09137 7.3247 4.0715 7.27177 4.0266 7.25138C3.9817 7.23099 3.92878 7.25085 3.90839 7.29575L3.81813 7.49449C3.76174 7.41333 3.69591 7.32145 3.62034 7.21831L3.71383 7.01245C3.73422 6.96755 3.71436 6.91463 3.66946 6.89424C3.62456 6.87384 3.57163 6.89371 3.55124 6.93861L3.49883 7.05401C3.46995 7.01527 3.43993 6.97522 3.40877 6.93382L3.53526 6.65531C3.55565 6.61041 3.53579 6.55748 3.49089 6.53709C3.44599 6.5167 3.39306 6.53657 3.37267 6.58146L3.28621 6.77183C3.23176 6.70019 3.17433 6.62505 3.11389 6.54632L3.18315 6.28404C3.19574 6.23636 3.1673 6.18751 3.11962 6.17492Z" fill="#FFD018"/>
<path fill-rule="evenodd" clip-rule="evenodd" d="M3.7201 6.17492C3.76778 6.16233 3.81664 6.19077 3.82923 6.23845L3.86336 6.36771C3.86507 6.3655 3.86678 6.36328 3.86849 6.36106C3.89863 6.32204 3.9547 6.31483 3.99373 6.34497C4.03276 6.37511 4.03996 6.43119 4.00982 6.47021C3.98914 6.497 3.96873 6.52347 3.94859 6.54962L4.05149 6.64464C4.08771 6.67809 4.08996 6.73458 4.05651 6.77081C4.02306 6.80703 3.96657 6.80928 3.93034 6.77583L3.83942 6.69187C3.78514 6.76283 3.73312 6.83118 3.68341 6.89682L3.85458 6.98871C3.89802 7.01203 3.91433 7.06616 3.89101 7.10961C3.86768 7.15305 3.81356 7.16937 3.77011 7.14604L3.57463 7.04109C3.52773 7.10357 3.48326 7.16318 3.44127 7.21984L3.676 7.34585C3.71945 7.36918 3.73576 7.42331 3.71244 7.46675C3.68911 7.5102 3.63498 7.52651 3.59154 7.50319L3.33433 7.3651C3.26592 7.45869 3.20595 7.54214 3.15475 7.61489L3.31886 7.703C3.36231 7.72632 3.37862 7.78045 3.35529 7.82389C3.33197 7.86734 3.27784 7.88365 3.2344 7.86033L3.05276 7.76282C2.97722 7.87539 2.9381 7.94292 2.9381 7.96069C2.9381 8.01001 2.89813 8.04998 2.84882 8.04998C2.7995 8.04998 2.75953 8.01001 2.75953 7.96069C2.75953 7.9155 2.80654 7.82045 2.90478 7.66812C2.90336 7.66565 2.90205 7.66311 2.90087 7.6605L2.76875 7.36959C2.74836 7.3247 2.76822 7.27177 2.81312 7.25138C2.85802 7.23099 2.91094 7.25085 2.93134 7.29575L3.0216 7.49449C3.07799 7.41333 3.14381 7.32145 3.21938 7.21831L3.12589 7.01245C3.1055 6.96755 3.12536 6.91463 3.17026 6.89424C3.21516 6.87384 3.26809 6.89371 3.28848 6.93861L3.34089 7.05401C3.36978 7.01527 3.39979 6.97522 3.43095 6.93382L3.30446 6.65531C3.28407 6.61041 3.30394 6.55748 3.34883 6.53709C3.39373 6.5167 3.44666 6.53657 3.46705 6.58146L3.55351 6.77183C3.60796 6.70019 3.66539 6.62505 3.72583 6.54632L3.65657 6.28404C3.64398 6.23636 3.67243 6.18751 3.7201 6.17492Z" fill="#FFD018"/>
</g>
</svg>
